<?xml version="1.0" encoding="UTF-8" standalone="no"?>
<svg
   xmlns:dc="http://purl.org/dc/elements/1.1/"
   xmlns:cc="http://creativecommons.org/ns#"
   xmlns:rdf="http://www.w3.org/1999/02/22-rdf-syntax-ns#"
   xmlns:svg="http://www.w3.org/2000/svg"
   xmlns="http://www.w3.org/2000/svg"
   xmlns:sodipodi="http://sodipodi.sourceforge.net/DTD/sodipodi-0.dtd"
   xmlns:inkscape="http://www.inkscape.org/namespaces/inkscape"
   width="19.5in"
   height="11in"
   viewBox="0 0 495.3 279.40001"
   version="1.1"
   id="svg27734"
   inkscape:version="1.0.1 (3bc2e813f5, 2020-09-07)"
   sodipodi:docname="BoscheCS20.svg">
  <defs
     id="defs27728" />
  <sodipodi:namedview
     id="base"
     pagecolor="#ffffff"
     bordercolor="#00ff00"
     borderopacity="1"
     inkscape:pageopacity="0.0"
     inkscape:pageshadow="2"
     inkscape:zoom="0.35"
     inkscape:cx="1037.9997"
     inkscape:cy="530.93809"
     inkscape:document-units="mm"
     inkscape:current-layer="layer1"
     inkscape:document-rotation="0"
     showgrid="false"
     units="in"
     inkscape:pagecheckerboard="false"
     inkscape:showpageshadow="false"
     borderlayer="false"
     inkscape:window-width="2131"
     inkscape:window-height="1368"
     inkscape:window-x="1273"
     inkscape:window-y="1080"
     inkscape:window-maximized="0"
     showguides="true"
     inkscape:guide-bbox="true">
    <sodipodi:guide
       position="0,279.4"
       orientation="0,1872"
       id="guide3049" />
    <sodipodi:guide
       position="495.30001,279.4"
       orientation="1056,0"
       id="guide3051" />
    <sodipodi:guide
       position="495.30001,0"
       orientation="0,-1872"
       id="guide3053" />
    <sodipodi:guide
       position="0,0"
       orientation="-1056,0"
       id="guide3055" />
  </sodipodi:namedview>
  <metadata
     id="metadata27731">
    <rdf:RDF>
      <cc:Work
         rdf:about="">
        <dc:format>image/svg+xml</dc:format>
        <dc:type
           rdf:resource="http://purl.org/dc/dcmitype/StillImage" />
        <dc:title />
      </cc:Work>
    </rdf:RDF>
  </metadata>
  <g
     inkscape:label="Layer 1"
     inkscape:groupmode="layer"
     id="layer1">
    <g
       id="g2657"
       transform="rotate(90,159.92291,184.82294)">
      <path
         style="fill:none;stroke:#000000;stroke-width:1"
         d="m 184.0101,319.74585 v 6.3783 h -6 v 12.2434 h 6 v 6.3783"
         id="path2567" />
      <path
         style="fill:none;stroke:#000000;stroke-width:1"
         d="m 184.0101,344.74585 h -10.779 v 0 h -10.913 v 0 h -10.734 v 0 h -10.913 v 0 h -10.734 v 0 h -10.913 v 0 h -10.734 v 0 h -10.913 v 0 h -10.734 v 0 h -10.913 v 0 h -10.734 v 0 h -10.913 v 0 h -10.734 v 0 h -10.913 v 0 h -10.734 v 0 h -10.913 v 0 H 0.0101"
         id="path2569" />
      <path
         style="fill:none;stroke:#000000;stroke-width:1"
         d="m 0.0101,344.74585 v -6.3783 h 6 v -12.2434 h -6 v -6.3783"
         id="path2571" />
    </g>
    <g
       id="g2644"
       transform="rotate(90,157.27708,184.82294)">
      <path
         style="fill:none;stroke:#000000;stroke-width:1"
         d="m -27.54585,6.19 h 6.288 v -6 h 12.424 v 6 h 6.288"
         id="path2574" />
      <path
         style="fill:none;stroke:#000000;stroke-width:1"
         d="m -2.54585,311.19 h -6.288 v 6 h -12.424 v -6 h -6.288"
         id="path2578" />
      <path
         style="fill:none;stroke:#000000;stroke-width:1"
         d="m -27.54585,311.19 v -4.181 0 -10.316 0 -10.135 0 -10.316 0 -10.136 0 -10.316 0 -10.136 0 -10.315 0 -10.136 0 -10.316 0 -10.136 0 -10.316 0 -10.135 0 -10.316 0 -10.136 0 -10.316 0 -10.136 0 -10.316 0 -10.135 0 -10.316 0 -10.136 0 -10.3157 0 -10.1358 0 -10.3159 0 -10.1358 0 -10.3158 0 -10.1358 0 -10.3158 0 -10.1358 0 -10.3158 0 V 6.19"
         id="path2580" />
    </g>
    <g
       id="g2716"
       transform="rotate(90,152.4762,183.52382)">
      <path
         style="fill:none;stroke:#000000;stroke-width:1"
         d="m 177.9524,-0.089995 h 6.288 v -6 h 12.424 v 6 h 6.288"
         id="path2592" />
      <path
         style="fill:none;stroke:#000000;stroke-width:1"
         d="m 202.9524,-0.089995 v 4.1808 0 10.3158 0 10.1358 0 10.3158 0 10.1358 0 10.3158 0 10.1358 0 10.3159 0 10.1358 0 10.3157 0 10.135995 0 10.316 0 10.135 0 10.316 0 10.136 0 10.316 0 10.136 0 10.316 0 10.135 0 10.316 0 10.136 0 10.316 0 10.136 0 10.315 0 10.136 0 10.316 0 10.136 0 10.316 0 10.135 0 10.316 0 4.181"
         id="path2594" />
      <path
         style="fill:none;stroke:#000000;stroke-width:1"
         d="m 202.9524,304.91 h -6.288 v 6 h -12.424 v -6 h -6.288"
         id="path2596" />
    </g>
    <g
       id="g2666"
       transform="rotate(90,157.27708,182.1771)">
      <path
         style="fill:none;stroke:#000000;stroke-width:1"
         d="m 0.0102,-27.545835 h 10.779 v 0 h 10.913 v 0 h 10.734 v 0 h 10.913 v 0 h 10.734 v 0 h 10.913 v 0 h 10.734 v 0 h 10.913 v 0 h 10.734 v 0 h 10.913 v 0 h 10.734 v 0 h 10.913 v 0 h 10.734 v 0 h 10.913 v 0 h 10.734 v 0 h 10.913 v 0 h 10.779"
         id="path2601" />
      <path
         style="fill:none;stroke:#000000;stroke-width:1"
         d="m 184.0102,-27.545835 v 6.3783 h -6 v 12.2434 h 6 v 6.3783"
         id="path2603" />
      <path
         style="fill:none;stroke:#000000;stroke-width:1"
         d="m 0.0102,-2.545835 v -6.3783 h 6 v -12.2434 h -6 v -6.3783"
         id="path2607" />
    </g>
    <g
       id="g4255"
       transform="matrix(1,0,0,-1,0,234.00004)">
      <g
         id="panel4509"
         transform="rotate(90,158.6,183.50002)">
        <path
           style="fill:none;stroke:#000000;stroke-width:1"
           d="m 0.1,0.1 h 10.8685 v 6 h 10.7336 v -6 h 10.9135 v 6 h 10.7335 v -6 h 10.9135 v 6 h 10.7336 v -6 h 10.9135 v 6 h 10.7335 v -6 h 10.9136 v 6 H 108.29 v -6 h 10.914 v 6 h 10.733 v -6 h 10.914 v 6 h 10.733 v -6 h 10.914 v 6 h 10.733 v -6 H 184.1"
           id="path2583" />
        <path
           style="fill:none;stroke:#000000;stroke-width:1"
           d="m 184.1,0.1 v 10.2708 h -6 v 10.1358 h 6 v 10.3158 h -6 v 10.1358 h 6 V 51.274 h -6 v 10.1358 h 6 v 10.3158 h -6 v 10.1359 h 6 v 10.3158 h -6 v 10.1357 h 6 v 10.316 h -6 v 10.136 h 6 v 10.315 h -6 v 10.136 h 6 v 10.316 h -6 v 10.136 h 6 v 10.316 h -6 v 10.136 h 6 v 10.315 h -6 v 10.136 h 6 v 10.316 h -6 v 10.136 h 6 v 10.316 h -6 v 10.135 h 6 v 10.316 h -6 v 10.136 h 6 v 10.316 h -6 v 10.136 h 6 v 10.315 h -6 v 10.136 h 6 V 317.1"
           id="path2585" />
        <path
           style="fill:none;stroke:#000000;stroke-width:1"
           d="m 184.1,317.1 h -10.869 v -6 h -10.733 v 6 h -10.914 v -6 h -10.733 v 6 h -10.914 v -6 h -10.733 v 6 H 108.29 v -6 H 97.5568 v 6 H 86.6432 v -6 H 75.9097 v 6 H 64.9962 v -6 H 54.2626 v 6 H 43.3491 v -6 H 32.6156 v 6 H 21.7021 v -6 H 10.9685 v 6 H 0.1"
           id="path2587" />
        <path
           style="fill:none;stroke:#000000;stroke-width:1"
           d="m 0.1,317.1 v -10.271 h 6 v -10.136 h -6 v -10.315 h 6 v -10.136 h -6 v -10.316 h 6 V 255.79 h -6 v -10.316 h 6 v -10.135 h -6 v -10.316 h 6 v -10.136 h -6 v -10.316 h 6 v -10.136 h -6 V 184.12 h 6 v -10.136 h -6 v -10.316 h 6 v -10.136 h -6 v -10.316 h 6 V 133.08 h -6 v -10.315 h 6 v -10.136 h -6 v -10.316 h 6 V 92.1773 h -6 V 81.8615 h 6 V 71.7256 h -6 V 61.4098 h 6 V 51.274 h -6 V 40.9582 h 6 V 30.8224 h -6 V 20.5066 h 6 V 10.3708 h -6 V 0.1"
           id="path2589" />
      </g>
      <rect
         style="fill:none;stroke:#000000;stroke-width:1;stroke-miterlimit:0.8"
         id="rect2686"
         width="25.006403"
         height="179.98163"
         x="56.045685"
         y="-256.00491"
         ry="12.503201"
         transform="rotate(90)" />
    </g>
    <g
       aria-label="BOSCH 
CIRC SAW"
       transform="rotate(90)"
       id="text4259"
       style="font-size:11.2889px;line-height:1.25;font-family:Michroma;-inkscape-font-specification:'Michroma, Normal';writing-mode:lr-tb;fill:#ff0000;stroke:none;stroke-width:1;stroke-miterlimit:0.8">
      <path
         d="m 52.000828,-221.57521 v -8.46668 h 7.061075 q 0.793751,0 1.27882,0.1323 0.48507,0.12678 0.744142,0.38033 0.264583,0.24805 0.352778,0.62288 0.08819,0.37483 0.08819,0.8599 0,0.35277 -0.06063,0.62287 -0.06063,0.2701 -0.159853,0.46853 -0.09922,0.19844 -0.225998,0.33624 -0.12678,0.1323 -0.259072,0.22049 -0.308681,0.20946 -0.705556,0.23702 0.496094,0.0276 0.881945,0.24254 0.165365,0.0937 0.319706,0.23702 0.159852,0.13781 0.28112,0.34727 0.126779,0.20395 0.203949,0.48507 0.07717,0.27561 0.07717,0.63941 0,0.44097 -0.0441,0.81029 -0.03859,0.3638 -0.165364,0.65594 -0.12678,0.29215 -0.363803,0.51263 -0.237023,0.22049 -0.633898,0.36932 -0.391363,0.14331 -0.964628,0.21497 -0.567752,0.0717 -1.361503,0.0717 z m 5.991716,-0.88195 q 0.617362,0 1.069359,-0.0165 0.451997,-0.0221 0.76619,-0.0827 0.314193,-0.0662 0.507118,-0.18191 0.192926,-0.12126 0.297657,-0.31419 0.110243,-0.19844 0.148828,-0.47956 0.03859,-0.28112 0.03859,-0.67799 0,-0.30868 -0.03859,-0.53468 -0.03858,-0.23151 -0.148828,-0.38585 -0.104731,-0.15986 -0.297657,-0.25356 -0.192925,-0.0992 -0.507118,-0.15434 -0.314193,-0.0551 -0.76619,-0.0717 -0.451997,-0.0221 -1.069359,-0.0221 h -4.933382 v 3.175 z m 0,-4.05694 q 0.540192,0 0.931555,-0.022 0.391363,-0.0221 0.666971,-0.0827 0.275608,-0.0606 0.446485,-0.16536 0.170877,-0.11024 0.264583,-0.28112 0.09922,-0.17088 0.132292,-0.4079 0.03307,-0.24254 0.03307,-0.57326 0,-0.35278 -0.07717,-0.57327 -0.07717,-0.22049 -0.275608,-0.33624 -0.198438,-0.12127 -0.540192,-0.15985 -0.336241,-0.0441 -0.865408,-0.0441 h -5.649963 v 2.64584 z"
         style="stroke-width:1"
         id="path4263" />
      <path
         d="m 70.350803,-230.21827 q 0.97014,0 1.631599,0.12126 0.666971,0.11576 1.09692,0.35829 0.429948,0.23703 0.661459,0.60083 0.23151,0.3638 0.336241,0.85438 0.110244,0.49058 0.12678,1.10795 0.02205,0.61736 0.02205,1.36701 0,0.74966 -0.02205,1.36702 -0.01654,0.61736 -0.12678,1.10794 -0.104731,0.49058 -0.336241,0.85439 -0.231511,0.3638 -0.661459,0.60633 -0.429949,0.23703 -1.09692,0.35278 -0.661459,0.12127 -1.631599,0.12127 h -3.186027 q -0.97014,0 -1.637111,-0.12127 -0.661459,-0.11575 -1.091408,-0.35278 -0.429948,-0.24253 -0.666971,-0.60633 -0.23151,-0.36381 -0.341754,-0.85439 -0.104731,-0.49058 -0.121267,-1.10794 -0.01654,-0.61736 -0.01654,-1.36702 0,-0.74965 0.01654,-1.36701 0.01654,-0.61737 0.121267,-1.10795 0.110244,-0.49058 0.341754,-0.85438 0.237023,-0.3638 0.666971,-0.60083 0.429949,-0.24253 1.091408,-0.35829 0.666971,-0.12126 1.637111,-0.12126 z m 0,7.9375 q 0.700045,0 1.179602,-0.0386 0.48507,-0.0441 0.799263,-0.17088 0.314193,-0.12678 0.48507,-0.3638 0.170877,-0.23702 0.248047,-0.62839 0.07717,-0.39136 0.08819,-0.95911 0.01654,-0.57327 0.01654,-1.36702 0,-0.79375 -0.01654,-1.3615 -0.01102,-0.57327 -0.08819,-0.96463 -0.07717,-0.39136 -0.248047,-0.62839 -0.170877,-0.23702 -0.48507,-0.3638 -0.308681,-0.12678 -0.793751,-0.16536 -0.479557,-0.0441 -1.185114,-0.0441 h -3.186027 q -0.705556,0 -1.190626,0.0441 -0.479558,0.0386 -0.793751,0.16536 -0.314193,0.12678 -0.48507,0.3638 -0.170877,0.23703 -0.248047,0.62839 -0.07717,0.39136 -0.08819,0.96463 -0.01102,0.56775 -0.01102,1.3615 0,0.79375 0.01102,1.36702 0.01654,0.56775 0.09371,0.95911 0.07717,0.39137 0.242535,0.62839 0.170877,0.23702 0.48507,0.3638 0.314193,0.12678 0.793751,0.17088 0.48507,0.0386 1.190626,0.0386 z"
         style="stroke-width:1"
         id="path4265" />
      <path
         d="m 81.325512,-226.33772 q 0.870921,0 1.493795,0.0717 0.622873,0.0717 1.04731,0.21498 0.429948,0.1378 0.683507,0.34726 0.25356,0.20946 0.391364,0.47956 0.137804,0.26458 0.176389,0.59531 0.0441,0.33073 0.0441,0.71658 0,0.38586 -0.07166,0.72761 -0.06615,0.33624 -0.242535,0.61736 -0.176389,0.28112 -0.479558,0.50161 -0.303169,0.22048 -0.771702,0.37482 -0.468534,0.15434 -1.129993,0.23151 -0.655946,0.0827 -1.537892,0.0827 h -1.411112 q -0.793751,0 -1.389064,-0.0606 -0.595313,-0.0606 -1.025262,-0.1819 -0.429948,-0.12678 -0.711068,-0.31419 -0.28112,-0.19293 -0.451997,-0.44649 -0.165365,-0.25907 -0.231511,-0.58428 -0.06615,-0.33073 -0.06615,-0.72761 h 1.058335 q 0,0.49609 0.143316,0.77721 0.143316,0.28113 0.474046,0.42444 0.330729,0.13781 0.865408,0.17639 0.540192,0.0331 1.333943,0.0331 h 1.411112 q 0.926043,0 1.537892,-0.0882 0.61185,-0.0882 0.975652,-0.28112 0.363803,-0.19293 0.512631,-0.50161 0.148828,-0.31419 0.148828,-0.76068 0,-0.44648 -0.104731,-0.74414 -0.09922,-0.29765 -0.402387,-0.47404 -0.297657,-0.17639 -0.84336,-0.24805 -0.545704,-0.0772 -1.427649,-0.0772 h -1.45521 q -0.97014,0 -1.664672,-0.0717 -0.68902,-0.0717 -1.157553,-0.20395 -0.468534,-0.1378 -0.749654,-0.33624 -0.28112,-0.20395 -0.429948,-0.46302 -0.143316,-0.25907 -0.187414,-0.57327 -0.0441,-0.3197 -0.0441,-0.68902 0,-0.38585 0.06615,-0.71658 0.07166,-0.33073 0.259072,-0.59531 0.187413,-0.27009 0.51263,-0.47956 0.325218,-0.20946 0.832336,-0.34726 0.512631,-0.14332 1.229212,-0.21498 0.71658,-0.0716 1.68672,-0.0716 h 1.058334 q 0.793751,0 1.389064,0.0606 0.595313,0.0551 1.025262,0.1819 0.429948,0.12127 0.711068,0.30868 0.286632,0.1819 0.451997,0.44097 0.170877,0.25356 0.237023,0.57878 0.06615,0.32522 0.06615,0.72209 h -1.058335 q 0,-0.49609 -0.143316,-0.77721 -0.143316,-0.28112 -0.474045,-0.41893 -0.33073,-0.14331 -0.870921,-0.17638 -0.540192,-0.0386 -1.333943,-0.0386 H 80.22308 q -1.058334,0 -1.741842,0.0772 -0.683508,0.0717 -1.080383,0.24805 -0.396876,0.17639 -0.551216,0.47404 -0.15434,0.29766 -0.15434,0.74414 0,0.27561 0.03858,0.49059 0.03858,0.21497 0.15434,0.38034 0.121268,0.15985 0.336242,0.27009 0.214974,0.11024 0.567752,0.1819 0.352778,0.0717 0.859897,0.10473 0.512631,0.0276 1.218187,0.0276 z"
         style="stroke-width:1"
         id="path4267" />
      <path
         d="m 95.739803,-227.39605 q 0,-0.66146 -0.143316,-1.04731 -0.143317,-0.38585 -0.474046,-0.58429 -0.33073,-0.19844 -0.870921,-0.25356 -0.534679,-0.0551 -1.32843,-0.0551 h -2.474959 q -0.705557,0 -1.190627,0.0441 -0.479557,0.0386 -0.79375,0.16536 -0.314193,0.12678 -0.48507,0.3638 -0.170877,0.23703 -0.248047,0.62839 -0.07717,0.39136 -0.08819,0.96463 -0.01102,0.56775 -0.01102,1.3615 0,0.79375 0.01102,1.36702 0.01654,0.56775 0.09371,0.95911 0.07717,0.39137 0.242535,0.62839 0.170877,0.23702 0.48507,0.3638 0.314193,0.12678 0.79375,0.17088 0.48507,0.0386 1.190627,0.0386 h 2.474959 q 0.617361,0 1.063846,-0.0331 0.446485,-0.0331 0.760678,-0.12127 0.314193,-0.0882 0.507119,-0.24253 0.192925,-0.15434 0.297656,-0.38585 0.110243,-0.23703 0.148829,-0.56224 0.03858,-0.33073 0.03858,-0.77171 h 1.058334 q 0,0.52917 -0.06615,0.95912 -0.06615,0.42444 -0.237023,0.76068 -0.165364,0.33073 -0.446484,0.57326 -0.281121,0.24254 -0.711069,0.40239 -0.429948,0.15434 -1.025261,0.226 -0.595313,0.0772 -1.389064,0.0772 h -2.474959 q -0.97014,0 -1.637111,-0.12127 -0.661459,-0.11575 -1.091408,-0.35278 -0.429948,-0.24253 -0.666971,-0.60633 -0.231511,-0.36381 -0.341754,-0.85439 -0.104731,-0.49058 -0.121267,-1.10794 -0.01654,-0.61736 -0.01654,-1.36702 0,-0.74965 0.01654,-1.36701 0.01654,-0.61737 0.121267,-1.10795 0.110243,-0.49058 0.341754,-0.85438 0.237023,-0.3638 0.666971,-0.60083 0.429949,-0.24253 1.091408,-0.35829 0.666971,-0.12126 1.637111,-0.12126 h 2.474959 q 0.793751,0 1.389064,0.0772 0.595313,0.0717 1.025261,0.22599 0.429948,0.14883 0.711069,0.38034 0.28112,0.23151 0.446484,0.54571 0.170877,0.31419 0.237023,0.71106 0.06615,0.39688 0.06615,0.88195 z"
         style="stroke-width:1"
         id="path4269" />
      <path
         d="m 107.38148,-230.04189 h 1.05834 v 8.46668 h -1.05834 v -3.88056 h -7.761115 v 3.88056 h -1.058334 v -8.46668 h 1.058334 v 3.70417 h 7.761115 z"
         style="stroke-width:1"
         id="path4271" />
      <path
         d="m 60.814769,-213.28492 q 0,-0.66146 -0.143316,-1.04731 -0.143316,-0.38586 -0.474046,-0.58429 -0.330729,-0.19844 -0.870921,-0.25356 -0.534679,-0.0551 -1.32843,-0.0551 h -2.474959 q -0.705556,0 -1.190626,0.0441 -0.479558,0.0386 -0.793751,0.16537 -0.314193,0.12678 -0.48507,0.3638 -0.170877,0.23702 -0.248047,0.62839 -0.07717,0.39136 -0.08819,0.96462 -0.01102,0.56776 -0.01102,1.36151 0,0.79375 0.01102,1.36701 0.01654,0.56775 0.09371,0.95912 0.07717,0.39136 0.242535,0.62838 0.170877,0.23703 0.48507,0.36381 0.314193,0.12678 0.793751,0.17087 0.48507,0.0386 1.190626,0.0386 h 2.474959 q 0.617362,0 1.063847,-0.0331 0.446485,-0.0331 0.760678,-0.12127 0.314193,-0.0882 0.507118,-0.24254 0.192926,-0.15434 0.297657,-0.38585 0.110243,-0.23702 0.148828,-0.56224 0.03858,-0.33073 0.03858,-0.7717 h 1.058335 q 0,0.52917 -0.06615,0.95912 -0.06615,0.42443 -0.237023,0.76067 -0.165365,0.33073 -0.446485,0.57327 -0.28112,0.24253 -0.711068,0.40239 -0.429949,0.15434 -1.025262,0.22599 -0.595313,0.0772 -1.389064,0.0772 h -2.474959 q -0.97014,0 -1.637111,-0.12126 -0.661459,-0.11576 -1.091407,-0.35278 -0.429949,-0.24254 -0.666972,-0.60634 -0.23151,-0.3638 -0.341753,-0.85438 -0.104731,-0.49059 -0.121268,-1.10795 -0.01654,-0.61736 -0.01654,-1.36701 0,-0.74966 0.01654,-1.36702 0.01654,-0.61736 0.121268,-1.10794 0.110243,-0.49058 0.341753,-0.85439 0.237023,-0.3638 0.666972,-0.60082 0.429948,-0.24254 1.091407,-0.35829 0.666971,-0.12127 1.637111,-0.12127 h 2.474959 q 0.793751,0 1.389064,0.0772 0.595313,0.0717 1.025262,0.226 0.429948,0.14883 0.711068,0.38034 0.28112,0.23151 0.446485,0.5457 0.170877,0.31419 0.237023,0.71107 0.06615,0.39688 0.06615,0.88195 z"
         style="stroke-width:1"
         id="path4273" />
      <path
         d="m 63.636994,-215.93076 h 1.058335 v 8.46667 h -1.058335 z"
         style="stroke-width:1"
         id="path4275" />
      <path
         d="m 76.513396,-207.46409 h -1.058334 v -1.5875 q 0,-0.38585 -0.01654,-0.66146 -0.01102,-0.28112 -0.09371,-0.47955 -0.07717,-0.19844 -0.248047,-0.31971 -0.170877,-0.12127 -0.48507,-0.18741 -0.314193,-0.0661 -0.799263,-0.0882 -0.479558,-0.0276 -1.185114,-0.0276 h -4.756993 v 3.35139 h -1.058335 v -8.46667 h 5.991717 q 0.97014,0 1.631599,0.0717 0.666971,0.0661 1.096919,0.20395 0.435461,0.1378 0.666971,0.34175 0.237023,0.20395 0.341754,0.47956 0.110243,0.27561 0.12678,0.61736 0.02205,0.34175 0.02205,0.75517 0,0.52916 -0.07717,0.93155 -0.07166,0.39688 -0.248047,0.678 -0.176389,0.28112 -0.468534,0.45199 -0.292144,0.16537 -0.733117,0.23151 0.440973,0.0661 0.705557,0.23152 0.264583,0.16536 0.407899,0.42994 0.143317,0.26459 0.187414,0.62839 0.04961,0.3638 0.04961,0.82682 z m -8.643064,-4.23333 h 4.933382 q 0.705556,0 1.185114,-0.0221 0.48507,-0.0276 0.799263,-0.0937 0.314193,-0.0661 0.48507,-0.18741 0.170877,-0.12127 0.248047,-0.31971 0.08268,-0.19843 0.09371,-0.47404 0.01654,-0.28112 0.01654,-0.66697 0,-0.35829 -0.01654,-0.61737 -0.01102,-0.25907 -0.09371,-0.43546 -0.07717,-0.17638 -0.248047,-0.28112 -0.170877,-0.10473 -0.48507,-0.15985 -0.314193,-0.0606 -0.799263,-0.0772 -0.479558,-0.0165 -1.185114,-0.0165 h -4.933382 z"
         style="stroke-width:1"
         id="path4277" />
      <path
         d="m 87.267618,-213.28492 q 0,-0.66146 -0.143317,-1.04731 -0.143316,-0.38586 -0.474045,-0.58429 -0.33073,-0.19844 -0.870921,-0.25356 -0.53468,-0.0551 -1.32843,-0.0551 h -2.47496 q -0.705556,0 -1.190626,0.0441 -0.479557,0.0386 -0.793751,0.16537 -0.314193,0.12678 -0.485069,0.3638 -0.170877,0.23702 -0.248048,0.62839 -0.07717,0.39136 -0.08819,0.96462 -0.01102,0.56776 -0.01102,1.36151 0,0.79375 0.01102,1.36701 0.01654,0.56775 0.09371,0.95912 0.07717,0.39136 0.242535,0.62838 0.170876,0.23703 0.485069,0.36381 0.314194,0.12678 0.793751,0.17087 0.48507,0.0386 1.190626,0.0386 h 2.47496 q 0.617361,0 1.063846,-0.0331 0.446485,-0.0331 0.760678,-0.12127 0.314193,-0.0882 0.507119,-0.24254 0.192925,-0.15434 0.297656,-0.38585 0.110243,-0.23702 0.148828,-0.56224 0.03859,-0.33073 0.03859,-0.7717 h 1.058334 q 0,0.52917 -0.06615,0.95912 -0.06615,0.42443 -0.237023,0.76067 -0.165365,0.33073 -0.446485,0.57327 -0.28112,0.24253 -0.711068,0.40239 -0.429948,0.15434 -1.025261,0.22599 -0.595314,0.0772 -1.389064,0.0772 h -2.47496 q -0.970139,0 -1.637111,-0.12126 -0.661459,-0.11576 -1.091407,-0.35278 -0.429948,-0.24254 -0.666971,-0.60634 -0.231511,-0.3638 -0.341754,-0.85438 -0.104731,-0.49059 -0.121267,-1.10795 -0.01654,-0.61736 -0.01654,-1.36701 0,-0.74966 0.01654,-1.36702 0.01654,-0.61736 0.121267,-1.10794 0.110243,-0.49058 0.341754,-0.85439 0.237023,-0.3638 0.666971,-0.60082 0.429948,-0.24254 1.091407,-0.35829 0.666972,-0.12127 1.637111,-0.12127 h 2.47496 q 0.79375,0 1.389064,0.0772 0.595313,0.0717 1.025261,0.226 0.429948,0.14883 0.711068,0.38034 0.28112,0.23151 0.446485,0.5457 0.170877,0.31419 0.237023,0.71107 0.06615,0.39688 0.06615,0.88195 z"
         style="stroke-width:1"
         id="path4279" />
      <path
         d="m 97.895061,-212.22659 q 0.870921,0 1.493795,0.0717 0.622874,0.0717 1.047314,0.21497 0.42994,0.13781 0.6835,0.34727 0.25356,0.20946 0.39137,0.47956 0.1378,0.26458 0.17639,0.59531 0.0441,0.33073 0.0441,0.71658 0,0.38585 -0.0717,0.7276 -0.0661,0.33625 -0.24254,0.61737 -0.17639,0.28112 -0.47956,0.5016 -0.30317,0.22049 -0.7717,0.37483 -0.468533,0.15434 -1.129992,0.23151 -0.655947,0.0827 -1.537892,0.0827 h -1.411113 q -0.793751,0 -1.389064,-0.0606 -0.595313,-0.0606 -1.025261,-0.1819 -0.429948,-0.12678 -0.711069,-0.3142 -0.28112,-0.19292 -0.451997,-0.44648 -0.165364,-0.25907 -0.23151,-0.58429 -0.06615,-0.33073 -0.06615,-0.7276 h 1.058334 q 0,0.49609 0.143316,0.77721 0.143317,0.28112 0.474046,0.42444 0.33073,0.1378 0.865409,0.17639 0.540191,0.0331 1.333942,0.0331 h 1.411113 q 0.926042,0 1.537892,-0.0882 0.61185,-0.0882 0.975652,-0.28112 0.3638,-0.19292 0.51263,-0.5016 0.14883,-0.3142 0.14883,-0.76068 0,-0.44649 -0.10473,-0.74414 -0.0992,-0.29766 -0.40239,-0.47405 -0.297656,-0.17639 -0.84336,-0.24804 -0.545703,-0.0772 -1.427649,-0.0772 h -1.45521 q -0.970139,0 -1.664671,-0.0717 -0.68902,-0.0717 -1.157554,-0.20395 -0.468533,-0.13781 -0.749653,-0.33624 -0.28112,-0.20395 -0.429949,-0.46303 -0.143316,-0.25907 -0.187413,-0.57326 -0.0441,-0.31971 -0.0441,-0.68902 0,-0.38585 0.06615,-0.71658 0.07166,-0.33073 0.259071,-0.59531 0.187413,-0.2701 0.512631,-0.47956 0.325217,-0.20946 0.832336,-0.34727 0.51263,-0.14331 1.229211,-0.21497 0.716581,-0.0717 1.686721,-0.0717 h 1.058334 q 0.793751,0 1.389064,0.0606 0.595313,0.0551 1.025262,0.18191 0.42995,0.12126 0.71107,0.30868 0.28663,0.1819 0.45199,0.44097 0.17088,0.25356 0.23703,0.57878 0.0661,0.32521 0.0661,0.72209 h -1.05833 q 0,-0.4961 -0.14332,-0.77722 -0.14331,-0.28112 -0.47404,-0.41892 -0.330732,-0.14332 -0.870924,-0.17639 -0.540191,-0.0386 -1.333942,-0.0386 H 96.79263 q -1.058335,0 -1.741843,0.0772 -0.683507,0.0717 -1.080383,0.24804 -0.396875,0.17639 -0.551215,0.47405 -0.154341,0.29766 -0.154341,0.74414 0,0.27561 0.03858,0.49058 0.03858,0.21498 0.154341,0.38034 0.121267,0.15985 0.336241,0.2701 0.214975,0.11024 0.567753,0.1819 0.352778,0.0717 0.859896,0.10473 0.512631,0.0276 1.218187,0.0276 z"
         style="stroke-width:1"
         id="path4281" />
      <path
         d="m 111.7857,-209.40436 h -6.70279 l -1.05833,1.94027 h -1.23473 l 4.9389,-8.46667 h 1.41111 l 4.9389,8.46667 h -1.23473 z m -0.52917,-0.88195 -2.82223,-4.93889 -2.82222,4.93889 z"
         style="stroke-width:1"
         id="path4283" />
      <path
         d="m 123.16279,-215.93076 h 1.23473 l 3.43958,7.58473 3.3514,-7.58473 h 1.23472 l -3.88056,8.46667 h -1.41111 l -3.3514,-7.40834 -3.35139,7.40834 h -1.41111 l -4.23334,-8.46667 h 1.23473 l 3.70417,7.58473 z"
         style="stroke-width:1"
         id="path4285" />
    </g>
  </g>
</svg>
