<?xml version="1.0" encoding="UTF-8" standalone="no"?>
<svg
   xmlns:dc="http://purl.org/dc/elements/1.1/"
   xmlns:cc="http://creativecommons.org/ns#"
   xmlns:rdf="http://www.w3.org/1999/02/22-rdf-syntax-ns#"
   xmlns:svg="http://www.w3.org/2000/svg"
   xmlns="http://www.w3.org/2000/svg"
   xmlns:sodipodi="http://sodipodi.sourceforge.net/DTD/sodipodi-0.dtd"
   xmlns:inkscape="http://www.inkscape.org/namespaces/inkscape"
   width="210mm"
   height="297mm"
   viewBox="0 0 210 297"
   version="1.1"
   id="svg8"
   inkscape:version="1.0.2 (e86c870879, 2021-01-15, custom)"
   sodipodi:docname="CornerJigs.svg">
  <defs
     id="defs2" />
  <sodipodi:namedview
     id="base"
     pagecolor="#ffffff"
     bordercolor="#666666"
     borderopacity="1.0"
     inkscape:pageopacity="0.0"
     inkscape:pageshadow="2"
     inkscape:zoom="1.4142136"
     inkscape:cx="636.52238"
     inkscape:cy="181.30911"
     inkscape:document-units="mm"
     inkscape:current-layer="layer1"
     inkscape:document-rotation="0"
     showgrid="false"
     showguides="false"
     inkscape:snap-midpoints="false"
     inkscape:window-width="3840"
     inkscape:window-height="2066"
     inkscape:window-x="-11"
     inkscape:window-y="-11"
     inkscape:window-maximized="1" />
  <metadata
     id="metadata5">
    <rdf:RDF>
      <cc:Work
         rdf:about="">
        <dc:format>image/svg+xml</dc:format>
        <dc:type
           rdf:resource="http://purl.org/dc/dcmitype/StillImage" />
        <dc:title></dc:title>
      </cc:Work>
    </rdf:RDF>
  </metadata>
  <g
     inkscape:label="Layer 1"
     inkscape:groupmode="layer"
     id="layer1">
    <g
       id="g1145"
       transform="translate(0,-2.6458334)">
      <g
         id="g1054"
         transform="rotate(90,87.643843,115.46526)">
        <path
           id="path906"
           style="fill:none;stroke:#000000;stroke-width:1;stroke-miterlimit:4;stroke-dasharray:none"
           d="m 57.090571,119.0103 c 10.244704,-1.2e-4 18.549646,-8.30506 18.549773,-18.54977"
           sodipodi:nodetypes="cc" />
        <path
           id="rect908"
           style="fill:none;stroke:#000000;stroke-width:1;stroke-miterlimit:4;stroke-dasharray:none"
           d="M 75.640344,100.46053 V 81.910244 H 38.540801 m 0,37.100056 h 18.54977"
           sodipodi:nodetypes="ccccc" />
        <g
           aria-label="1.5in"
           id="text935"
           style="font-style:normal;font-weight:normal;font-size:10.5833px;line-height:1.25;font-family:sans-serif;letter-spacing:0px;word-spacing:0px;fill:#ff0000;fill-opacity:1;stroke:none;stroke-width:0.264583"
           transform="translate(-13.274303,2.4690663)">
          <path
             d="m 62.251701,101.78425 h -4.165107 v -0.78548 h 1.601964 V 95.841478 H 58.086594 V 95.13868 q 0.325561,0 0.69763,-0.05168 0.372069,-0.05684 0.563271,-0.160196 0.237711,-0.129191 0.372069,-0.325561 0.139526,-0.201537 0.160197,-0.537433 h 0.800982 v 6.93496 h 1.570958 z"
             style="fill:#ff0000;stroke:none;stroke-width:0.264583"
             id="path937" />
          <path
             d="m 65.920716,101.78425 h -1.235063 v -1.47278 h 1.235063 z"
             style="fill:#ff0000;stroke:none;stroke-width:0.264583"
             id="path939" />
          <path
             d="m 73.20707,99.339961 q 0,0.537433 -0.19637,1.028359 -0.19637,0.49092 -0.537433,0.82682 -0.372069,0.36173 -0.888832,0.5581 -0.511595,0.1912 -1.188554,0.1912 -0.630451,0 -1.214393,-0.13435 -0.583941,-0.12919 -0.987016,-0.31523 v -1.09037 h 0.07235 q 0.423745,0.26872 0.992184,0.45992 0.568439,0.18604 1.116207,0.18604 0.366902,0 0.707965,-0.10336 0.346231,-0.10335 0.614948,-0.36173 0.227375,-0.22221 0.341063,-0.53227 0.118856,-0.310054 0.118856,-0.718297 0,-0.397907 -0.139526,-0.671791 -0.134359,-0.273884 -0.377237,-0.439248 -0.268717,-0.19637 -0.656289,-0.273885 -0.382404,-0.08268 -0.857826,-0.08268 -0.454751,0 -0.878496,0.06201 -0.418578,0.06201 -0.723468,0.124023 v -3.96357 h 4.630193 v 0.904335 h -3.632841 v 2.04638 q 0.222208,-0.02067 0.454751,-0.03101 0.232543,-0.01033 0.403075,-0.01033 0.625283,0 1.095537,0.10852 0.470254,0.103353 0.862993,0.372069 0.413411,0.28422 0.640786,0.733803 0.227376,0.449584 0.227376,1.126543 z"
             style="fill:#ff0000;stroke:none;stroke-width:0.264583"
             id="path941" />
          <path
             d="M 75.956247,95.045663 H 74.86071 v -1.007687 h 1.095537 z m -0.06201,6.738587 h -0.971514 v -5.772241 h 0.971514 z"
             style="fill:#ff0000;stroke:none;stroke-width:0.264583"
             id="path943" />
          <path
             d="m 82.643157,101.78425 h -0.971514 v -3.286612 q 0,-0.397908 -0.04651,-0.744139 -0.04651,-0.351398 -0.170531,-0.547768 -0.129191,-0.21704 -0.37207,-0.320393 -0.242878,-0.10852 -0.63045,-0.10852 -0.397907,0 -0.831988,0.19637 -0.434081,0.19637 -0.831988,0.50126 v 4.309802 h -0.971514 v -5.772241 h 0.971514 v 0.640786 q 0.454751,-0.377237 0.940508,-0.589109 0.485757,-0.211873 0.997352,-0.211873 0.935341,0 1.426265,0.563271 0.490925,0.563271 0.490925,1.622635 z"
             style="fill:#ff0000;stroke:none;stroke-width:0.264583"
             id="path945" />
        </g>
      </g>
    </g>
    <g
       id="g1063"
       transform="rotate(90,164.10988,82.17488)">
      <g
         id="g1004"
         transform="matrix(-1.3423493,0,0,1.3423104,218.82856,-93.316255)"
         style="stroke-width:0.74497">
        <path
           id="path986"
           style="fill:none;stroke:#000000;stroke-width:0.74497;stroke-miterlimit:4;stroke-dasharray:none"
           d="m 73.064012,199.80619 c 10.244704,-1.2e-4 18.549646,-8.30506 18.549773,-18.54977"
           sodipodi:nodetypes="cc" />
        <path
           id="path988"
           style="fill:none;stroke:#000000;stroke-width:0.74497;stroke-miterlimit:4;stroke-dasharray:none"
           d="m 91.613785,181.25642 v -18.55028 m -37.099543,0 v 37.10005 h 18.54977"
           sodipodi:nodetypes="ccccc" />
      </g>
      <g
         aria-label="2in"
         id="text1008"
         style="font-style:normal;font-weight:normal;font-size:10.5833px;line-height:1.25;font-family:sans-serif;letter-spacing:0px;word-spacing:0px;fill:#ff0000;fill-opacity:1;stroke:none;stroke-width:0.264583"
         transform="translate(360.89167,-37.041667)">
        <path
           d="m -242.2231,190.95485 h -5.20897 v -1.08003 q 0.54261,-0.46509 1.08521,-0.93018 0.54776,-0.46508 1.01802,-0.925 0.99218,-0.96118 1.35908,-1.52445 0.36691,-0.56844 0.36691,-1.22473 0,-0.59944 -0.39791,-0.93534 -0.39274,-0.34106 -1.10071,-0.34106 -0.47025,0 -1.01802,0.16536 -0.54777,0.16536 -1.0697,0.50643 h -0.0517 v -1.0852 q 0.3669,-0.18087 0.97668,-0.33073 0.61495,-0.14986 1.18855,-0.14986 1.18339,0 1.85518,0.5736 0.67179,0.56844 0.67179,1.54512 0,0.43925 -0.11369,0.82166 -0.10852,0.37723 -0.32556,0.7183 -0.20153,0.32039 -0.47542,0.63045 -0.26871,0.31005 -0.65629,0.68729 -0.55293,0.5426 -1.14204,1.0542 -0.58911,0.50642 -1.10071,0.94051 h 4.13927 z"
           style="fill:#ff0000;stroke-width:0.264583"
           id="path1018" />
        <path
           d="m -239.53593,184.21626 h -1.09554 v -1.00768 h 1.09554 z m -0.062,6.73859 h -0.97152 v -5.77224 h 0.97152 z"
           style="fill:#ff0000;stroke-width:0.264583"
           id="path1020" />
        <path
           d="m -232.84902,190.95485 h -0.97152 v -3.28661 q 0,-0.39791 -0.0465,-0.74414 -0.0465,-0.3514 -0.17053,-0.54777 -0.12919,-0.21704 -0.37207,-0.32039 -0.24287,-0.10852 -0.63045,-0.10852 -0.3979,0 -0.83198,0.19637 -0.43409,0.19637 -0.83199,0.50126 v 4.3098 h -0.97152 v -5.77224 h 0.97152 v 0.64079 q 0.45475,-0.37724 0.94051,-0.58911 0.48575,-0.21188 0.99735,-0.21188 0.93534,0 1.42626,0.56328 0.49093,0.56327 0.49093,1.62263 z"
           style="fill:#ff0000;stroke-width:0.264583"
           id="path1022" />
      </g>
    </g>
    <g
       id="g1074"
       transform="rotate(180,97.970693,105.77823)">
      <g
         id="g1029"
         transform="matrix(-1.6846566,0,0,1.684611,166.58029,-126.25649)"
         style="stroke-width:0.593598">
        <path
           id="path1025"
           style="fill:none;stroke:#000000;stroke-width:0.593598;stroke-miterlimit:4;stroke-dasharray:none"
           d="m 73.064012,199.80619 c 10.244704,-1.2e-4 18.549646,-8.30506 18.549773,-18.54977"
           sodipodi:nodetypes="cc" />
        <path
           id="path1027"
           style="fill:none;stroke:#000000;stroke-width:0.593598;stroke-miterlimit:4;stroke-dasharray:none"
           d="M 91.613785,181.25642 V 162.70614 H 54.514242 v 37.10005 h 18.54977"
           sodipodi:nodetypes="ccccc" />
      </g>
      <g
         aria-label="2.5in"
         id="text1033"
         style="font-style:normal;font-weight:normal;font-size:10.5833px;line-height:1.25;font-family:sans-serif;letter-spacing:0px;word-spacing:0px;fill:#ff0000;fill-opacity:1;stroke:none;stroke-width:0.264583"
         transform="translate(169.25077,-81.646407)">
        <path
           d="m -133.12988,264.58334 h -5.20897 v -1.08003 q 0.5426,-0.46509 1.0852,-0.93017 0.54777,-0.46509 1.01802,-0.92501 0.99219,-0.96118 1.35909,-1.52445 0.3669,-0.56844 0.3669,-1.22473 0,-0.59944 -0.39791,-0.93534 -0.39273,-0.34106 -1.1007,-0.34106 -0.47025,0 -1.01802,0.16536 -0.54777,0.16537 -1.0697,0.50643 h -0.0517 v -1.0852 q 0.3669,-0.18087 0.97668,-0.33073 0.61495,-0.14986 1.18856,-0.14986 1.18338,0 1.85518,0.57361 0.67179,0.56844 0.67179,1.54512 0,0.43925 -0.11369,0.82165 -0.10852,0.37724 -0.32556,0.7183 -0.20154,0.32039 -0.47542,0.63045 -0.26872,0.31006 -0.65629,0.6873 -0.55294,0.5426 -1.14205,1.05419 -0.58911,0.50643 -1.1007,0.94051 h 4.13927 z"
           style="fill:#ff0000;stroke-width:0.264583"
           id="path1035" />
        <path
           d="m -129.90012,264.58334 h -1.23506 v -1.47277 h 1.23506 z"
           style="fill:#ff0000;stroke-width:0.264583"
           id="path1037" />
        <path
           d="m -122.61376,262.13906 q 0,0.53743 -0.19637,1.02835 -0.19637,0.49093 -0.53743,0.82682 -0.37207,0.36174 -0.88884,0.55811 -0.51159,0.1912 -1.18855,0.1912 -0.63045,0 -1.21439,-0.13436 -0.58394,-0.12919 -0.98702,-0.31522 v -1.09037 h 0.0724 q 0.42374,0.26871 0.99218,0.45992 0.56844,0.18603 1.11621,0.18603 0.3669,0 0.70796,-0.10335 0.34623,-0.10335 0.61495,-0.36174 0.22738,-0.2222 0.34106,-0.53226 0.11886,-0.31006 0.11886,-0.7183 0,-0.39791 -0.13953,-0.67179 -0.13435,-0.27389 -0.37723,-0.43925 -0.26872,-0.19637 -0.65629,-0.27389 -0.38241,-0.0827 -0.85783,-0.0827 -0.45475,0 -0.87849,0.062 -0.41858,0.062 -0.72347,0.12403 v -3.96357 h 4.63019 v 0.90433 h -3.63284 v 2.04638 q 0.22221,-0.0207 0.45475,-0.031 0.23254,-0.0103 0.40308,-0.0103 0.62528,0 1.09553,0.10852 0.47026,0.10335 0.863,0.37207 0.41341,0.28422 0.64078,0.7338 0.22738,0.44959 0.22738,1.12655 z"
           style="fill:#ff0000;stroke-width:0.264583"
           id="path1039" />
        <path
           d="m -119.86458,257.84476 h -1.09554 v -1.00769 h 1.09554 z m -0.062,6.73858 h -0.97151 v -5.77224 h 0.97151 z"
           style="fill:#ff0000;stroke-width:0.264583"
           id="path1041" />
        <path
           d="m -113.17767,264.58334 h -0.97152 v -3.28661 q 0,-0.3979 -0.0465,-0.74414 -0.0465,-0.35139 -0.17053,-0.54776 -0.12919,-0.21704 -0.37207,-0.3204 -0.24288,-0.10852 -0.63045,-0.10852 -0.39791,0 -0.83199,0.19637 -0.43408,0.19637 -0.83198,0.50126 v 4.3098 h -0.97152 v -5.77224 h 0.97152 v 0.64079 q 0.45475,-0.37724 0.9405,-0.58911 0.48576,-0.21187 0.99736,-0.21187 0.93534,0 1.42626,0.56327 0.49093,0.56327 0.49093,1.62263 z"
           style="fill:#ff0000;stroke-width:0.264583"
           id="path1043" />
      </g>
    </g>
    <g
       id="g1134">
      <g
         id="g1124"
         transform="translate(-70.175138,-74.648132)">
        <g
           id="g1104"
           transform="matrix(0.65771897,0,0,0.6576233,85.486177,47.37279)"
           style="stroke-width:1.52051">
          <path
             id="path1076"
             style="fill:none;stroke:#000000;stroke-width:1.52051;stroke-miterlimit:4;stroke-dasharray:none"
             d="m 179.54229,175.46458 c 10.2447,-1.2e-4 18.54965,-8.30506 18.54977,-18.54977"
             sodipodi:nodetypes="cc" />
          <path
             id="path1078"
             style="fill:none;stroke:#000000;stroke-width:1.52051;stroke-miterlimit:4;stroke-dasharray:none"
             d="m 198.09206,156.91481 v -18.55028 m -37.09954,0 v 37.10005 h 18.54977"
             sodipodi:nodetypes="ccccc" />
        </g>
        <g
           aria-label="1in"
           id="text1108"
           style="font-style:normal;font-weight:normal;font-size:10.5833px;line-height:1.25;font-family:sans-serif;letter-spacing:0px;word-spacing:0px;fill:#ff0000;fill-opacity:1;stroke:none;stroke-width:0.264583">
          <path
             d="m 200.75043,154.4366 h -4.1651 v -0.78548 h 1.60196 v -5.15729 h -1.60196 v -0.7028 q 0.32556,0 0.69763,-0.0517 0.37207,-0.0568 0.56327,-0.1602 0.23771,-0.12919 0.37207,-0.32556 0.13952,-0.20154 0.16019,-0.53743 h 0.80099 v 6.93495 h 1.57095 z"
             style="fill:#ff0000;stroke-width:0.264583"
             id="path1110" />
          <path
             d="m 203.87685,147.69801 h -1.09554 v -1.00768 h 1.09554 z m -0.062,6.73859 h -0.97152 v -5.77224 h 0.97152 z"
             style="fill:#ff0000;stroke-width:0.264583"
             id="path1112" />
          <path
             d="m 210.56376,154.4366 h -0.97152 v -3.28661 q 0,-0.39791 -0.0465,-0.74414 -0.0465,-0.3514 -0.17054,-0.54777 -0.12919,-0.21704 -0.37207,-0.32039 -0.24287,-0.10852 -0.63045,-0.10852 -0.3979,0 -0.83198,0.19637 -0.43408,0.19637 -0.83199,0.50126 v 4.3098 h -0.97152 v -5.77224 h 0.97152 v 0.64079 q 0.45475,-0.37724 0.94051,-0.58911 0.48575,-0.21188 0.99735,-0.21188 0.93534,0 1.42626,0.56328 0.49093,0.56327 0.49093,1.62263 z"
             style="fill:#ff0000;stroke-width:0.264583"
             id="path1114" />
        </g>
      </g>
    </g>
  </g>
</svg>
