<?xml version="1.0" encoding="UTF-8" standalone="no"?>
<svg
   xmlns:dc="http://purl.org/dc/elements/1.1/"
   xmlns:cc="http://creativecommons.org/ns#"
   xmlns:rdf="http://www.w3.org/1999/02/22-rdf-syntax-ns#"
   xmlns:svg="http://www.w3.org/2000/svg"
   xmlns="http://www.w3.org/2000/svg"
   xmlns:sodipodi="http://sodipodi.sourceforge.net/DTD/sodipodi-0.dtd"
   xmlns:inkscape="http://www.inkscape.org/namespaces/inkscape"
   width="19.5in"
   height="11in"
   viewBox="0 0 495.3 279.40001"
   version="1.1"
   id="svg27734"
   inkscape:version="1.0.1 (3bc2e813f5, 2020-09-07)"
   sodipodi:docname="DeWalt_CS.svg">
  <defs
     id="defs27728" />
  <sodipodi:namedview
     id="base"
     pagecolor="#ffffff"
     bordercolor="#00ff00"
     borderopacity="1"
     inkscape:pageopacity="0.0"
     inkscape:pageshadow="2"
     inkscape:zoom="0.49497475"
     inkscape:cx="543.47071"
     inkscape:cy="795.53341"
     inkscape:document-units="mm"
     inkscape:current-layer="layer1"
     inkscape:document-rotation="0"
     showgrid="false"
     units="in"
     inkscape:pagecheckerboard="false"
     inkscape:showpageshadow="false"
     borderlayer="false"
     inkscape:window-width="2131"
     inkscape:window-height="1368"
     inkscape:window-x="234"
     inkscape:window-y="1080"
     inkscape:window-maximized="0"
     showguides="true"
     inkscape:guide-bbox="true" />
  <metadata
     id="metadata27731">
    <rdf:RDF>
      <cc:Work
         rdf:about="">
        <dc:format>image/svg+xml</dc:format>
        <dc:type
           rdf:resource="http://purl.org/dc/dcmitype/StillImage" />
        <dc:title></dc:title>
      </cc:Work>
    </rdf:RDF>
  </metadata>
  <g
     inkscape:label="Layer 1"
     inkscape:groupmode="layer"
     id="layer1">
    <g
       id="g980"
       transform="rotate(90,145.59178,197.38467)">
      <g
         id="g947">
        <path
           style="fill:none;stroke:#000000;stroke-width:1"
           d="m 182.1902,317.1 v 6.3783 h -6 v 12.2434 h 6 V 342.1"
           id="path843" />
        <path
           style="fill:none;stroke:#000000;stroke-width:1"
           d="m 182.1902,342.1 h -10.661 v 0 h -10.796 v 0 h -10.616 v 0 h -10.796 v 0 h -10.615 v 0 h -10.796 v 0 h -10.616 v 0 h -10.796 v 0 h -10.616 v 0 h -10.796 v 0 h -10.616 v 0 h -10.796 v 0 h -10.615 v 0 h -10.796 v 0 h -10.616 v 0 h -10.796 v 0 H 0.1902"
           id="path845" />
        <path
           style="fill:none;stroke:#000000;stroke-width:1"
           d="m 0.1902,342.1 v -6.3783 h 6 v -12.2434 h -6 V 317.1"
           id="path847" />
      </g>
      <g
         id="panel3008">
        <path
           style="fill:none;stroke:#000000;stroke-width:1"
           d="m 0.1,0.1 h 10.7509 v 6 h 10.6159 v -6 h 10.7958 v 6 h 10.6159 v -6 h 10.7959 v 6 h 10.6159 v -6 h 10.7959 v 6 h 10.6159 v -6 h 10.7958 v 6 h 10.6161 v -6 h 10.796 v 6 h 10.616 v -6 h 10.795 v 6 h 10.616 v -6 h 10.796 v 6 h 10.616 v -6 H 182.1"
           id="path859" />
        <path
           style="fill:none;stroke:#000000;stroke-width:1"
           d="m 182.1,0.1 v 10.2708 h -6 v 10.1358 h 6 v 10.3158 h -6 v 10.1358 h 6 V 51.274 h -6 v 10.1358 h 6 v 10.3158 h -6 v 10.1359 h 6 v 10.3158 h -6 v 10.1357 h 6 v 10.316 h -6 v 10.136 h 6 v 10.315 h -6 v 10.136 h 6 v 10.316 h -6 v 10.136 h 6 v 10.316 h -6 v 10.136 h 6 v 10.315 h -6 v 10.136 h 6 v 10.316 h -6 v 10.136 h 6 v 10.316 h -6 v 10.135 h 6 v 10.316 h -6 v 10.136 h 6 v 10.316 h -6 v 10.136 h 6 v 10.315 h -6 v 10.136 h 6 V 317.1"
           id="path861" />
        <path
           style="fill:none;stroke:#000000;stroke-width:1"
           d="m 182.1,317.1 h -10.751 v -6 h -10.616 v 6 h -10.796 v -6 h -10.616 v 6 h -10.795 v -6 H 117.91 v 6 h -10.796 v -6 H 96.4979 v 6 H 85.7021 v -6 H 75.0862 v 6 H 64.2903 v -6 H 53.6744 v 6 H 42.8785 v -6 H 32.2626 v 6 H 21.4668 v -6 H 10.8509 v 6 H 0.1"
           id="path863" />
        <path
           style="fill:none;stroke:#000000;stroke-width:1"
           d="m 0.1,317.1 v -10.271 h 6 v -10.136 h -6 v -10.315 h 6 v -10.136 h -6 v -10.316 h 6 V 255.79 h -6 v -10.316 h 6 v -10.135 h -6 v -10.316 h 6 v -10.136 h -6 v -10.316 h 6 v -10.136 h -6 V 184.12 h 6 v -10.136 h -6 v -10.316 h 6 v -10.136 h -6 v -10.316 h 6 V 133.08 h -6 v -10.315 h 6 v -10.136 h -6 v -10.316 h 6 V 92.1773 h -6 V 81.8615 h 6 V 71.7256 h -6 V 61.4098 h 6 V 51.274 h -6 V 40.9582 h 6 V 30.8224 h -6 V 20.5066 h 6 V 10.3708 h -6 V 0.1"
           id="path865" />
      </g>
      <g
         id="g957">
        <path
           style="fill:none;stroke:#000000;stroke-width:1"
           d="m -24.9,6.0623397 h 6.288 V 0.06233961 H -6.188 V 6.0623397 H 0.1"
           id="path850" />
        <path
           style="fill:none;stroke:#000000;stroke-width:1"
           d="m 0.1,311.06236 h -6.288 v 6 h -12.424 v -6 H -24.9"
           id="path854" />
        <path
           style="fill:none;stroke:#000000;stroke-width:1"
           d="m -24.9,311.06236 v -4.181 0 -10.316 0 -10.135 0 -10.316 0 -10.136 0 -10.316 0 -10.136 0 -10.315 0 -10.136 0 -10.316 0 -10.136 0 -10.316 0 -10.135 0 -10.316 0 -10.136 0 -10.316 0 -10.136 0 -10.316 0 -10.135 0 -10.316 0 -10.13601 0 -10.315708 0 -10.1358 0 -10.3159 0 -10.1358 0 -10.3158 0 -10.1358 0 -10.3158 0 -10.1358 0 -10.315802 0 -4.1808003"
           id="path856" />
      </g>
      <g
         id="g952">
        <path
           style="fill:none;stroke:#000000;stroke-width:1"
           d="m 182.62917,6.0099967 h 6.288 v -6 h 12.424 v 6 h 6.288"
           id="path868" />
        <path
           style="fill:none;stroke:#000000;stroke-width:1"
           d="m 207.62917,6.0099967 v 4.1808003 0 10.3158 0 10.1358 0 10.3158 0 10.1358 0 10.3158 0 10.1358 0 10.3159 0 10.1358 0 10.315703 0 10.136 0 10.316 0 10.135 0 10.316 0 10.136 0 10.316 0 10.136 0 10.316 0 10.135 0 10.316 0 10.136 0 10.316 0 10.136 0 10.315 0 10.136 0 10.316 0 10.136 0 10.316 0 10.135 0 10.316 0 4.181"
           id="path870" />
        <path
           style="fill:none;stroke:#000000;stroke-width:1"
           d="m 207.62917,311.01 h -6.288 v 6 h -12.424 v -6 h -6.288"
           id="path872" />
      </g>
      <g
         id="g942"
         transform="translate(0,2.6458334)">
        <path
           style="fill:none;stroke:#000000;stroke-width:1"
           d="m 182.0095,-27.545835 v 6.3783 h -6 v 12.2434 h 6 v 6.3783"
           id="path879" />
        <path
           style="fill:none;stroke:#000000;stroke-width:1"
           d="m 0.0095,-2.545835 v -6.3783 h 6 v -12.2434 h -6 v -6.3783"
           id="path883" />
      </g>
    </g>
    <g
       aria-label="DeWalt Circular Saw"
       id="text984"
       style="font-size:9.87778px;line-height:1.25;font-family:Michroma;-inkscape-font-specification:'Michroma, Normal';writing-mode:lr-tb;fill:#ff0000;stroke-width:1;stroke-linejoin:bevel;stroke-miterlimit:0.8">
      <path
         d="m 127.61047,95.299717 q 0.61254,0 1.03698,-0.03376 0.42443,-0.03376 0.69935,-0.135048 0.27492,-0.106108 0.42444,-0.303857 0.14951,-0.197749 0.21704,-0.520899 0.0724,-0.327973 0.082,-0.80064 0.0145,-0.47749 0.0145,-1.13826 0,-0.660769 -0.0145,-1.133436 -0.01,-0.477491 -0.082,-0.800641 -0.0675,-0.327973 -0.21704,-0.525721 -0.14952,-0.197749 -0.42444,-0.299035 -0.27492,-0.106109 -0.69935,-0.139871 -0.41962,-0.03376 -1.03698,-0.03376 h -4.62538 v 5.864932 z m -5.55142,0.771702 v -7.408335 h 5.55142 q 0.84887,0 1.42765,0.101286 0.5836,0.09646 0.9598,0.299034 0.38103,0.202572 0.5836,0.506429 0.2074,0.303858 0.29904,0.718647 0.0965,0.409967 0.11093,0.930865 0.0193,0.516076 0.0193,1.147906 0,0.631831 -0.0193,1.152729 -0.0145,0.516076 -0.11093,0.930865 -0.0916,0.409967 -0.29904,0.713824 -0.20257,0.303858 -0.5836,0.50643 -0.3762,0.202571 -0.9598,0.303857 -0.57878,0.09646 -1.42765,0.09646 z"
         style="font-size:9.87778px;fill:#ff0000;stroke-width:1"
         id="path1134" />
      <path
         d="m 135.48665,96.177528 q -0.92604,0 -1.57234,-0.125402 -0.6463,-0.130224 -1.05144,-0.443728 -0.40515,-0.313504 -0.58843,-0.839226 -0.18327,-0.525721 -0.18327,-1.321539 0,-0.911572 0.18327,-1.504818 0.18328,-0.598068 0.58843,-0.950157 0.40514,-0.352089 1.05144,-0.49196 0.6463,-0.139871 1.57234,-0.139871 0.66077,0 1.14308,0.09646 0.48714,0.09646 0.82958,0.279742 0.34727,0.183279 0.55949,0.443728 0.21704,0.260449 0.33762,0.549837 0.1254,0.284565 0.16881,0.670416 0.0482,0.385851 0.0482,0.81511 l -0.0772,0.308681 h -5.47908 q 0,0.636653 0.1254,1.04662 0.1254,0.405143 0.41479,0.593245 0.28939,0.188103 0.76205,0.241157 0.47267,0.04823 1.1672,0.04823 0.63666,0 1.05145,-0.03376 0.41961,-0.03859 0.66559,-0.139871 0.24598,-0.101286 0.34244,-0.279742 0.10129,-0.183279 0.10129,-0.472667 h 0.92604 q 0,0.448551 -0.15917,0.766878 -0.15434,0.313504 -0.51607,0.511252 -0.36174,0.192926 -0.95498,0.279742 -0.58842,0.09164 -1.45659,0.09164 z m 0,-5.044999 q -0.46302,0 -0.82958,0.01929 -0.36173,0.01929 -0.63665,0.08682 -0.2701,0.0627 -0.46302,0.188102 -0.19293,0.120578 -0.31351,0.289388 -0.11575,0.163987 -0.17363,0.467844 -0.053,0.299035 -0.053,0.72347 h 4.63021 q 0,-0.564306 -0.12058,-0.882633 -0.12058,-0.32315 -0.38103,-0.530545 -0.26045,-0.207395 -0.67042,-0.284565 -0.40996,-0.07717 -0.98874,-0.07717 z"
         style="font-size:9.87778px;fill:#ff0000;stroke-width:1"
         id="path1136" />
      <path
         d="m 146.83066,88.663084 h 1.08039 l 3.00963,6.636633 2.93247,-6.636633 h 1.08038 l -3.39549,7.408335 h -1.23472 l -2.93246,-6.482293 -2.93247,6.482293 h -1.23472 l -3.70417,-7.408335 h 1.08038 l 3.24115,6.636633 z"
         style="font-size:9.87778px;fill:#ff0000;stroke-width:1"
         id="path1138" />
      <path
         d="m 160.15699,95.309363 q -0.0145,0.05788 -0.21705,0.289389 -0.14469,0.173632 -0.38585,0.30868 -0.24115,0.130225 -0.6463,0.202572 -0.40032,0.07717 -1.05626,0.07717 -0.87299,0 -1.49035,-0.09164 -0.61736,-0.08682 -1.00804,-0.270095 -0.39067,-0.188102 -0.57395,-0.47749 -0.17846,-0.289389 -0.17846,-0.689709 0,-0.419612 0.0965,-0.709001 0.10128,-0.294211 0.28938,-0.491959 0.19293,-0.197749 0.46303,-0.308681 0.27009,-0.110932 0.61253,-0.16881 0.34727,-0.05788 0.75724,-0.07235 0.40996,-0.01447 0.87298,-0.01447 0.66077,0 1.1045,0.05788 0.44373,0.05305 0.72347,0.13987 0.28457,0.08199 0.42926,0.178456 0.14469,0.09646 0.2074,0.178456 0,-0.540191 -0.0482,-0.921218 -0.0434,-0.381028 -0.14951,-0.636654 -0.10129,-0.255626 -0.26528,-0.405143 -0.16398,-0.154341 -0.40514,-0.231511 -0.23633,-0.07717 -0.55466,-0.09646 -0.31833,-0.02411 -0.72829,-0.02411 -0.63666,0 -1.05627,0.03376 -0.41961,0.02894 -0.66559,0.120578 -0.24598,0.09164 -0.34727,0.255626 -0.10128,0.159164 -0.10128,0.419613 h -0.92605 q 0,-0.438905 0.15434,-0.742763 0.15917,-0.303857 0.5209,-0.49196 0.36656,-0.192925 0.95981,-0.279741 0.59324,-0.08682 1.46141,-0.08682 0.84887,0 1.43729,0.139871 0.58842,0.139871 0.95016,0.49196 0.36656,0.352089 0.52572,0.950157 0.16399,0.593246 0.16399,1.504818 v 2.623786 h -0.92604 z m -2.15112,0.144695 q 0.61254,0 1.0225,-0.05788 0.41479,-0.05788 0.66559,-0.173633 0.25081,-0.115755 0.35692,-0.289388 0.10611,-0.173633 0.10611,-0.405143 0,-0.231511 -0.12541,-0.390674 -0.12057,-0.163987 -0.40996,-0.265273 -0.28457,-0.101286 -0.75724,-0.144694 -0.47266,-0.04823 -1.16719,-0.04823 -0.69454,0 -1.12379,0.02412 -0.42444,0.02411 -0.65595,0.110932 -0.23151,0.08682 -0.3135,0.255626 -0.0772,0.16881 -0.0772,0.458198 0,0.289388 0.082,0.472667 0.0868,0.178456 0.34726,0.279742 0.26045,0.101285 0.74759,0.139871 0.49196,0.03376 1.30225,0.03376 z"
         style="font-size:9.87778px;fill:#ff0000;stroke-width:1"
         id="path1140" />
      <path
         d="m 162.62643,88.663084 h 0.92604 v 7.408335 h -0.92604 z"
         style="font-size:9.87778px;fill:#ff0000;stroke-width:1"
         id="path1142" />
      <path
         d="m 170.49779,93.601974 q 0,0.709001 -0.11576,1.186491 -0.11575,0.472667 -0.39067,0.757232 -0.2701,0.284565 -0.71383,0.405143 -0.44372,0.120579 -1.09485,0.120579 -0.63183,0 -1.06109,-0.09646 -0.42926,-0.09646 -0.69453,-0.327973 -0.26527,-0.231511 -0.38103,-0.617361 -0.11575,-0.385851 -0.11575,-0.964627 v -2.787772 h -1.14308 v -0.762055 h 1.14308 V 88.99588 h 0.92604 v 1.519288 h 3.48713 v 0.762055 h -3.48713 v 2.787772 q 0,0.463021 0.0675,0.713824 0.0724,0.250803 0.22669,0.366558 0.15434,0.115755 0.40515,0.135048 0.25562,0.01929 0.62218,0.01929 0.28939,0 0.51608,-0.0096 0.23151,-0.0096 0.40032,-0.05788 0.17363,-0.05305 0.29421,-0.15434 0.12058,-0.106109 0.19292,-0.294211 0.0772,-0.188102 0.11093,-0.472667 0.0338,-0.289389 0.0338,-0.709001 z"
         style="font-size:9.87778px;fill:#ff0000;stroke-width:1"
         id="path1144" />
      <path
         d="m 181.91415,90.978188 q 0,-0.578776 -0.1254,-0.916395 -0.12541,-0.33762 -0.41479,-0.511252 -0.28939,-0.173633 -0.76206,-0.221865 -0.46784,-0.04823 -1.16237,-0.04823 h -2.16559 q -0.61736,0 -1.0418,0.03858 -0.41961,0.03376 -0.69453,0.144694 -0.27492,0.110932 -0.42444,0.318327 -0.14951,0.207395 -0.21704,0.549837 -0.0675,0.342443 -0.0772,0.844049 -0.01,0.496783 -0.01,1.191314 0,0.694532 0.01,1.196138 0.0145,0.496783 0.082,0.839225 0.0675,0.342443 0.21221,0.549838 0.14952,0.207394 0.42444,0.318326 0.27492,0.110932 0.69453,0.149518 0.42444,0.03376 1.0418,0.03376 h 2.16559 q 0.54019,0 0.93086,-0.02894 0.39067,-0.02894 0.66559,-0.106109 0.27492,-0.07717 0.44373,-0.212218 0.16881,-0.135048 0.26045,-0.33762 0.0965,-0.207394 0.13023,-0.491959 0.0338,-0.289388 0.0338,-0.675239 h 0.92604 q 0,0.463021 -0.0579,0.839225 -0.0579,0.371382 -0.20739,0.665593 -0.1447,0.289388 -0.39068,0.501606 -0.24598,0.212218 -0.62218,0.352089 -0.37621,0.135047 -0.8971,0.197748 -0.5209,0.06752 -1.21543,0.06752 h -2.16559 q -0.84887,0 -1.43247,-0.106109 -0.57878,-0.101286 -0.95498,-0.308681 -0.37621,-0.212217 -0.5836,-0.530544 -0.20257,-0.318327 -0.29904,-0.747586 -0.0916,-0.429259 -0.10611,-0.96945 -0.0145,-0.540191 -0.0145,-1.196138 0,-0.655946 0.0145,-1.196137 0.0145,-0.540191 0.10611,-0.96945 0.0965,-0.429259 0.29904,-0.747586 0.20739,-0.318327 0.5836,-0.525722 0.3762,-0.212218 0.95498,-0.313504 0.5836,-0.106109 1.43247,-0.106109 h 2.16559 q 0.69453,0 1.21543,0.06752 0.52089,0.0627 0.8971,0.197749 0.3762,0.130225 0.62218,0.332796 0.24598,0.202572 0.39068,0.477491 0.14951,0.274918 0.20739,0.622184 0.0579,0.347266 0.0579,0.771701 z"
         style="font-size:9.87778px;fill:#ff0000;stroke-width:1"
         id="path1146" />
      <path
         d="m 184.38359,90.515168 h 0.92604 v 5.556251 h -0.92604 z m 0.92604,-0.926042 h -0.92604 v -0.926042 h 0.92604 z"
         style="font-size:9.87778px;fill:#ff0000;stroke-width:1"
         id="path1148" />
      <path
         d="m 191.63758,92.323843 q 0,-0.347266 -0.0531,-0.573953 -0.0482,-0.23151 -0.23634,-0.366558 -0.1881,-0.139871 -0.55948,-0.192926 -0.36656,-0.05788 -1.00321,-0.05788 -0.62219,0 -1.01286,0.110932 -0.39067,0.106109 -0.61254,0.303857 -0.22186,0.197749 -0.30385,0.472668 -0.0772,0.274918 -0.0772,0.612538 v 3.438895 h -0.92605 v -5.556251 h 0.92605 v 0.882633 q 0.0482,-0.149517 0.17845,-0.327973 0.13023,-0.183279 0.3955,-0.337619 0.26527,-0.159164 0.68488,-0.265273 0.42444,-0.106109 1.05627,-0.106109 0.72347,0 1.17684,0.130225 0.45338,0.125401 0.70418,0.376204 0.25563,0.24598 0.34244,0.612538 0.0916,0.366559 0.0916,0.844049 z"
         style="font-size:9.87778px;fill:#ff0000;stroke-width:1"
         id="path1150" />
      <path
         d="m 192.87231,93.302939 q 0,-0.578776 0.0579,-1.022504 0.0579,-0.443729 0.20257,-0.771702 0.14951,-0.327973 0.39549,-0.545014 0.25081,-0.221864 0.62701,-0.356912 0.38103,-0.135048 0.90193,-0.192925 0.5209,-0.05788 1.21543,-0.05788 0.92604,0 1.52411,0.115755 0.59807,0.110932 0.94533,0.347266 0.34727,0.23151 0.48232,0.593246 0.13504,0.356912 0.13504,0.853694 h -0.92604 q 0,-0.178456 -0.01,-0.332796 -0.01,-0.15434 -0.0724,-0.279742 -0.0579,-0.125401 -0.1881,-0.221864 -0.13023,-0.101286 -0.37139,-0.16881 -0.24115,-0.06752 -0.61253,-0.101285 -0.36656,-0.03376 -0.90675,-0.03376 -0.61736,0 -1.0418,0.04341 -0.41961,0.04341 -0.69453,0.144694 -0.27492,0.09646 -0.42444,0.265272 -0.14951,0.163987 -0.21704,0.405144 -0.0675,0.241156 -0.082,0.56913 -0.01,0.32315 -0.01,0.747585 0,0.41479 0.01,0.73794 0.0145,0.318327 0.082,0.559484 0.0675,0.236333 0.21704,0.40032 0.14952,0.163986 0.42444,0.265272 0.27492,0.101286 0.69453,0.144694 0.42444,0.04341 1.0418,0.04341 0.54019,0 0.90675,-0.03859 0.37138,-0.03858 0.61253,-0.110932 0.24116,-0.07235 0.37139,-0.178456 0.13022,-0.106109 0.1881,-0.241156 0.0627,-0.139871 0.0724,-0.303858 0.01,-0.16881 0.01,-0.361735 h 0.92604 q 0,0.506429 -0.13504,0.877811 -0.13505,0.371381 -0.48232,0.612538 -0.34726,0.236333 -0.94533,0.352088 -0.59807,0.115756 -1.52411,0.115756 -0.69453,0 -1.21543,-0.05788 -0.5209,-0.05788 -0.90193,-0.188102 -0.3762,-0.135048 -0.62701,-0.352089 -0.24598,-0.217041 -0.39549,-0.535368 -0.1447,-0.318327 -0.20257,-0.747586 -0.0579,-0.434082 -0.0579,-0.993566 z"
         style="font-size:9.87778px;fill:#ff0000;stroke-width:1"
         id="path1152" />
      <path
         d="m 201.52501,90.515168 v 3.086806 q 0,0.516075 0.0772,0.872987 0.0772,0.352089 0.30868,0.56913 0.23151,0.217041 0.65595,0.313504 0.42443,0.09646 1.11896,0.09646 0.75241,0 1.2299,-0.110933 0.48232,-0.110932 0.75724,-0.313503 0.27491,-0.202572 0.3762,-0.487137 0.10611,-0.284565 0.10611,-0.631831 v -3.395486 h 0.92604 v 5.556251 h -0.92604 v -0.926042 q -0.0675,0.149517 -0.22669,0.332796 -0.15916,0.178456 -0.47749,0.332796 -0.31833,0.154341 -0.82475,0.26045 -0.50161,0.106109 -1.2492,0.106109 -0.62218,0 -1.07073,-0.07717 -0.44373,-0.07235 -0.75723,-0.217041 -0.30868,-0.149518 -0.49679,-0.366559 -0.1881,-0.217041 -0.28939,-0.501606 -0.10128,-0.289388 -0.13504,-0.641477 -0.0338,-0.352089 -0.0338,-0.771701 l 0.005,-3.086806 z"
         style="font-size:9.87778px;fill:#ff0000;stroke-width:1"
         id="path1154" />
      <path
         d="m 208.62467,88.663084 h 0.92604 v 7.408335 h -0.92604 z"
         style="font-size:9.87778px;fill:#ff0000;stroke-width:1"
         id="path1156" />
      <path
         d="m 216.62625,95.309363 q -0.0145,0.05788 -0.21704,0.289389 -0.1447,0.173632 -0.38585,0.30868 -0.24116,0.130225 -0.6463,0.202572 -0.40032,0.07717 -1.05627,0.07717 -0.87299,0 -1.49035,-0.09164 -0.61736,-0.08682 -1.00803,-0.270095 -0.39068,-0.188102 -0.57396,-0.47749 Q 211.07,95.05856 211.07,94.65824 q 0,-0.419612 0.0965,-0.709001 0.10129,-0.294211 0.28939,-0.491959 0.19292,-0.197749 0.46302,-0.308681 0.2701,-0.110932 0.61254,-0.16881 0.34726,-0.05788 0.75723,-0.07235 0.40997,-0.01447 0.87299,-0.01447 0.66077,0 1.1045,0.05788 0.44372,0.05305 0.72347,0.13987 0.28456,0.08199 0.42926,0.178456 0.14469,0.09646 0.20739,0.178456 0,-0.540191 -0.0482,-0.921218 -0.0434,-0.381028 -0.14952,-0.636654 -0.10128,-0.255626 -0.26527,-0.405143 -0.16399,-0.154341 -0.40514,-0.231511 -0.23634,-0.07717 -0.55466,-0.09646 -0.31833,-0.02411 -0.7283,-0.02411 -0.63665,0 -1.05626,0.03376 -0.41962,0.02894 -0.6656,0.120578 -0.24598,0.09164 -0.34726,0.255626 -0.10129,0.159164 -0.10129,0.419613 h -0.92604 q 0,-0.438905 0.15434,-0.742763 0.15916,-0.303857 0.5209,-0.49196 0.36656,-0.192925 0.9598,-0.279741 0.59325,-0.08682 1.46141,-0.08682 0.84887,0 1.4373,0.139871 0.58842,0.139871 0.95015,0.49196 0.36656,0.352089 0.52573,0.950157 0.16398,0.593246 0.16398,1.504818 v 2.623786 h -0.92604 z m -2.15112,0.144695 q 0.61254,0 1.02251,-0.05788 0.41479,-0.05788 0.66559,-0.173633 0.2508,-0.115755 0.35691,-0.289388 0.10611,-0.173633 0.10611,-0.405143 0,-0.231511 -0.1254,-0.390674 -0.12058,-0.163987 -0.40997,-0.265273 -0.28456,-0.101286 -0.75723,-0.144694 -0.47267,-0.04823 -1.1672,-0.04823 -0.69453,0 -1.12379,0.02412 -0.42443,0.02411 -0.65595,0.110932 -0.23151,0.08682 -0.3135,0.255626 -0.0772,0.16881 -0.0772,0.458198 0,0.289388 0.082,0.472667 0.0868,0.178456 0.34727,0.279742 0.26045,0.101285 0.74759,0.139871 0.49196,0.03376 1.30224,0.03376 z"
         style="font-size:9.87778px;fill:#ff0000;stroke-width:1"
         id="path1158" />
      <path
         d="m 223.57156,92.323843 q 0,-0.347266 -0.0531,-0.573953 -0.0482,-0.23151 -0.23633,-0.366558 -0.1881,-0.139871 -0.55948,-0.192926 -0.36656,-0.05788 -1.00322,-0.05788 -0.62218,0 -1.01285,0.110932 -0.39068,0.106109 -0.61254,0.303857 -0.22187,0.197749 -0.30386,0.472668 -0.0772,0.274918 -0.0772,0.612538 v 3.438895 h -0.92604 v -5.556251 h 0.92604 v 0.882633 q 0.0482,-0.149517 0.17846,-0.327973 0.13022,-0.183279 0.39549,-0.337619 0.26528,-0.159164 0.68489,-0.265273 0.42443,-0.106109 1.05627,-0.106109 0.72347,0 1.17684,0.130225 0.45337,0.125401 0.70418,0.376204 0.25562,0.24598 0.34244,0.612538 0.0916,0.366559 0.0916,0.844049 z"
         style="font-size:9.87778px;fill:#ff0000;stroke-width:1"
         id="path1160" />
      <path
         d="m 232.09886,91.90423 q 0.76206,0 1.30707,0.0627 0.54502,0.0627 0.9164,0.188102 0.3762,0.120579 0.59807,0.303858 0.22186,0.183279 0.34244,0.419613 0.12058,0.23151 0.15434,0.520898 0.0386,0.289388 0.0386,0.627008 0,0.337619 -0.0627,0.636653 -0.0579,0.294212 -0.21222,0.540192 -0.15434,0.245979 -0.41961,0.438905 -0.26528,0.192925 -0.67524,0.327973 -0.40997,0.135048 -0.98875,0.202572 -0.57395,0.07235 -1.34565,0.07235 h -1.23472 q -0.69453,0 -1.21543,-0.05306 -0.5209,-0.05305 -0.89711,-0.159163 -0.3762,-0.110932 -0.62218,-0.274919 -0.24598,-0.16881 -0.3955,-0.390674 -0.14469,-0.226687 -0.20257,-0.511252 -0.0579,-0.289388 -0.0579,-0.636654 h 0.92604 q 0,0.434082 0.12541,0.680062 0.1254,0.24598 0.41479,0.371381 0.28938,0.120579 0.75723,0.154341 0.47267,0.02894 1.1672,0.02894 h 1.23472 q 0.81029,0 1.34565,-0.07717 0.53537,-0.07717 0.8537,-0.24598 0.31833,-0.168809 0.44855,-0.438905 0.13022,-0.274918 0.13022,-0.665592 0,-0.390674 -0.0916,-0.651124 -0.0868,-0.260449 -0.35208,-0.414789 -0.26045,-0.15434 -0.73794,-0.217041 -0.47749,-0.06752 -1.2492,-0.06752 h -1.2733 q -0.84887,0 -1.45659,-0.0627 -0.60289,-0.0627 -1.01286,-0.178456 -0.40996,-0.120578 -0.65594,-0.294211 -0.24598,-0.178456 -0.37621,-0.405143 -0.1254,-0.226688 -0.16399,-0.501606 -0.0386,-0.279742 -0.0386,-0.602892 0,-0.33762 0.0579,-0.627008 0.0627,-0.289388 0.22668,-0.520898 0.16399,-0.236334 0.44856,-0.419613 0.28456,-0.183279 0.72829,-0.303858 0.44855,-0.125401 1.07556,-0.188102 0.62701,-0.0627 1.47588,-0.0627 h 0.92604 q 0.69453,0 1.21543,0.05306 0.5209,0.04823 0.8971,0.159163 0.37621,0.106109 0.62219,0.270096 0.2508,0.159163 0.39549,0.385851 0.14952,0.221864 0.2074,0.506429 0.0579,0.284565 0.0579,0.631831 h -0.92605 q 0,-0.434083 -0.1254,-0.680062 -0.1254,-0.24598 -0.41479,-0.366559 -0.28938,-0.125401 -0.76205,-0.15434 -0.47267,-0.03376 -1.1672,-0.03376 h -0.92604 q -0.92604,0 -1.52411,0.06752 -0.59807,0.0627 -0.94534,0.217041 -0.34726,0.15434 -0.48231,0.41479 -0.13505,0.260449 -0.13505,0.651123 0,0.241157 0.0338,0.429259 0.0338,0.188102 0.13505,0.332796 0.10611,0.139871 0.29421,0.236334 0.1881,0.09646 0.49679,0.159163 0.30868,0.0627 0.7524,0.09164 0.44856,0.02411 1.06592,0.02411 z"
         style="font-size:9.87778px;fill:#ff0000;stroke-width:1"
         id="path1162" />
      <path
         d="m 242.22262,95.309363 q -0.0145,0.05788 -0.21704,0.289389 -0.14469,0.173632 -0.38585,0.30868 -0.24115,0.130225 -0.6463,0.202572 -0.40032,0.07717 -1.05626,0.07717 -0.87299,0 -1.49035,-0.09164 -0.61736,-0.08682 -1.00804,-0.270095 -0.39067,-0.188102 -0.57395,-0.47749 -0.17846,-0.289389 -0.17846,-0.689709 0,-0.419612 0.0965,-0.709001 0.10128,-0.294211 0.28938,-0.491959 0.19293,-0.197749 0.46303,-0.308681 0.27009,-0.110932 0.61253,-0.16881 0.34727,-0.05788 0.75724,-0.07235 0.40996,-0.01447 0.87298,-0.01447 0.66077,0 1.1045,0.05788 0.44373,0.05305 0.72347,0.13987 0.28457,0.08199 0.42926,0.178456 0.14469,0.09646 0.20739,0.178456 0,-0.540191 -0.0482,-0.921218 -0.0434,-0.381028 -0.14951,-0.636654 -0.10129,-0.255626 -0.26528,-0.405143 -0.16398,-0.154341 -0.40514,-0.231511 -0.23633,-0.07717 -0.55466,-0.09646 -0.31833,-0.02411 -0.72829,-0.02411 -0.63666,0 -1.05627,0.03376 -0.41961,0.02894 -0.66559,0.120578 -0.24598,0.09164 -0.34727,0.255626 -0.10128,0.159164 -0.10128,0.419613 h -0.92605 q 0,-0.438905 0.15434,-0.742763 0.15917,-0.303857 0.5209,-0.49196 0.36656,-0.192925 0.95981,-0.279741 0.59324,-0.08682 1.46141,-0.08682 0.84887,0 1.43729,0.139871 0.58842,0.139871 0.95016,0.49196 0.36656,0.352089 0.52572,0.950157 0.16399,0.593246 0.16399,1.504818 v 2.623786 h -0.92605 z m -2.15111,0.144695 q 0.61253,0 1.0225,-0.05788 0.41479,-0.05788 0.66559,-0.173633 0.25081,-0.115755 0.35692,-0.289388 0.1061,-0.173633 0.1061,-0.405143 0,-0.231511 -0.1254,-0.390674 -0.12058,-0.163987 -0.40996,-0.265273 -0.28457,-0.101286 -0.75724,-0.144694 -0.47266,-0.04823 -1.16719,-0.04823 -0.69454,0 -1.12379,0.02412 -0.42444,0.02411 -0.65595,0.110932 -0.23151,0.08682 -0.3135,0.255626 -0.0772,0.16881 -0.0772,0.458198 0,0.289388 0.082,0.472667 0.0868,0.178456 0.34726,0.279742 0.26045,0.101285 0.74759,0.139871 0.49196,0.03376 1.30225,0.03376 z"
         style="font-size:9.87778px;fill:#ff0000;stroke-width:1"
         id="path1164" />
      <path
         d="m 254.26117,90.515168 h -1.08038 l -1.71704,4.861719 -1.83279,-4.861719 h -0.92604 l -1.85208,4.861719 -1.69775,-4.861719 h -1.08038 l 2.16076,5.556251 h 1.23473 l 1.69774,-4.553039 1.69774,4.553039 h 1.23473 z"
         style="font-size:9.87778px;fill:#ff0000;stroke-width:1"
         id="path1166" />
    </g>
    <rect
       style="fill:none;stroke:#000000;stroke-width:1;stroke-linejoin:bevel;stroke-miterlimit:0.8;stroke-dasharray:none"
       id="rect998"
       width="24.99367"
       height="200.00279"
       x="172.61296"
       y="-267.18271"
       ry="12.496835"
       transform="rotate(90)" />
    <path
       id="rect1000"
       style="fill:none;stroke:#000000;stroke-width:1;stroke-linejoin:bevel;stroke-miterlimit:0.8;stroke-dasharray:none"
       d="m 392.87645,266.80239 h -25 v -215 h 25"
       sodipodi:nodetypes="cccc" />
    <path
       id="path1003"
       style="fill:none;stroke:#000000;stroke-width:1;stroke-linejoin:bevel;stroke-miterlimit:0.8;stroke-dasharray:none"
       d="m 392.87645,51.80239 h 25 v 215 h -25 z" />
  </g>
</svg>
