<?xml version="1.0" encoding="UTF-8" standalone="no"?>
<svg
   xmlns:dc="http://purl.org/dc/elements/1.1/"
   xmlns:cc="http://creativecommons.org/ns#"
   xmlns:rdf="http://www.w3.org/1999/02/22-rdf-syntax-ns#"
   xmlns:svg="http://www.w3.org/2000/svg"
   xmlns="http://www.w3.org/2000/svg"
   xmlns:sodipodi="http://sodipodi.sourceforge.net/DTD/sodipodi-0.dtd"
   xmlns:inkscape="http://www.inkscape.org/namespaces/inkscape"
   width="19.5in"
   height="11in"
   viewBox="0 0 495.3 279.40001"
   version="1.1"
   id="svg27734"
   inkscape:version="1.0.1 (3bc2e813f5, 2020-09-07)"
   sodipodi:docname="DustHood_Part2.svg">
  <defs
     id="defs27728" />
  <sodipodi:namedview
     id="base"
     pagecolor="#ffffff"
     bordercolor="#00ff00"
     borderopacity="1"
     inkscape:pageopacity="0.0"
     inkscape:pageshadow="2"
     inkscape:zoom="0.35"
     inkscape:cx="400"
     inkscape:cy="560"
     inkscape:document-units="mm"
     inkscape:current-layer="layer1"
     inkscape:document-rotation="0"
     showgrid="false"
     units="in"
     inkscape:pagecheckerboard="false"
     inkscape:showpageshadow="false"
     borderlayer="false"
     inkscape:window-width="2131"
     inkscape:window-height="1368"
     inkscape:window-x="1273"
     inkscape:window-y="1080"
     inkscape:window-maximized="0">
    <sodipodi:guide
       position="0,279.4"
       orientation="0,1872"
       id="guide854" />
    <sodipodi:guide
       position="495.30001,279.4"
       orientation="1056,0"
       id="guide856" />
    <sodipodi:guide
       position="495.30001,0"
       orientation="0,-1872"
       id="guide858" />
    <sodipodi:guide
       position="0,0"
       orientation="-1056,0"
       id="guide860" />
  </sodipodi:namedview>
  <metadata
     id="metadata27731">
    <rdf:RDF>
      <cc:Work
         rdf:about="">
        <dc:format>image/svg+xml</dc:format>
        <dc:type
           rdf:resource="http://purl.org/dc/dcmitype/StillImage" />
        <dc:title></dc:title>
      </cc:Work>
    </rdf:RDF>
  </metadata>
  <g
     inkscape:label="Layer 1"
     inkscape:groupmode="layer"
     id="layer1">
    <g
       id="panel7197"
       transform="translate(-974.852,-2.1589948)">
      <path
         style="fill:none;stroke:#000000;stroke-width:1"
         d="m 974.852,5.334 h 28.228 V 2.54 h 31.66 v 2.794 h 27.08 V 2.54 h 31.66 v 2.794 h 27.09 V 2.54 h 31.65 v 2.794 h 27.09 V 2.54 h 31.66 v 2.794 h 27.08 V 2.54 h 31.66 v 2.794 h 28.23"
         id="path1302" />
      <path
         style="fill:none;stroke:#000000;stroke-width:1"
         d="m 1297.94,5.334 v 29.9466 h -2.79 v 29.3116 h 2.79 v 33.8836 h -2.79 v 29.3112 h 2.79 v 29.947"
         id="path1304" />
      <path
         style="fill:none;stroke:#000000;stroke-width:1"
         d="m 1297.94,157.734 h -28.23 v 2.794 h -31.66 v -2.794 h -27.08 v 2.794 h -31.66 v -2.794 h -27.09 v 2.794 h -31.65 v -2.794 h -27.09 v 2.794 h -31.66 v -2.794 h -27.08 v 2.794 h -31.66 v -2.794 h -28.228"
         id="path1306" />
      <path
         style="fill:none;stroke:#000000;stroke-width:1"
         d="m 974.852,157.734 v -29.947 h 2.794 V 98.4758 h -2.794 V 64.5922 h 2.794 V 35.2806 h -2.794 V 5.334"
         id="path1308" />
    </g>
    <g
       id="panel3632"
       transform="translate(-1300.482,150.24101)">
      <path
         style="fill:none;stroke:#000000;stroke-width:1"
         d="m 1300.48,5.334 h 28.23 V 2.54 h 31.66 v 2.794 h 27.08 V 2.54 h 31.66 v 2.794 h 27.09 V 2.54 h 31.65 v 2.794 h 27.09 V 2.54 h 31.66 v 2.794 h 27.08 V 2.54 h 31.66 v 2.794 h 28.23"
         id="path1347" />
      <path
         style="fill:none;stroke:#000000;stroke-width:1"
         d="m 1623.57,5.334 v 29.9466 h -2.8 v 29.3116 h 2.8 v 33.8836 h -2.8 v 29.3112 h 2.8 v 29.947"
         id="path1349" />
      <path
         style="fill:none;stroke:#000000;stroke-width:1"
         d="m 1623.57,157.734 h -28.23 v 2.794 h -31.66 v -2.794 h -27.08 v 2.794 h -31.66 v -2.794 h -27.09 v 2.794 h -31.65 v -2.794 h -27.09 v 2.794 h -31.66 v -2.794 h -27.08 v 2.794 h -31.66 v -2.794 h -28.23"
         id="path1351" />
      <path
         style="fill:none;stroke:#000000;stroke-width:1"
         d="m 1300.48,157.734 v -29.947 h 2.79 V 98.4758 h -2.79 V 64.5922 h 2.79 V 35.2806 h -2.79 V 5.334"
         id="path1353" />
    </g>
  </g>
</svg>
