<?xml version="1.0" encoding="UTF-8" standalone="no"?>
<svg xmlns="http://www.w3.org/2000/svg" width="926.4000244140625mm" height="267.3650207519531mm" viewBox="0 0 926.4000244140625 267.3650207519531">
<desc>Created with Glowforge for Fusion 360 CAM and HSM. To download visit: https://cam.autodesk.com/hsmposts?p=glowforge</desc>
<!-- CAM Setup Info:
Work Area Width: 926.4000244140625mm
Work Area Height: 267.3650207519531mm
Stock box Upper Right: 461.2,131.683
Stock box Lower Left: -461.2,-131.683
Origin: 0,0
Selected Colors: #0000d3, #02abea, #1fb714, #dd0907, #f20884, #fbf305
-->
<g id="global-translation-frame" transform="translate(463.2, 133.683) scale(1, -1)">
<g id="operation-1">
    <title>2D Profile2 (Op: 1/1)</title>
    <path d="M 190.675 -19.558
             L 190.675 12.193
             A 3.175 3.175 0 0 1 187.5 15.368
             A 3.175 3.175 0 0 1 184.325 12.193
             L 184.325 -19.558
             A 3.175 3.175 0 0 1 187.5 -22.733
             A 3.175 3.175 0 0 1 190.675 -19.558
             M 412.925 -19.558
             A 3.175 3.175 0 0 1 416.1 -22.733
             A 3.175 3.175 0 0 1 419.275 -19.558
             L 419.275 12.193
             A 3.175 3.175 0 0 1 416.1 15.368
             A 3.175 3.175 0 0 1 412.925 12.193
             L 412.925 -19.558
             M 174.117 -29.083
             L 143.4 -29.083
             L 143.4 21.718
             L 460.2 21.718
             L 460.2 -29.083
             L 174.117 -29.083
             M -190.927 -43.643
             A 3.175 3.175 0 0 1 -191.64 -39.209
             A 3.175 3.175 0 0 1 -196.073 -39.922
             A 3.175 3.175 0 0 1 -195.36 -44.356
             A 3.175 3.175 0 0 1 -190.927 -43.643
             M -155.4 -79.882
             L -460.2 -79.882
             M -425.123 -40.811
             A 3.175 3.175 0 0 1 -423.071 -44.805
             A 3.175 3.175 0 0 1 -419.077 -42.754
             A 3.175 3.175 0 0 1 -421.129 -38.76
             A 3.175 3.175 0 0 1 -425.123 -40.811
             M -407.034 -29.083
             L -155.4 -29.082
             L -155.4 -79.882
             L -155.4 -130.683
             L -460.2 -130.683
             L -460.2 -79.882
             L -460.2 -29.083
             L -407.034 -29.083
             M -396.7 -22.382
             L -447.5 -22.383
             L -447.5 15.017
             L -396.7 15.018
             L -396.7 3.017
             L -396.7 -22.382
             M -345.9 3.017
             L -345.9 15.017
             L -345.9 40.417
             L -295.1 40.417
             L -295.1 3.017
             L -345.9 3.017
             M -26.8 1.037
             L 73.2 1.037
             L 168.1 -110.002
             L -148.7 -110.002
             L -97.689 -50.316
             L -53.8 1.037
             L -26.8 1.037
             M -53.8 16.998
             L -148.7 128.037
             L 168.1 128.037
             L 73.2 16.998
             L -53.8 16.998
             M -312.798 60.047
             L -313.814 60.375
             L -313.814 84.66
             L -174.786 129.46
             L -174.786 15.575
             L -312.798 60.047
             M -315.09 60.18
             L -453.514 15.575
             L -453.514 129.46
             L -314.486 84.66
             L -314.486 60.375
             L -315.09 60.18" fill="none" stroke="#0000d3" stroke-width="0.1"/>
</g>
</g>
</svg>
