<?xml version="1.0" encoding="UTF-8" standalone="no"?>
<svg
   xmlns:dc="http://purl.org/dc/elements/1.1/"
   xmlns:cc="http://creativecommons.org/ns#"
   xmlns:rdf="http://www.w3.org/1999/02/22-rdf-syntax-ns#"
   xmlns:svg="http://www.w3.org/2000/svg"
   xmlns="http://www.w3.org/2000/svg"
   xmlns:sodipodi="http://sodipodi.sourceforge.net/DTD/sodipodi-0.dtd"
   xmlns:inkscape="http://www.inkscape.org/namespaces/inkscape"
   width="19.5in"
   height="11in"
   viewBox="0 0 495.3 279.40001"
   version="1.1"
   id="svg27734"
   inkscape:version="1.0.1 (3bc2e813f5, 2020-09-07)"
   sodipodi:docname="DustHood_Part1.svg">
  <defs
     id="defs27728" />
  <sodipodi:namedview
     id="base"
     pagecolor="#ffffff"
     bordercolor="#00ff00"
     borderopacity="1"
     inkscape:pageopacity="0.0"
     inkscape:pageshadow="2"
     inkscape:zoom="0.50362944"
     inkscape:cx="1229.2294"
     inkscape:cy="1040.4543"
     inkscape:document-units="mm"
     inkscape:current-layer="layer1"
     inkscape:document-rotation="0"
     showgrid="false"
     units="in"
     inkscape:pagecheckerboard="false"
     inkscape:showpageshadow="false"
     borderlayer="false"
     inkscape:window-width="2550"
     inkscape:window-height="1368"
     inkscape:window-x="1273"
     inkscape:window-y="1080"
     inkscape:window-maximized="0" />
  <metadata
     id="metadata27731">
    <rdf:RDF>
      <cc:Work
         rdf:about="">
        <dc:format>image/svg+xml</dc:format>
        <dc:type
           rdf:resource="http://purl.org/dc/dcmitype/StillImage" />
        <dc:title></dc:title>
      </cc:Work>
    </rdf:RDF>
  </metadata>
  <g
     inkscape:label="Layer 1"
     inkscape:groupmode="layer"
     id="layer1">
    <circle
       style="fill:none;stroke:#000000;stroke-width:0.529168;stroke-linecap:round"
       id="path1296"
       cx="405.5322"
       cy="71.627998"
       r="50.535416" />
    <g
       id="panel1150"
       transform="translate(-327.2578,2.794)">
      <path
         style="fill:none;stroke:#000000;stroke-width:1"
         d="m 656.59,5.334 h 27.661 V 2.54 h 33.883 v 2.794 h 29.312 V 2.54 h 33.883 v 2.794 h 27.661"
         id="path1311" />
      <path
         style="fill:none;stroke:#000000;stroke-width:1"
         d="m 808.99,5.334 v 22.5806 h 2.794 v 28.8036 h -2.794 v 24.2316 h 2.794 v 28.8032 h -2.794 v 22.581"
         id="path1313" />
      <path
         style="fill:none;stroke:#000000;stroke-width:1"
         d="m 808.99,132.334 h -27.661 v 2.794 h -33.883 v -2.794 h -29.312 v 2.794 h -33.883 v -2.794 H 656.59"
         id="path1315" />
      <path
         style="fill:none;stroke:#000000;stroke-width:1"
         d="m 656.59,132.334 v -22.581 h -2.794 V 80.9498 h 2.794 V 56.7182 h -2.794 V 27.9146 h 2.794 V 5.334"
         id="path1317" />
    </g>
    <g
       id="panel2597">
      <path
         style="fill:none;stroke:#000000;stroke-width:1"
         d="M 2.54 2.54 L 33.0546 2.54 L 33.0546 5.334 L 60.1403 5.334 L 60.1403 2.54 L 91.7979 2.54 L 91.7979 5.334 L 118.884 5.334 L 118.884 2.54 L 150.541 2.54 L 150.541 5.334 L 177.627 5.334 L 177.627 2.54 L 209.284 2.54 L 209.284 5.334 L 236.37 5.334 L 236.37 2.54 L 268.028 2.54 L 268.028 5.334 L 295.113 5.334 L 295.113 2.54 L 325.628 2.54"
         id="path1320" />
      <path
         style="fill:none;stroke:#000000;stroke-width:1"
         d="M 325.628 2.54 L 325.628 30.2006 L 322.834 30.2006 L 322.834 54.4322 L 325.628 54.4322 L 325.628 83.2358 L 322.834 83.2358 L 322.834 107.467 L 325.628 107.467 L 325.628 135.128"
         id="path1322" />
      <path
         style="fill:none;stroke:#000000;stroke-width:1"
         d="M 325.628 135.128 L 295.113 135.128 L 295.113 132.334 L 268.028 132.334 L 268.028 135.128 L 236.37 135.128 L 236.37 132.334 L 209.284 132.334 L 209.284 135.128 L 177.627 135.128 L 177.627 132.334 L 150.541 132.334 L 150.541 135.128 L 118.884 135.128 L 118.884 132.334 L 91.7979 132.334 L 91.7979 135.128 L 60.1403 135.128 L 60.1403 132.334 L 33.0546 132.334 L 33.0546 135.128 L 2.54 135.128"
         id="path1324" />
      <path
         style="fill:none;stroke:#000000;stroke-width:1"
         d="M 2.54 135.128 L 2.54 107.467 L 5.334 107.467 L 5.334 83.2358 L 2.54 83.2358 L 2.54 54.4322 L 5.334 54.4322 L 5.334 30.2006 L 2.54 30.2006 L 2.54 2.54"
         id="path1326" />
    </g>
    <g
       id="panel1388"
       transform="translate(-325.628,132.588)">
      <path
         style="fill:none;stroke:#000000;stroke-width:1"
         d="m 328.168,2.54 h 30.515 v 2.794 h 27.085 V 2.54 h 31.658 v 2.794 h 27.086 V 2.54 h 31.657 v 2.794 h 27.086 V 2.54 h 31.657 v 2.794 h 27.086 V 2.54 h 31.658 v 2.794 h 27.085 V 2.54 h 30.515"
         id="path1329" />
      <path
         style="fill:none;stroke:#000000;stroke-width:1"
         d="m 651.256,2.54 v 27.6606 h -2.794 v 24.2316 h 2.794 v 28.8036 h -2.794 v 24.2312 h 2.794 v 27.661"
         id="path1331" />
      <path
         style="fill:none;stroke:#000000;stroke-width:1"
         d="m 651.256,135.128 h -30.515 v -2.794 h -27.085 v 2.794 h -31.658 v -2.794 h -27.086 v 2.794 h -31.657 v -2.794 h -27.086 v 2.794 h -31.657 v -2.794 h -27.086 v 2.794 h -31.658 v -2.794 h -27.085 v 2.794 h -30.515"
         id="path1333" />
      <path
         style="fill:none;stroke:#000000;stroke-width:1"
         d="m 328.168,135.128 v -27.661 h 2.794 V 83.2358 h -2.794 V 54.4322 h 2.794 V 30.2006 h -2.794 V 2.54"
         id="path1335" />
    </g>
    <g
       id="panel9626"
       transform="translate(-491.49,135.382)">
      <path
         style="fill:none;stroke:#000000;stroke-width:1"
         d="m 817.118,5.334 h 27.661 V 2.54 h 33.883 v 2.794 h 29.312 V 2.54 h 33.883 v 2.794 h 27.661"
         id="path1338" />
      <path
         style="fill:none;stroke:#000000;stroke-width:1"
         d="m 969.518,5.334 v 22.5806 h 2.794 v 28.8036 h -2.794 v 24.2316 h 2.794 v 28.8032 h -2.794 v 22.581"
         id="path1340" />
      <path
         style="fill:none;stroke:#000000;stroke-width:1"
         d="m 969.518,132.334 h -27.661 v 2.794 h -33.883 v -2.794 h -29.312 v 2.794 h -33.883 v -2.794 h -27.661"
         id="path1342" />
      <path
         style="fill:none;stroke:#000000;stroke-width:1"
         d="m 817.118,132.334 v -22.581 h -2.794 V 80.9498 h 2.794 V 56.7182 h -2.794 V 27.9146 h 2.794 V 5.334"
         id="path1344" />
    </g>
  </g>
</svg>
