<?xml version="1.0" encoding="UTF-8" standalone="no"?>
<svg
   xmlns:dc="http://purl.org/dc/elements/1.1/"
   xmlns:cc="http://creativecommons.org/ns#"
   xmlns:rdf="http://www.w3.org/1999/02/22-rdf-syntax-ns#"
   xmlns:svg="http://www.w3.org/2000/svg"
   xmlns="http://www.w3.org/2000/svg"
   xmlns:sodipodi="http://sodipodi.sourceforge.net/DTD/sodipodi-0.dtd"
   xmlns:inkscape="http://www.inkscape.org/namespaces/inkscape"
   version="1.1"
   id="svg87331"
   xml:space="preserve"
   width="2800"
   height="2800"
   viewBox="0 0 2800 2800"
   sodipodi:docname="Firefly2_Plug.svg"
   inkscape:version="1.0.1 (3bc2e813f5, 2020-09-07)"><metadata
     id="metadata87337"><rdf:RDF><cc:Work
         rdf:about=""><dc:format>image/svg+xml</dc:format><dc:type
           rdf:resource="http://purl.org/dc/dcmitype/StillImage" /><dc:title /></cc:Work></rdf:RDF></metadata><defs
     id="defs87335"><clipPath
       clipPathUnits="userSpaceOnUse"
       id="clipPath87349"><path
         d="M 21000,0 H 0 V 21000 H 21000 V 0 m -9913.8,11433.8 c 0,0 -341,-353.8 -472.4,-881.5 -131.4,-527.7 -97.7,-867.9 -97.7,-867.9 0,0 32.6,-137.4 84.2,-137.4 0.9,0 1.9,0 2.8,0.1 0,0 -11.7,213.4 31.2,522.5 4.3,-1.9 8.8,-3.5 13.4,-4.7 8.3,-2.3 16.7,-3.3 24.9,-3.3 42.2,0 80.8,28.2 92.3,70.9 13.6,51 -16.6,103.4 -67.7,117.1 -8.2,2.2 -16.6,3.3 -24.8,3.3 -2.6,0 -5.3,-0.1 -7.9,-0.3 66.5,345.8 202,767.5 475.4,1141.8 l -53.7,39.4 m 78.2,10.2 -46.9,-133.2 c 0,0 19.4,-588.7 248.2,-1023 179.8,-341.2 391.6,-523.1 490.3,-523.1 26.9,0 45.4,13.6 52.6,41.2 0,0 -161.8,133.5 -338,425.6 27,10.9 48.7,33.8 56.8,64 13.6,51.1 -16.6,103.5 -67.7,117.2 -8.2,2.2 -16.6,3.2 -24.8,3.2 -20.5,0 -40.1,-6.6 -56.3,-18.3 -130.4,256.6 -254.9,602 -314.2,1046.4 M 9503.06,10053.4 c -71.66,-144.3 -125.84,-227.3 -125.84,-227.3 5.54,-3.9 12,-5.7 19.07,-5.7 48.4,0 124.94,81.1 124.94,81.1 0,0 199.26,277.8 349.31,800.5 150.06,522.6 31.6,999.5 31.6,999.5 l -66.19,-7.2 c 19.98,-185.5 16.76,-366.5 -1.73,-538.2 -14.33,16.5 -33.55,29 -56.23,35.1 -9.84,2.6 -19.73,3.9 -29.45,3.9 -50.13,0 -96,-33.5 -109.59,-84.2 -16.23,-60.6 19.71,-122.8 80.27,-139.1 9.85,-2.6 19.73,-3.9 29.46,-3.9 22.36,0 43.87,6.7 62.05,18.6 -58.18,-344.7 -171.45,-642.2 -267.6,-849.6 -7.23,15.5 -21.03,27.9 -38.87,32.7 -5.2,1.4 -10.42,2 -15.55,2 -26.48,0 -50.72,-17.6 -57.89,-44.4 -8.57,-32 10.41,-64.9 42.4,-73.5 5.2,-1.4 10.42,-2 15.56,-2 4.87,0 9.66,0.6 14.28,1.7 m 2291.94,284.4 c -25.1,0 -48.1,-16.8 -54.9,-42.2 -8.2,-30.3 9.9,-61.5 40.2,-69.7 4.9,-1.3 9.9,-1.9 14.8,-1.9 25.1,0 48.1,16.8 54.9,42.2 8.1,30.3 -9.9,61.5 -40.3,69.6 -4.9,1.4 -9.8,2 -14.7,2 m -865.1,191.6 c -20.7,0 -39.7,-13.9 -45.3,-34.8 -6.7,-25.1 8.1,-50.8 33.2,-57.5 4,-1.1 8.1,-1.6 12.2,-1.6 20.7,0 39.6,13.8 45.3,34.8 6.7,25 -8.2,50.7 -33.2,57.4 -4.1,1.1 -8.2,1.7 -12.2,1.7 m -1382.97,146.4 c -26.48,0 -50.71,-17.7 -57.89,-44.5 -8.57,-32 10.41,-64.9 42.4,-73.4 5.2,-1.4 10.42,-2.1 15.56,-2.1 26.47,0 50.7,17.7 57.88,44.5 8.57,32 -10.41,64.8 -42.4,73.4 -5.2,1.4 -10.42,2.1 -15.55,2.1 m -898.42,88.3 c -172.43,-72.2 -280.28,-90.3 -280.28,-90.3 -14.07,-50.6 29.23,-79.3 112.46,-79.3 127.18,0 347.54,67 598.61,225.2 415.38,261.8 726.44,761.9 726.44,761.9 l 26.01,138.8 c -370.02,-480.4 -752.83,-744.5 -1034.1,-887.2 -10.77,16.7 -27.51,29.5 -48.17,35 -7.2,2 -14.42,2.9 -21.53,2.9 -36.65,0 -70.19,-24.5 -80.13,-61.5 -4.15,-15.5 -3.63,-31.2 0.69,-45.5 m 2869.29,143.4 c -49.2,0 -94.2,-32.8 -107.6,-82.6 -15.9,-59.5 19.4,-120.6 78.8,-136.5 9.7,-2.6 19.4,-3.8 28.9,-3.8 49.2,0 94.3,32.8 107.6,82.6 15.9,59.5 -19.4,120.6 -78.8,136.5 -9.7,2.6 -19.4,3.8 -28.9,3.8 m -2576.96,313.2 c -28.89,0 -55.33,-19.3 -63.17,-48.5 -9.35,-35 11.37,-70.8 46.28,-80.2 5.67,-1.5 11.37,-2.2 16.97,-2.2 28.89,0 55.33,19.2 63.17,48.5 9.35,34.9 -11.36,70.8 -46.27,80.1 -5.68,1.5 -11.37,2.3 -16.98,2.3 m 3578.46,1363.5 c -127.2,0 -347.5,-67 -598.6,-225.2 -415.4,-261.7 -726.4,-761.8 -726.4,-761.8 l -26.1,-138.8 c 370.1,480.4 752.9,744.5 1034.1,887.1 10.8,-16.6 27.6,-29.5 48.2,-35 7.2,-1.9 14.5,-2.8 21.6,-2.8 36.6,0 70.1,24.4 80.1,61.5 4.1,15.5 3.6,31.1 -0.7,45.4 172.4,72.2 280.3,90.3 280.3,90.3 14,50.7 -29.3,79.3 -112.5,79.3 m -915.6,774.1 c -48.4,0 -124.9,-81.1 -124.9,-81.1 0,0 -199.3,-277.7 -349.3,-800.4 -150.1,-522.7 -31.6,-999.6 -31.6,-999.6 l 66.2,7.2 c -20,185.6 -16.8,366.5 1.7,538.3 14.3,-16.5 33.5,-29 56.2,-35.1 9.9,-2.7 19.7,-3.9 29.5,-3.9 50.1,0 96,33.5 109.6,84.2 16.2,60.5 -19.8,122.8 -80.3,139 -9.9,2.6 -19.8,3.9 -29.5,3.9 -22.3,0 -43.9,-6.7 -62,-18.5 58.2,344.6 171.4,642.1 267.6,849.5 7.2,-15.5 21,-27.9 38.8,-32.6 5.2,-1.4 10.5,-2.1 15.6,-2.1 26.5,0 50.7,17.7 57.9,44.5 8.6,32 -10.4,64.8 -42.4,73.4 -5.2,1.4 -10.4,2.1 -15.6,2.1 -4.8,0 -9.6,-0.6 -14.3,-1.8 71.7,144.3 125.9,227.3 125.9,227.3 -5.6,4 -12,5.7 -19.1,5.7 M 9415.29,11618.6 c -24.93,0 -47.74,-16.7 -54.5,-41.9 -8.07,-30.1 9.8,-61 39.92,-69.1 4.89,-1.3 9.81,-2 14.64,-2 24.93,0 47.75,16.7 54.5,41.9 8.08,30.1 -9.8,61.1 -39.91,69.1 -4.9,1.4 -9.81,2 -14.65,2 m 2169.31,54.5 c -24.9,0 -47.7,-16.6 -54.5,-41.9 -8,-30.1 9.8,-61 40,-69.1 4.9,-1.3 9.8,-1.9 14.6,-1.9 24.9,0 47.8,16.6 54.5,41.8 8.1,30.1 -9.8,61.1 -39.9,69.2 -4.9,1.3 -9.8,1.9 -14.7,1.9 m -2063.24,1108.1 c 130.47,-256.7 254.93,-602.1 314.24,-1046.4 l 46.89,133.2 c 0,0 -19.35,588.6 -248.2,1023 -179.76,341.2 -391.57,523 -490.27,523 -26.95,0 -45.46,-13.5 -52.58,-41.1 0,0 161.73,-133.5 337.93,-425.7 -26.95,-10.8 -48.64,-33.8 -56.74,-64 -13.67,-51 16.61,-103.4 67.63,-117.1 8.29,-2.2 16.62,-3.3 24.81,-3.3 20.51,0 40.18,6.6 56.29,18.4 m 814.14,145 c -66.6,-345.8 -202,-767.5 -475.43,-1141.8 l 53.71,-39.4 c 0,0 341.02,353.8 472.42,881.4 131.4,527.7 97.7,867.9 97.7,867.9 0,0 -32.6,137.5 -84.2,137.5 -0.9,0 -1.9,-0.1 -2.8,-0.2 0,0 11.7,-213.4 -31.2,-522.4 -4.3,1.9 -8.8,3.4 -13.4,4.7 -8.3,2.2 -16.7,3.3 -24.9,3.3 -42.2,0 -80.8,-28.2 -92.3,-70.9 -13.6,-51.1 16.6,-103.5 67.7,-117.2 8.2,-2.2 16.6,-3.3 24.8,-3.3 2.6,0 5.3,0.1 7.9,0.4 m 1723.6,-837.2 c -28.9,0 -55.4,-19.3 -63.2,-48.5 -9.3,-34.9 11.4,-70.8 46.3,-80.2 5.7,-1.5 11.4,-2.2 17,-2.2 28.8,0 55.3,19.3 63.1,48.5 9.4,34.9 -11.3,70.8 -46.2,80.1 -5.7,1.6 -11.4,2.3 -17,2.3 m -2577.02,405.2 c -49.2,0 -94.24,-32.9 -107.58,-82.7 -15.92,-59.4 19.36,-120.5 78.8,-136.4 9.67,-2.6 19.37,-3.9 28.92,-3.9 49.2,0 94.23,32.9 107.57,82.7 15.93,59.4 -19.35,120.5 -78.8,136.4 -9.66,2.6 -19.36,3.9 -28.91,3.9 m 1970.92,128.7 c -26.5,0 -50.7,-17.6 -57.9,-44.4 -8.5,-32 10.4,-64.9 42.4,-73.5 5.2,-1.4 10.4,-2 15.6,-2 26.5,0 50.7,17.6 57.9,44.4 8.5,32 -10.4,64.9 -42.4,73.5 -5.2,1.4 -10.5,2 -15.6,2 m -1383,120.4 c -20.7,0 -39.6,-13.9 -45.3,-34.8 -6.7,-25.1 8.2,-50.8 33.2,-57.5 4.1,-1.1 8.2,-1.6 12.2,-1.6 20.7,0 39.7,13.8 45.3,34.8 6.7,25 -8.1,50.7 -33.2,57.5 -4,1.1 -8.1,1.6 -12.2,1.6 m -865.06,211.5 c -25.12,0 -48.1,-16.8 -54.91,-42.2 -8.13,-30.4 9.88,-61.6 40.22,-69.7 4.93,-1.3 9.88,-1.9 14.76,-1.9 25.11,0 48.1,16.7 54.91,42.1 8.13,30.4 -9.88,61.6 -40.22,69.7 -4.94,1.3 -9.89,2 -14.76,2"
         id="path87347" /></clipPath><radialGradient
       fx="0"
       fy="0"
       cx="0"
       cy="0"
       r="1"
       gradientUnits="userSpaceOnUse"
       gradientTransform="matrix(10500,0,0,-10500,10500,10500)"
       spreadMethod="pad"
       id="radialGradient87355"><stop
         style="stop-opacity:1;stop-color:#ffffff"
         offset="0"
         id="stop87351" /><stop
         style="stop-opacity:1;stop-color:#e6e6e6"
         offset="1"
         id="stop87353" /></radialGradient><clipPath
       clipPathUnits="userSpaceOnUse"
       id="clipPath87365"><path
         d="m 9488.78,10051.7 c -5.14,0 -10.36,0.6 -15.56,2 -31.99,8.6 -50.97,41.5 -42.4,73.5 7.17,26.8 31.41,44.4 57.89,44.4 5.13,0 10.35,-0.6 15.55,-2 17.84,-4.8 31.64,-17.2 38.87,-32.7 -13.79,-29.7 -27.2,-57.6 -40.07,-83.5 -4.62,-1.1 -9.41,-1.7 -14.28,-1.7"
         id="path87363" /></clipPath><radialGradient
       fx="0"
       fy="0"
       cx="0"
       cy="0"
       r="1"
       gradientUnits="userSpaceOnUse"
       gradientTransform="matrix(10500,0,0,-10500,10500,10500)"
       spreadMethod="pad"
       id="radialGradient87371"><stop
         style="stop-opacity:1;stop-color:#ffdba6"
         offset="0"
         id="stop87367" /><stop
         style="stop-opacity:1;stop-color:#f5d19c"
         offset="1"
         id="stop87369" /></radialGradient><clipPath
       clipPathUnits="userSpaceOnUse"
       id="clipPath87381"><path
         d="m 9913.78,11745 -53.71,39.4 c 273.43,374.3 408.83,796 475.43,1141.8 39.1,3.2 73.7,30.5 84.4,70.6 12.4,46.3 -11.4,93.8 -54.2,112.4 42.9,309 31.2,522.4 31.2,522.4 0.9,0.1 1.9,0.2 2.8,0.2 51.6,0 84.2,-137.5 84.2,-137.5 0,0 33.7,-340.2 -97.7,-867.9 -131.4,-527.6 -472.42,-881.4 -472.42,-881.4"
         id="path87379" /></clipPath><radialGradient
       fx="0"
       fy="0"
       cx="0"
       cy="0"
       r="1"
       gradientUnits="userSpaceOnUse"
       gradientTransform="matrix(10500,0,0,-10500,10500,10500)"
       spreadMethod="pad"
       id="radialGradient87387"><stop
         style="stop-opacity:1;stop-color:#f7d7f2"
         offset="0"
         id="stop87383" /><stop
         style="stop-opacity:1;stop-color:#edcde8"
         offset="1"
         id="stop87385" /></radialGradient><clipPath
       clipPathUnits="userSpaceOnUse"
       id="clipPath87397"><path
         d="m 9396.29,9820.4 c -7.07,0 -13.53,1.8 -19.07,5.7 0,0 54.18,83 125.84,227.3 12.87,25.9 26.28,53.8 40.07,83.5 96.15,207.4 209.42,504.9 267.6,849.6 22.57,14.7 40.01,37.5 47.53,65.6 10.15,37.9 -0.11,76.4 -24.04,104 18.49,171.7 21.71,352.7 1.73,538.2 l 66.19,7.2 c 0,0 118.46,-476.9 -31.6,-999.5 -150.05,-522.7 -349.31,-800.5 -349.31,-800.5 0,0 -76.54,-81.1 -124.94,-81.1"
         id="path87395" /></clipPath><radialGradient
       fx="0"
       fy="0"
       cx="0"
       cy="0"
       r="1"
       gradientUnits="userSpaceOnUse"
       gradientTransform="matrix(10500,0,0,-10500,10500,10500)"
       spreadMethod="pad"
       id="radialGradient87403"><stop
         style="stop-opacity:1;stop-color:#ffdba6"
         offset="0"
         id="stop87399" /><stop
         style="stop-opacity:1;stop-color:#f5d19c"
         offset="1"
         id="stop87401" /></radialGradient><clipPath
       clipPathUnits="userSpaceOnUse"
       id="clipPath87413"><path
         d="m 9835.6,11734.8 c -59.31,444.3 -183.77,789.7 -314.24,1046.4 17.06,12.4 30.14,30.5 36.02,52.5 13.68,51 -16.6,103.5 -67.62,117.1 -8.29,2.3 -16.62,3.3 -24.81,3.3 -12.37,0 -24.42,-2.4 -35.58,-6.9 -176.2,292.2 -337.93,425.7 -337.93,425.7 7.12,27.6 25.63,41.1 52.58,41.1 98.7,0 310.51,-181.8 490.27,-523 228.85,-434.4 248.2,-1023 248.2,-1023 l -46.89,-133.2"
         id="path87411" /></clipPath><radialGradient
       fx="0"
       fy="0"
       cx="0"
       cy="0"
       r="1"
       gradientUnits="userSpaceOnUse"
       gradientTransform="matrix(10500,0,0,-10500,10500,10500)"
       spreadMethod="pad"
       id="radialGradient87419"><stop
         style="stop-opacity:1;stop-color:#cce1ff"
         offset="0"
         id="stop87415" /><stop
         style="stop-opacity:1;stop-color:#c2d7f5"
         offset="1"
         id="stop87417" /></radialGradient><clipPath
       clipPathUnits="userSpaceOnUse"
       id="clipPath87429"><path
         d="m 8480.69,10594.5 c -83.23,0 -126.53,28.7 -112.46,79.3 0,0 107.85,18.1 280.28,90.3 8.04,-26.5 29.22,-48.5 58,-56.2 7.2,-1.9 14.43,-2.8 21.54,-2.8 36.64,0 70.18,24.4 80.11,61.5 6.33,23.6 1.81,47.6 -10.51,66.6 281.27,142.7 664.08,406.8 1034.1,887.2 l -26.01,-138.8 c 0,0 -311.06,-500.1 -726.44,-761.9 -251.07,-158.2 -471.43,-225.2 -598.61,-225.2"
         id="path87427" /></clipPath><radialGradient
       fx="0"
       fy="0"
       cx="0"
       cy="0"
       r="1"
       gradientUnits="userSpaceOnUse"
       gradientTransform="matrix(10500,0,0,-10500,10500,10500)"
       spreadMethod="pad"
       id="radialGradient87435"><stop
         style="stop-opacity:1;stop-color:#ffbcb2"
         offset="0"
         id="stop87431" /><stop
         style="stop-opacity:1;stop-color:#f5b2a8"
         offset="1"
         id="stop87433" /></radialGradient><clipPath
       clipPathUnits="userSpaceOnUse"
       id="clipPath87445"><path
         d="m 10327.6,12925.8 c -8.2,0 -16.6,1.1 -24.8,3.3 -51.1,13.7 -81.3,66.1 -67.7,117.2 11.5,42.7 50.1,70.9 92.3,70.9 8.2,0 16.6,-1.1 24.9,-3.3 4.6,-1.3 9.1,-2.8 13.4,-4.7 42.8,-18.6 66.6,-66.1 54.2,-112.4 -10.7,-40.1 -45.3,-67.4 -84.4,-70.6 -2.6,-0.3 -5.3,-0.4 -7.9,-0.4"
         id="path87443" /></clipPath><radialGradient
       fx="0"
       fy="0"
       cx="0"
       cy="0"
       r="1"
       gradientUnits="userSpaceOnUse"
       gradientTransform="matrix(10500,0,0,-10500,10500,10500)"
       spreadMethod="pad"
       id="radialGradient87451"><stop
         style="stop-opacity:1;stop-color:#f7d7f2"
         offset="0"
         id="stop87447" /><stop
         style="stop-opacity:1;stop-color:#edcde8"
         offset="1"
         id="stop87449" /></radialGradient><clipPath
       clipPathUnits="userSpaceOnUse"
       id="clipPath87461"><path
         d="m 9465.07,12762.8 c -8.19,0 -16.52,1.1 -24.81,3.3 -51.02,13.7 -81.3,66.1 -67.63,117.1 8.1,30.2 29.79,53.2 56.74,64 11.16,4.5 23.21,6.9 35.58,6.9 8.19,0 16.52,-1 24.81,-3.3 51.02,-13.6 81.3,-66.1 67.62,-117.1 -5.88,-22 -18.96,-40.1 -36.02,-52.5 -16.11,-11.8 -35.78,-18.4 -56.29,-18.4"
         id="path87459" /></clipPath><radialGradient
       fx="0"
       fy="0"
       cx="0"
       cy="0"
       r="1"
       gradientUnits="userSpaceOnUse"
       gradientTransform="matrix(10500,0,0,-10500,10500,10500)"
       spreadMethod="pad"
       id="radialGradient87467"><stop
         style="stop-opacity:1;stop-color:#cce1ff"
         offset="0"
         id="stop87463" /><stop
         style="stop-opacity:1;stop-color:#c2d7f5"
         offset="1"
         id="stop87465" /></radialGradient><clipPath
       clipPathUnits="userSpaceOnUse"
       id="clipPath87477"><path
         d="m 9205.01,12841 c -4.88,0 -9.83,0.6 -14.76,1.9 -30.34,8.1 -48.35,39.3 -40.22,69.7 6.81,25.4 29.79,42.2 54.91,42.2 4.87,0 9.82,-0.7 14.76,-2 30.34,-8.1 48.35,-39.3 40.22,-69.7 -6.81,-25.4 -29.8,-42.1 -54.91,-42.1"
         id="path87475" /></clipPath><radialGradient
       fx="0"
       fy="0"
       cx="0"
       cy="0"
       r="1"
       gradientUnits="userSpaceOnUse"
       gradientTransform="matrix(10500,0,0,-10500,10500,10500)"
       spreadMethod="pad"
       id="radialGradient87483"><stop
         style="stop-opacity:1;stop-color:#cce1ff"
         offset="0"
         id="stop87479" /><stop
         style="stop-opacity:1;stop-color:#c2d7f5"
         offset="1"
         id="stop87481" /></radialGradient><clipPath
       clipPathUnits="userSpaceOnUse"
       id="clipPath87493"><path
         d="m 9482.22,12271.2 c -9.55,0 -19.25,1.3 -28.92,3.9 -59.44,15.9 -94.72,77 -78.8,136.4 13.34,49.8 58.38,82.7 107.58,82.7 9.55,0 19.25,-1.3 28.91,-3.9 59.45,-15.9 94.73,-77 78.8,-136.4 -13.34,-49.8 -58.37,-82.7 -107.57,-82.7"
         id="path87491" /></clipPath><radialGradient
       fx="0"
       fy="0"
       cx="0"
       cy="0"
       r="1"
       gradientUnits="userSpaceOnUse"
       gradientTransform="matrix(10500,0,0,-10500,10500,10500)"
       spreadMethod="pad"
       id="radialGradient87499"><stop
         style="stop-opacity:1;stop-color:#cce1ff"
         offset="0"
         id="stop87495" /><stop
         style="stop-opacity:1;stop-color:#c2d7f5"
         offset="1"
         id="stop87497" /></radialGradient><clipPath
       clipPathUnits="userSpaceOnUse"
       id="clipPath87509"><path
         d="m 8728.05,10705.1 c -7.11,0 -14.34,0.9 -21.54,2.8 -28.78,7.7 -49.96,29.7 -58,56.2 -4.32,14.3 -4.84,30 -0.69,45.5 9.94,37 43.48,61.5 80.13,61.5 7.11,0 14.33,-0.9 21.53,-2.9 20.66,-5.5 37.4,-18.3 48.17,-35 12.32,-19 16.84,-43 10.51,-66.6 -9.93,-37.1 -43.47,-61.5 -80.11,-61.5"
         id="path87507" /></clipPath><radialGradient
       fx="0"
       fy="0"
       cx="0"
       cy="0"
       r="1"
       gradientUnits="userSpaceOnUse"
       gradientTransform="matrix(10500,0,0,-10500,10500,10500)"
       spreadMethod="pad"
       id="radialGradient87515"><stop
         style="stop-opacity:1;stop-color:#ffbcb2"
         offset="0"
         id="stop87511" /><stop
         style="stop-opacity:1;stop-color:#f5b2a8"
         offset="1"
         id="stop87513" /></radialGradient><clipPath
       clipPathUnits="userSpaceOnUse"
       id="clipPath87525"><path
         d="m 8940.92,11089.8 c -5.6,0 -11.3,0.7 -16.97,2.2 -34.91,9.4 -55.63,45.2 -46.28,80.2 7.84,29.2 34.28,48.5 63.17,48.5 5.61,0 11.3,-0.8 16.98,-2.3 34.91,-9.3 55.62,-45.2 46.27,-80.1 -7.84,-29.3 -34.28,-48.5 -63.17,-48.5"
         id="path87523" /></clipPath><radialGradient
       fx="0"
       fy="0"
       cx="0"
       cy="0"
       r="1"
       gradientUnits="userSpaceOnUse"
       gradientTransform="matrix(10500,0,0,-10500,10500,10500)"
       spreadMethod="pad"
       id="radialGradient87531"><stop
         style="stop-opacity:1;stop-color:#ffbcb2"
         offset="0"
         id="stop87527" /><stop
         style="stop-opacity:1;stop-color:#f5b2a8"
         offset="1"
         id="stop87529" /></radialGradient><clipPath
       clipPathUnits="userSpaceOnUse"
       id="clipPath87541"><path
         d="m 9415.35,11505.6 c -4.83,0 -9.75,0.7 -14.64,2 -30.12,8.1 -47.99,39 -39.92,69.1 6.76,25.2 29.57,41.9 54.5,41.9 4.84,0 9.75,-0.6 14.65,-2 30.11,-8 47.99,-39 39.91,-69.1 -6.75,-25.2 -29.57,-41.9 -54.5,-41.9"
         id="path87539" /></clipPath><radialGradient
       fx="0"
       fy="0"
       cx="0"
       cy="0"
       r="1"
       gradientUnits="userSpaceOnUse"
       gradientTransform="matrix(10500,0,0,-10500,10500,10500)"
       spreadMethod="pad"
       id="radialGradient87547"><stop
         style="stop-opacity:1;stop-color:#ffbcb2"
         offset="0"
         id="stop87543" /><stop
         style="stop-opacity:1;stop-color:#f5b2a8"
         offset="1"
         id="stop87545" /></radialGradient><clipPath
       clipPathUnits="userSpaceOnUse"
       id="clipPath87557"><path
         d="m 9748.68,10967.9 c -9.73,0 -19.61,1.3 -29.46,3.9 -60.56,16.3 -96.5,78.5 -80.27,139.1 13.59,50.7 59.46,84.2 109.59,84.2 9.72,0 19.61,-1.3 29.45,-3.9 22.68,-6.1 41.9,-18.6 56.23,-35.1 23.93,-27.6 34.19,-66.1 24.04,-104 -7.52,-28.1 -24.96,-50.9 -47.53,-65.6 -18.18,-11.9 -39.69,-18.6 -62.05,-18.6"
         id="path87555" /></clipPath><radialGradient
       fx="0"
       fy="0"
       cx="0"
       cy="0"
       r="1"
       gradientUnits="userSpaceOnUse"
       gradientTransform="matrix(10500,0,0,-10500,10500,10500)"
       spreadMethod="pad"
       id="radialGradient87563"><stop
         style="stop-opacity:1;stop-color:#ffdba6"
         offset="0"
         id="stop87559" /><stop
         style="stop-opacity:1;stop-color:#f5d19c"
         offset="1"
         id="stop87561" /></radialGradient><clipPath
       clipPathUnits="userSpaceOnUse"
       id="clipPath87573"><path
         d="m 9547,10555.8 c -5.14,0 -10.36,0.7 -15.56,2.1 -31.99,8.5 -50.97,41.4 -42.4,73.4 7.18,26.8 31.41,44.5 57.89,44.5 5.13,0 10.35,-0.7 15.55,-2.1 31.99,-8.6 50.97,-41.4 42.4,-73.4 -7.18,-26.8 -31.41,-44.5 -57.88,-44.5"
         id="path87571" /></clipPath><radialGradient
       fx="0"
       fy="0"
       cx="0"
       cy="0"
       r="1"
       gradientUnits="userSpaceOnUse"
       gradientTransform="matrix(10500,0,0,-10500,10500,10500)"
       spreadMethod="pad"
       id="radialGradient87579"><stop
         style="stop-opacity:1;stop-color:#ffdba6"
         offset="0"
         id="stop87575" /><stop
         style="stop-opacity:1;stop-color:#f5d19c"
         offset="1"
         id="stop87577" /></radialGradient><clipPath
       clipPathUnits="userSpaceOnUse"
       id="clipPath87589"><path
         d="m 10070.1,12649.4 c -4,0 -8.1,0.5 -12.2,1.6 -25,6.7 -39.9,32.4 -33.2,57.5 5.7,20.9 24.6,34.8 45.3,34.8 4.1,0 8.2,-0.5 12.2,-1.6 25.1,-6.8 39.9,-32.5 33.2,-57.5 -5.6,-21 -24.6,-34.8 -45.3,-34.8"
         id="path87587" /></clipPath><radialGradient
       fx="0"
       fy="0"
       cx="0"
       cy="0"
       r="1"
       gradientUnits="userSpaceOnUse"
       gradientTransform="matrix(10500,0,0,-10500,10500,10500)"
       spreadMethod="pad"
       id="radialGradient87595"><stop
         style="stop-opacity:1;stop-color:#f7d7f2"
         offset="0"
         id="stop87591" /><stop
         style="stop-opacity:1;stop-color:#edcde8"
         offset="1"
         id="stop87593" /></radialGradient><clipPath
       clipPathUnits="userSpaceOnUse"
       id="clipPath87617"><path
         d="m 11511.3,13007.1 c -5.1,0 -10.4,0.7 -15.6,2.1 -17.8,4.7 -31.6,17.1 -38.8,32.6 13.8,29.8 27.2,57.6 40,83.5 4.7,1.2 9.5,1.8 14.3,1.8 5.2,0 10.4,-0.7 15.6,-2.1 32,-8.6 51,-41.4 42.4,-73.4 -7.2,-26.8 -31.4,-44.5 -57.9,-44.5"
         id="path87615" /></clipPath><radialGradient
       fx="0"
       fy="0"
       cx="0"
       cy="0"
       r="1"
       gradientUnits="userSpaceOnUse"
       gradientTransform="matrix(10500,0,0,-10500,10500,10500)"
       spreadMethod="pad"
       id="radialGradient87623"><stop
         style="stop-opacity:1;stop-color:#ffdba6"
         offset="0"
         id="stop87619" /><stop
         style="stop-opacity:1;stop-color:#f5d19c"
         offset="1"
         id="stop87621" /></radialGradient><clipPath
       clipPathUnits="userSpaceOnUse"
       id="clipPath87633"><path
         d="m 10600.3,9547 c -51.6,0 -84.2,137.4 -84.2,137.4 0,0 -33.7,340.2 97.7,867.9 131.4,527.7 472.4,881.5 472.4,881.5 l 53.7,-39.4 c -273.4,-374.3 -408.9,-796 -475.4,-1141.8 -39,-3.3 -73.7,-30.6 -84.4,-70.6 -12.4,-46.4 11.4,-93.9 54.2,-112.4 -42.9,-309.1 -31.2,-522.5 -31.2,-522.5 -0.9,-0.1 -1.9,-0.1 -2.8,-0.1"
         id="path87631" /></clipPath><radialGradient
       fx="0"
       fy="0"
       cx="0"
       cy="0"
       r="1"
       gradientUnits="userSpaceOnUse"
       gradientTransform="matrix(10500,0,0,-10500,10500,10500)"
       spreadMethod="pad"
       id="radialGradient87639"><stop
         style="stop-opacity:1;stop-color:#f7d7f2"
         offset="0"
         id="stop87635" /><stop
         style="stop-opacity:1;stop-color:#edcde8"
         offset="1"
         id="stop87637" /></radialGradient><clipPath
       clipPathUnits="userSpaceOnUse"
       id="clipPath87649"><path
         d="m 11097.9,11477.2 c 0,0 -118.5,476.9 31.6,999.6 150,522.7 349.3,800.4 349.3,800.4 0,0 76.5,81.1 124.9,81.1 7.1,0 13.5,-1.7 19.1,-5.7 0,0 -54.2,-83 -125.9,-227.3 -12.8,-25.9 -26.2,-53.7 -40,-83.5 -96.2,-207.4 -209.4,-504.9 -267.6,-849.5 -22.6,-14.8 -40,-37.6 -47.6,-65.7 -10.1,-37.8 0.2,-76.4 24.1,-103.9 -18.5,-171.8 -21.7,-352.7 -1.7,-538.3 l -66.2,-7.2"
         id="path87647" /></clipPath><radialGradient
       fx="0"
       fy="0"
       cx="0"
       cy="0"
       r="1"
       gradientUnits="userSpaceOnUse"
       gradientTransform="matrix(10500,0,0,-10500,10500,10500)"
       spreadMethod="pad"
       id="radialGradient87655"><stop
         style="stop-opacity:1;stop-color:#ffdba6"
         offset="0"
         id="stop87651" /><stop
         style="stop-opacity:1;stop-color:#f5d19c"
         offset="1"
         id="stop87653" /></radialGradient><clipPath
       clipPathUnits="userSpaceOnUse"
       id="clipPath87665"><path
         d="m 11856,9764.7 c -98.7,0 -310.5,181.9 -490.3,523.1 -228.8,434.3 -248.2,1023 -248.2,1023 l 46.9,133.2 c 59.3,-444.4 183.8,-789.8 314.2,-1046.4 -17,-12.5 -30.1,-30.6 -36,-52.6 -13.7,-51 16.6,-103.4 67.6,-117.1 8.3,-2.2 16.7,-3.3 24.9,-3.3 12.3,0 24.4,2.4 35.5,6.9 176.2,-292.1 338,-425.6 338,-425.6 -7.2,-27.6 -25.7,-41.2 -52.6,-41.2"
         id="path87663" /></clipPath><radialGradient
       fx="0"
       fy="0"
       cx="0"
       cy="0"
       r="1"
       gradientUnits="userSpaceOnUse"
       gradientTransform="matrix(10500,0,0,-10500,10500,10500)"
       spreadMethod="pad"
       id="radialGradient87671"><stop
         style="stop-opacity:1;stop-color:#cce1ff"
         offset="0"
         id="stop87667" /><stop
         style="stop-opacity:1;stop-color:#c2d7f5"
         offset="1"
         id="stop87669" /></radialGradient><clipPath
       clipPathUnits="userSpaceOnUse"
       id="clipPath87681"><path
         d="m 11168.2,11458.4 26.1,138.8 c 0,0 311,500.1 726.4,761.8 251.1,158.2 471.4,225.2 598.6,225.2 83.2,0 126.5,-28.6 112.5,-79.3 0,0 -107.9,-18.1 -280.3,-90.3 -8,26.6 -29.2,48.5 -58,56.2 -7.2,2 -14.4,2.9 -21.5,2.9 -36.7,0 -70.2,-24.5 -80.2,-61.5 -6.3,-23.7 -1.8,-47.6 10.5,-66.7 -281.2,-142.6 -664,-406.7 -1034.1,-887.1"
         id="path87679" /></clipPath><radialGradient
       fx="0"
       fy="0"
       cx="0"
       cy="0"
       r="1"
       gradientUnits="userSpaceOnUse"
       gradientTransform="matrix(10500,0,0,-10500,10500,10500)"
       spreadMethod="pad"
       id="radialGradient87687"><stop
         style="stop-opacity:1;stop-color:#ffbcb2"
         offset="0"
         id="stop87683" /><stop
         style="stop-opacity:1;stop-color:#f5b2a8"
         offset="1"
         id="stop87685" /></radialGradient><clipPath
       clipPathUnits="userSpaceOnUse"
       id="clipPath87697"><path
         d="m 10672.6,10061.6 c -8.2,0 -16.6,1 -24.9,3.3 -4.6,1.2 -9.1,2.8 -13.4,4.7 -42.8,18.5 -66.6,66 -54.2,112.4 10.7,40 45.4,67.3 84.4,70.6 2.6,0.2 5.3,0.3 7.9,0.3 8.2,0 16.6,-1.1 24.8,-3.3 51.1,-13.7 81.3,-66.1 67.7,-117.1 -11.5,-42.7 -50.1,-70.9 -92.3,-70.9"
         id="path87695" /></clipPath><radialGradient
       fx="0"
       fy="0"
       cx="0"
       cy="0"
       r="1"
       gradientUnits="userSpaceOnUse"
       gradientTransform="matrix(10500,0,0,-10500,10500,10500)"
       spreadMethod="pad"
       id="radialGradient87703"><stop
         style="stop-opacity:1;stop-color:#f7d7f2"
         offset="0"
         id="stop87699" /><stop
         style="stop-opacity:1;stop-color:#edcde8"
         offset="1"
         id="stop87701" /></radialGradient><clipPath
       clipPathUnits="userSpaceOnUse"
       id="clipPath87713"><path
         d="m 11535.1,10224.6 c -8.2,0 -16.6,1.1 -24.9,3.3 -51,13.7 -81.3,66.1 -67.6,117.1 5.9,22 19,40.1 36,52.6 16.2,11.7 35.8,18.3 56.3,18.3 8.2,0 16.6,-1 24.8,-3.2 51.1,-13.7 81.3,-66.1 67.7,-117.2 -8.1,-30.2 -29.8,-53.1 -56.8,-64 -11.1,-4.5 -23.2,-6.9 -35.5,-6.9"
         id="path87711" /></clipPath><radialGradient
       fx="0"
       fy="0"
       cx="0"
       cy="0"
       r="1"
       gradientUnits="userSpaceOnUse"
       gradientTransform="matrix(10500,0,0,-10500,10500,10500)"
       spreadMethod="pad"
       id="radialGradient87719"><stop
         style="stop-opacity:1;stop-color:#cce1ff"
         offset="0"
         id="stop87715" /><stop
         style="stop-opacity:1;stop-color:#c2d7f5"
         offset="1"
         id="stop87717" /></radialGradient><clipPath
       clipPathUnits="userSpaceOnUse"
       id="clipPath87729"><path
         d="m 11795.1,10224 c -4.9,0 -9.9,0.6 -14.8,1.9 -30.3,8.2 -48.4,39.4 -40.2,69.7 6.8,25.4 29.8,42.2 54.9,42.2 4.9,0 9.8,-0.6 14.7,-2 30.4,-8.1 48.4,-39.3 40.3,-69.6 -6.8,-25.4 -29.8,-42.2 -54.9,-42.2"
         id="path87727" /></clipPath><radialGradient
       fx="0"
       fy="0"
       cx="0"
       cy="0"
       r="1"
       gradientUnits="userSpaceOnUse"
       gradientTransform="matrix(10500,0,0,-10500,10500,10500)"
       spreadMethod="pad"
       id="radialGradient87735"><stop
         style="stop-opacity:1;stop-color:#cce1ff"
         offset="0"
         id="stop87731" /><stop
         style="stop-opacity:1;stop-color:#c2d7f5"
         offset="1"
         id="stop87733" /></radialGradient><clipPath
       clipPathUnits="userSpaceOnUse"
       id="clipPath87745"><path
         d="m 11517.9,10684.6 c -9.5,0 -19.2,1.2 -28.9,3.8 -59.4,15.9 -94.7,77 -78.8,136.5 13.4,49.8 58.4,82.6 107.6,82.6 9.5,0 19.2,-1.2 28.9,-3.8 59.4,-15.9 94.7,-77 78.8,-136.5 -13.3,-49.8 -58.4,-82.6 -107.6,-82.6"
         id="path87743" /></clipPath><radialGradient
       fx="0"
       fy="0"
       cx="0"
       cy="0"
       r="1"
       gradientUnits="userSpaceOnUse"
       gradientTransform="matrix(10500,0,0,-10500,10500,10500)"
       spreadMethod="pad"
       id="radialGradient87751"><stop
         style="stop-opacity:1;stop-color:#cce1ff"
         offset="0"
         id="stop87747" /><stop
         style="stop-opacity:1;stop-color:#c2d7f5"
         offset="1"
         id="stop87749" /></radialGradient><clipPath
       clipPathUnits="userSpaceOnUse"
       id="clipPath87761"><path
         d="m 12272.1,12307.7 c -7.1,0 -14.4,0.9 -21.6,2.8 -20.6,5.5 -37.4,18.4 -48.2,35 -12.3,19.1 -16.8,43 -10.5,66.7 10,37 43.5,61.5 80.2,61.5 7.1,0 14.3,-0.9 21.5,-2.9 28.8,-7.7 50,-29.6 58,-56.2 4.3,-14.3 4.8,-29.9 0.7,-45.4 -10,-37.1 -43.5,-61.5 -80.1,-61.5"
         id="path87759" /></clipPath><radialGradient
       fx="0"
       fy="0"
       cx="0"
       cy="0"
       r="1"
       gradientUnits="userSpaceOnUse"
       gradientTransform="matrix(10500,0,0,-10500,10500,10500)"
       spreadMethod="pad"
       id="radialGradient87767"><stop
         style="stop-opacity:1;stop-color:#ffbcb2"
         offset="0"
         id="stop87763" /><stop
         style="stop-opacity:1;stop-color:#f5b2a8"
         offset="1"
         id="stop87765" /></radialGradient><clipPath
       clipPathUnits="userSpaceOnUse"
       id="clipPath87777"><path
         d="m 12059.2,11958.1 c -5.6,0 -11.3,0.7 -17,2.2 -34.9,9.4 -55.6,45.3 -46.3,80.2 7.8,29.2 34.3,48.5 63.2,48.5 5.6,0 11.3,-0.7 17,-2.3 34.9,-9.3 55.6,-45.2 46.2,-80.1 -7.8,-29.2 -34.3,-48.5 -63.1,-48.5"
         id="path87775" /></clipPath><radialGradient
       fx="0"
       fy="0"
       cx="0"
       cy="0"
       r="1"
       gradientUnits="userSpaceOnUse"
       gradientTransform="matrix(10500,0,0,-10500,10500,10500)"
       spreadMethod="pad"
       id="radialGradient87783"><stop
         style="stop-opacity:1;stop-color:#ffbcb2"
         offset="0"
         id="stop87779" /><stop
         style="stop-opacity:1;stop-color:#f5b2a8"
         offset="1"
         id="stop87781" /></radialGradient><clipPath
       clipPathUnits="userSpaceOnUse"
       id="clipPath87793"><path
         d="m 11584.7,11560.2 c -4.8,0 -9.7,0.6 -14.6,1.9 -30.2,8.1 -48,39 -40,69.1 6.8,25.3 29.6,41.9 54.5,41.9 4.9,0 9.8,-0.6 14.7,-1.9 30.1,-8.1 48,-39.1 39.9,-69.2 -6.7,-25.2 -29.6,-41.8 -54.5,-41.8"
         id="path87791" /></clipPath><radialGradient
       fx="0"
       fy="0"
       cx="0"
       cy="0"
       r="1"
       gradientUnits="userSpaceOnUse"
       gradientTransform="matrix(10500,0,0,-10500,10500,10500)"
       spreadMethod="pad"
       id="radialGradient87799"><stop
         style="stop-opacity:1;stop-color:#ffbcb2"
         offset="0"
         id="stop87795" /><stop
         style="stop-opacity:1;stop-color:#f5b2a8"
         offset="1"
         id="stop87797" /></radialGradient><clipPath
       clipPathUnits="userSpaceOnUse"
       id="clipPath87809"><path
         d="m 11251.5,11983.7 c -9.8,0 -19.6,1.2 -29.5,3.9 -22.7,6.1 -41.9,18.6 -56.2,35.1 -23.9,27.5 -34.2,66.1 -24.1,103.9 7.6,28.1 25,50.9 47.6,65.7 18.1,11.8 39.7,18.5 62,18.5 9.7,0 19.6,-1.3 29.5,-3.9 60.5,-16.2 96.5,-78.5 80.3,-139 -13.6,-50.7 -59.5,-84.2 -109.6,-84.2"
         id="path87807" /></clipPath><radialGradient
       fx="0"
       fy="0"
       cx="0"
       cy="0"
       r="1"
       gradientUnits="userSpaceOnUse"
       gradientTransform="matrix(10500,0,0,-10500,10500,10500)"
       spreadMethod="pad"
       id="radialGradient87815"><stop
         style="stop-opacity:1;stop-color:#ffdba6"
         offset="0"
         id="stop87811" /><stop
         style="stop-opacity:1;stop-color:#f5d19c"
         offset="1"
         id="stop87813" /></radialGradient><clipPath
       clipPathUnits="userSpaceOnUse"
       id="clipPath87825"><path
         d="m 11453.1,12503 c -5.2,0 -10.4,0.6 -15.6,2 -32,8.6 -50.9,41.5 -42.4,73.5 7.2,26.8 31.4,44.4 57.9,44.4 5.1,0 10.4,-0.6 15.6,-2 32,-8.6 50.9,-41.5 42.4,-73.5 -7.2,-26.8 -31.4,-44.4 -57.9,-44.4"
         id="path87823" /></clipPath><radialGradient
       fx="0"
       fy="0"
       cx="0"
       cy="0"
       r="1"
       gradientUnits="userSpaceOnUse"
       gradientTransform="matrix(10500,0,0,-10500,10500,10500)"
       spreadMethod="pad"
       id="radialGradient87831"><stop
         style="stop-opacity:1;stop-color:#ffdba6"
         offset="0"
         id="stop87827" /><stop
         style="stop-opacity:1;stop-color:#f5d19c"
         offset="1"
         id="stop87829" /></radialGradient><clipPath
       clipPathUnits="userSpaceOnUse"
       id="clipPath87841"><path
         d="m 10930,10435.5 c -4.1,0 -8.2,0.5 -12.2,1.6 -25.1,6.7 -39.9,32.4 -33.2,57.5 5.6,20.9 24.6,34.8 45.3,34.8 4,0 8.1,-0.6 12.2,-1.7 25,-6.7 39.9,-32.4 33.2,-57.4 -5.7,-21 -24.6,-34.8 -45.3,-34.8"
         id="path87839" /></clipPath><radialGradient
       fx="0"
       fy="0"
       cx="0"
       cy="0"
       r="1"
       gradientUnits="userSpaceOnUse"
       gradientTransform="matrix(10500,0,0,-10500,10500,10500)"
       spreadMethod="pad"
       id="radialGradient87847"><stop
         style="stop-opacity:1;stop-color:#f7d7f2"
         offset="0"
         id="stop87843" /><stop
         style="stop-opacity:1;stop-color:#edcde8"
         offset="1"
         id="stop87845" /></radialGradient></defs><sodipodi:namedview
     pagecolor="#ffffff"
     bordercolor="#666666"
     borderopacity="1"
     objecttolerance="10"
     gridtolerance="10"
     guidetolerance="10"
     inkscape:pageopacity="0"
     inkscape:pageshadow="2"
     inkscape:window-width="3840"
     inkscape:window-height="2066"
     id="namedview87333"
     showgrid="false"
     inkscape:zoom="3.0910668"
     inkscape:cx="1123.0501"
     inkscape:cy="1621.7911"
     inkscape:window-x="-11"
     inkscape:window-y="-11"
     inkscape:window-maximized="1"
     inkscape:current-layer="g87339"
     inkscape:document-rotation="0" /><g
     id="g87339"
     inkscape:groupmode="layer"
     inkscape:label="ink_ext_XXXXXX"
     transform="matrix(1.3333333,0,0,-1.3333333,0,2800)"><g
       id="g8811"
       transform="matrix(0.17546263,0,0,0.17546263,526.3001,860.68573)"
       style="stroke-width:8.5488291;stroke-miterlimit:4;stroke-dasharray:none;stroke:#000000;stroke-opacity:1;fill:#000000;fill-opacity:1"><path
         d="m 448.90841,946.46677 h 77.60401 c 1.314,0 1.31599,2.042 0,2.042 h -77.60401 c -1.314,0 -1.316,-2.042 0,-2.042"
         style="fill:#000000;fill-opacity:1;fill-rule:nonzero;stroke:#000000;stroke-width:8.5488291;stroke-miterlimit:4;stroke-dasharray:none;stroke-opacity:1"
         id="path1136" /><path
         d="m 514.90341,834.20177 38.802,67.207 c 0.657,1.138 -1.111,2.161 -1.769,1.021 l -38.802,-67.206 c -0.657,-1.138 1.111,-2.162 1.769,-1.022"
         style="fill:#000000;fill-opacity:1;fill-rule:nonzero;stroke:#000000;stroke-width:8.5488291;stroke-miterlimit:4;stroke-dasharray:none;stroke-opacity:1"
         id="path1138" /><path
         d="m 645.12441,835.22377 -38.801,67.206 c -0.658,1.138 -2.427,0.119 -1.769,-1.021 l 38.802,-67.207 c 0.657,-1.138 2.427,-0.118 1.768,1.022"
         style="fill:#000000;fill-opacity:1;fill-rule:nonzero;stroke:#000000;stroke-width:8.5488291;stroke-miterlimit:4;stroke-dasharray:none;stroke-opacity:1"
         id="path1140" /><path
         d="m 709.35141,948.50877 h -77.604 c -1.314,0 -1.316,-2.042 0,-2.042 h 77.604 c 1.314,0 1.316,2.042 0,2.042"
         style="fill:#000000;fill-opacity:1;fill-rule:nonzero;stroke:#000000;stroke-width:8.5488291;stroke-miterlimit:4;stroke-dasharray:none;stroke-opacity:1"
         id="path1142" /><path
         d="m 643.35641,1060.7728 -38.802,-67.20603 c -0.657,-1.138 1.11,-2.161 1.769,-1.021 l 38.801,67.20603 c 0.657,1.138 -1.11,2.161 -1.768,1.021"
         style="fill:#000000;fill-opacity:1;fill-rule:nonzero;stroke:#000000;stroke-width:8.5488291;stroke-miterlimit:4;stroke-dasharray:none;stroke-opacity:1"
         id="path1144" /><path
         d="m 513.13441,1059.7518 38.802,-67.20603 c 0.657,-1.138 2.427,-0.119 1.769,1.021 l -38.802,67.20603 c -0.657,1.139 -2.427,0.119 -1.769,-1.021"
         style="fill:#000000;fill-opacity:1;fill-rule:nonzero;stroke:#000000;stroke-width:8.5488291;stroke-miterlimit:4;stroke-dasharray:none;stroke-opacity:1"
         id="path1146" /><path
         d="m 598.72741,1067.2718 -7.511,-43.606 c -0.223,-1.295 1.789,-1.644 2.012,-0.347 l 7.512,43.606 c 0.223,1.295 -1.789,1.644 -2.013,0.347"
         style="fill:#000000;fill-opacity:1;fill-rule:nonzero;stroke:#000000;stroke-width:8.5488291;stroke-miterlimit:4;stroke-dasharray:none;stroke-opacity:1"
         id="path1148" /><path
         d="m 485.19341,1024.3518 34.008,-28.30803 c 1.009,-0.841 2.317,0.727 1.306,1.57 l -34.008,28.30703 c -1.01,0.841 -2.318,-0.727 -1.306,-1.569"
         style="fill:#000000;fill-opacity:1;fill-rule:nonzero;stroke:#000000;stroke-width:8.5488291;stroke-miterlimit:4;stroke-dasharray:none;stroke-opacity:1"
         id="path1150" /><path
         d="m 465.59541,904.56777 41.519,15.298 c 1.233,0.454 0.529,2.371 -0.706,1.916 l -41.519,-15.297 c -1.233,-0.455 -0.529,-2.372 0.706,-1.917"
         style="fill:#000000;fill-opacity:1;fill-rule:nonzero;stroke:#000000;stroke-width:8.5488291;stroke-miterlimit:4;stroke-dasharray:none;stroke-opacity:1"
         id="path1152" /><path
         d="m 559.53241,827.70377 7.511,43.606 c 0.223,1.295 -1.789,1.644 -2.012,0.347 l -7.512,-43.606 c -0.223,-1.295 1.789,-1.644 2.013,-0.347"
         style="fill:#000000;fill-opacity:1;fill-rule:nonzero;stroke:#000000;stroke-width:8.5488291;stroke-miterlimit:4;stroke-dasharray:none;stroke-opacity:1"
         id="path1154" /><path
         d="m 673.06641,870.62377 -34.007,28.308 c -1.011,0.841 -2.319,-0.728 -1.307,-1.57 l 34.008,-28.308 c 1.009,-0.84 2.318,0.728 1.306,1.57"
         style="fill:#000000;fill-opacity:1;fill-rule:nonzero;stroke:#000000;stroke-width:8.5488291;stroke-miterlimit:4;stroke-dasharray:none;stroke-opacity:1"
         id="path1156" /><path
         d="m 692.66441,990.40777 -41.52,-15.298 c -1.232,-0.454 -0.528,-2.371 0.707,-1.916 l 41.519,15.297 c 1.233,0.455 0.529,2.372 -0.706,1.917"
         style="fill:#000000;fill-opacity:1;fill-rule:nonzero;stroke:#000000;stroke-width:8.5488291;stroke-miterlimit:4;stroke-dasharray:none;stroke-opacity:1"
         id="path1158" /><path
         d="m 482.96441,981.84377 51.73801,-19.069 c 1.233,-0.455 1.941,1.461 0.70599,1.916 l -51.738,19.069 c -1.233,0.454 -1.941,-1.461 -0.706,-1.916"
         style="fill:#000000;fill-opacity:1;fill-rule:nonzero;stroke:#000000;stroke-width:8.5488291;stroke-miterlimit:4;stroke-dasharray:none;stroke-opacity:1"
         id="path1160" /><path
         d="m 461.24741,989.84777 9.582,-3.531 c 1.232,-0.455 1.941,1.461 0.706,1.916 l -9.581,3.531 c -1.233,0.454 -1.941,-1.461 -0.707,-1.916"
         style="fill:#000000;fill-opacity:1;fill-rule:nonzero;stroke:#000000;stroke-width:8.5488291;stroke-miterlimit:4;stroke-dasharray:none;stroke-opacity:1"
         id="path1162" /><path
         d="m 501.29441,881.38377 42.383,35.272 c 1.01,0.84 -0.295,2.411 -1.306,1.569 l -42.383,-35.271 c -1.011,-0.84 0.294,-2.412 1.306,-1.57"
         style="fill:#000000;fill-opacity:1;fill-rule:nonzero;stroke:#000000;stroke-width:8.5488291;stroke-miterlimit:4;stroke-dasharray:none;stroke-opacity:1"
         id="path1164" /><path
         d="m 483.50441,866.57877 7.848,6.532 c 1.01,0.84 -0.294,2.412 -1.306,1.57 l -7.849,-6.532 c -1.01,-0.841 0.295,-2.412 1.307,-1.57"
         style="fill:#000000;fill-opacity:1;fill-rule:nonzero;stroke:#000000;stroke-width:8.5488291;stroke-miterlimit:4;stroke-dasharray:none;stroke-opacity:1"
         id="path1166" /><path
         d="m 597.45941,847.02877 -9.354,54.34 c -0.223,1.295 -2.236,0.951 -2.013,-0.346 l 9.355,-54.341 c 0.222,-1.295 2.236,-0.95 2.012,0.347"
         style="fill:#000000;fill-opacity:1;fill-rule:nonzero;stroke:#000000;stroke-width:8.5488291;stroke-miterlimit:4;stroke-dasharray:none;stroke-opacity:1"
         id="path1168" /><path
         d="m 601.38641,824.21877 -1.733,10.063 c -0.222,1.295 -2.236,0.951 -2.012,-0.346 l 1.732,-10.063 c 0.223,-1.295 2.236,-0.951 2.013,0.346"
         style="fill:#000000;fill-opacity:1;fill-rule:nonzero;stroke:#000000;stroke-width:8.5488291;stroke-miterlimit:4;stroke-dasharray:none;stroke-opacity:1"
         id="path1170" /><path
         d="m 675.29441,913.13177 -51.737,19.069 c -1.233,0.455 -1.941,-1.461 -0.706,-1.916 l 51.737,-19.069 c 1.233,-0.454 1.941,1.461 0.706,1.916"
         style="fill:#000000;fill-opacity:1;fill-rule:nonzero;stroke:#000000;stroke-width:8.5488291;stroke-miterlimit:4;stroke-dasharray:none;stroke-opacity:1"
         id="path1172" /><path
         d="m 697.01141,905.12777 -9.581,3.531 c -1.233,0.455 -1.941,-1.461 -0.706,-1.916 l 9.581,-3.531 c 1.233,-0.454 1.942,1.461 0.706,1.916"
         style="fill:#000000;fill-opacity:1;fill-rule:nonzero;stroke:#000000;stroke-width:8.5488291;stroke-miterlimit:4;stroke-dasharray:none;stroke-opacity:1"
         id="path1174" /><path
         d="m 656.96541,1013.5918 -42.383,-35.27203 c -1.01,-0.84 0.294,-2.411 1.306,-1.569 l 42.383,35.27103 c 1.01,0.84 -0.295,2.411 -1.306,1.57"
         style="fill:#000000;fill-opacity:1;fill-rule:nonzero;stroke:#000000;stroke-width:8.5488291;stroke-miterlimit:4;stroke-dasharray:none;stroke-opacity:1"
         id="path1176" /><path
         d="m 674.75541,1028.3968 -7.849,-6.532 c -1.01,-0.841 0.295,-2.412 1.307,-1.57 l 7.848,6.532 c 1.01,0.841 -0.294,2.412 -1.306,1.57"
         style="fill:#000000;fill-opacity:1;fill-rule:nonzero;stroke:#000000;stroke-width:8.5488291;stroke-miterlimit:4;stroke-dasharray:none;stroke-opacity:1"
         id="path1178" /><path
         d="m 560.80041,1047.9468 9.354,-54.34003 c 0.223,-1.295 2.236,-0.951 2.013,0.346 l -9.355,54.34103 c -0.223,1.295 -2.235,0.95 -2.012,-0.347"
         style="fill:#000000;fill-opacity:1;fill-rule:nonzero;stroke:#000000;stroke-width:8.5488291;stroke-miterlimit:4;stroke-dasharray:none;stroke-opacity:1"
         id="path1180" /><path
         d="m 556.87341,1070.7568 1.732,-10.063 c 0.224,-1.295 2.236,-0.951 2.013,0.346 l -1.732,10.063 c -0.223,1.295 -2.236,0.951 -2.013,-0.346"
         style="fill:#000000;fill-opacity:1;fill-rule:nonzero;stroke:#000000;stroke-width:8.5488291;stroke-miterlimit:4;stroke-dasharray:none;stroke-opacity:1"
         id="path1182" /></g><circle
       style="fill:none;stroke:#ff0000;stroke-width:0.75;stroke-miterlimit:1"
       id="path88057"
       cx="615.80682"
       cy="-982.42474"
       transform="scale(1,-1)"
       r="72" /><path
       style="fill:#000000;stroke:#000000;stroke-width:0.0808782;stroke-miterlimit:1"
       d=""
       id="path88097"
       transform="matrix(0.75000002,0,0,-0.75000002,0,2100.0001)" /><g
       id="g1320"
       transform="matrix(0.24604897,0,0,0.24604897,439.54244,846.78657)"><g
         id="g8733"
         transform="rotate(-117.92547,532.02374,477.32497)"><path
           d="m 565.46759,437.81382 c -27.133,4.756 -33.09,33.712 -35.963,56.545 -1.516,12.051 -1.045,24.116 -1.148,36.226 -0.051,6.021 -0.035,11.966 0.569,17.964 0.656,6.52 2.045,12.55 3.349,18.897 -0.616,-0.349 -1.231,-0.699 -1.846,-1.048 1.705,-0.591 3.201,-4.831 3.955,-6.222 1.435,-2.649 3.196,-5.069 4.828,-7.596 3.102,-4.806 5.718,-9.99 8.293,-15.093 5.81,-11.517 9.949,-23.77 14.847,-35.676 4.894,-11.896 10.376,-23.086 12.761,-35.835 1.28,-6.841 1.76,-14.683 -0.321,-21.445 -0.795,-2.584 -2.142,-4.323 -4.453,-5.594 -0.369,-0.203 -4.818,-2.06 -4.942,-1.812 -0.86,1.728 -3.449,0.21 -2.59,-1.514 1.393,-2.798 5.731,-0.722 7.724,0.143 4.319,1.875 6.483,4.829 7.468,9.403 3.317,15.408 -1.357,31.02 -7.391,45.126 -6.431,15.033 -11.772,30.676 -18.876,45.405 -3.509,7.276 -7.319,14.414 -11.773,21.151 -2.223,3.363 -4.547,11.001 -8.732,12.452 -0.73,0.254 -1.69,-0.291 -1.845,-1.047 -1.228,-5.979 -2.619,-11.637 -3.26,-17.768 -0.729,-6.97 -0.799,-13.835 -0.755,-20.835 0.086,-13.978 0.06,-27.602 1.997,-41.481 1.684,-12.071 3.841,-25.571 11.119,-35.754 6.129,-8.577 15.625,-15.634 26.187,-17.485 1.888,-0.331 2.699,2.56 0.798,2.893 v 0"
           style="fill:#000000;fill-opacity:1;fill-rule:nonzero;stroke:none;stroke-width:0.1"
           id="path164" /><path
           d="m 533.20859,565.45582 c -0.008,0.126 -0.017,0.252 -0.025,0.378 -0.982,-0.132 -1.964,-0.265 -2.946,-0.399 1.659,-7.393 1.512,-15.135 3.091,-22.606 1.627,-7.697 3.669,-15.306 5.77,-22.884 1.944,-7.008 3.581,-14.088 5.499,-21.096 1.976,-7.22 4.922,-14.236 7.577,-21.227 10.626,-27.979 18.58,-57.87 22.031,-87.668 0.219,-1.895 3.222,-1.918 3,0 -1.684,14.539 -4.832,28.801 -8.306,43.004 -3.656,14.947 -7.656,29.287 -13.153,43.679 -2.677,7.01 -5.591,14.042 -7.748,21.233 -2.165,7.219 -3.718,14.651 -5.741,21.92 -2.111,7.582 -4.154,15.188 -5.828,22.88 -1.696,7.799 -1.563,15.828 -3.299,23.563 -0.367,1.63 -3.059,1.302 -2.947,-0.399 0.008,-0.126 0.017,-0.252 0.025,-0.378 0.127,-1.916 3.128,-1.93 3,0 v 0"
           style="fill:#000000;fill-opacity:1;fill-rule:nonzero;stroke:none;stroke-width:0.1"
           id="path166" /><path
           d="m 526.95859,529.19982 c 0.922,-0.253 1.978,-2.018 2.605,-2.702 1.365,-1.485 2.805,-2.912 4.262,-4.307 2.649,-2.535 6.393,-5.012 8.191,-8.256 0.937,-1.689 3.529,-0.178 2.591,1.513 -2.041,3.682 -6.116,6.402 -9.097,9.287 -1.71,1.656 -3.411,3.35 -4.958,5.159 -0.867,1.014 -1.471,1.836 -2.796,2.199 -1.865,0.51 -2.661,-2.384 -0.798,-2.893 v 0"
           style="fill:#000000;fill-opacity:1;fill-rule:nonzero;stroke:none;stroke-width:0.1"
           id="path168" /><path
           d="m 541.32859,517.59182 c 0,-0.277 0,-0.554 0,-0.832 0,-1.938 2.914,-1.922 3,0 0.378,8.506 3.077,16.83 3.385,25.324 -1,0 -2,0 -3,0 0,-0.106 0,-0.212 0,-0.318 0,-1.93 3,-1.934 3,0 0,0.106 0,0.212 0,0.318 0,1.936 -2.93,1.927 -3,0 -0.308,-8.486 -3.007,-16.819 -3.385,-25.324 1,0 2,0 3,0 0,0.278 0,0.555 0,0.832 0,1.93 -3,1.934 -3,0 v 0"
           style="fill:#000000;fill-opacity:1;fill-rule:nonzero;stroke:none;stroke-width:0.1"
           id="path170" /><path
           d="m 526.95859,505.02582 c 1.492,-0.578 2.889,-2.558 4.141,-3.567 1.616,-1.301 3.252,-2.481 5.032,-3.557 4.172,-2.522 8.767,-4.248 12.716,-7.108 0.519,-0.376 1.396,-0.215 1.818,0.234 1.619,1.724 1.073,2.646 1.551,5.008 0.57,2.811 1.88,5.48 2.707,8.219 1.685,5.584 2.45,10.876 2.459,16.721 0.003,1.931 -2.997,1.934 -3,0 -0.008,-5.453 -0.801,-10.71 -2.352,-15.924 -0.641,-2.154 -1.504,-4.232 -2.145,-6.388 -0.321,-1.082 -0.605,-4.73 -1.341,-5.514 0.606,0.078 1.212,0.156 1.818,0.234 -4.192,3.036 -9.082,4.77 -13.457,7.567 -3.078,1.968 -5.804,5.672 -9.149,6.967 -1.802,0.698 -2.582,-2.201 -0.798,-2.892 v 0"
           style="fill:#000000;fill-opacity:1;fill-rule:nonzero;stroke:none;stroke-width:0.1"
           id="path172" /><path
           d="m 528.71459,484.13882 c 4.284,-5.37 10.566,-6.999 15.863,-11.04 2.366,-1.804 4.5,-3.365 7.093,-4.827 1.442,-0.813 4.286,-3.089 6.187,-2.674 1.324,0.29 1.474,1.076 1.863,2.283 1.252,3.89 1.695,8.107 2.976,12.043 2.106,6.473 4.494,12.415 4.356,19.296 -0.039,1.928 -3.039,1.935 -3,0 0.103,-5.144 -1.297,-10.104 -3.015,-14.907 -1.069,-2.988 -2.053,-6.009 -2.847,-9.082 -0.257,-0.994 -0.612,-4.79 -1.218,-5.56 -0.851,-1.08 -0.021,-0.759 -1.741,0.027 -4.316,1.973 -7.6,5.28 -11.556,7.765 -4.684,2.941 -9.256,4.305 -12.84,8.797 -1.204,1.508 -3.314,-0.626 -2.121,-2.121 v 0"
           style="fill:#000000;fill-opacity:1;fill-rule:nonzero;stroke:none;stroke-width:0.1"
           id="path174" /><path
           d="m 535.30359,461.18082 c 4.343,-2.748 7.165,-4.93 12.191,-6.231 2.241,-0.581 4.49,-1.042 6.74,-1.571 2.391,-0.561 4.509,-1.683 6.861,-2.343 0.849,-0.238 1.539,0.299 1.845,1.048 1.863,4.558 3.712,9.145 5.817,13.614 2.098,4.453 4.789,7.655 5.063,12.733 0.105,1.929 -2.896,1.923 -3,0 -0.277,-5.142 -3.994,-9.547 -5.951,-14.223 -1.594,-3.807 -3.262,-7.512 -4.822,-11.327 0.615,0.349 1.231,0.699 1.845,1.048 -4.013,1.126 -7.839,2.456 -11.938,3.467 -2.599,0.641 -5.378,1.151 -7.723,2.509 -1.886,1.092 -3.563,2.695 -5.414,3.866 -1.637,1.035 -3.144,-1.56 -1.514,-2.59 v 0"
           style="fill:#000000;fill-opacity:1;fill-rule:nonzero;stroke:none;stroke-width:0.1"
           id="path176" /></g></g><g
       id="g88265"
       transform="matrix(0.08107617,-0.33542363,0.33542363,0.08107617,278.95114,1130.0263)"><path
         d="m 696.02879,1049.1063 c 0.094,0.234 0.187,0.467 0.28,0.699 -0.426,-0.36 -0.853,-0.721 -1.28,-1.083 15.335,-9.751 30.385,-19.842 42.497,-33.56 11.137,-12.614 21.766,-26.26397 30.214,-40.83597 16.149,-27.856 25.17,-60.014 27.084,-92.0699 0.1,-1.6633 1.867,0.5828 1.81,1.532 -1.902,31.8569 -10.757,63.6049 -26.478,91.4509 -8.723,15.449 -19.951,29.90797 -31.749,43.12697 -12.059,13.51 -27.021,23.464 -42.196,33.114 -0.513,0.325 -1.163,-0.791 -1.281,-1.083 -0.093,-0.233 -0.186,-0.467 -0.28,-0.7 -0.663,-1.658 0.704,-2.277 1.379,-0.591 v 0"
         style="fill:#000000;fill-opacity:1;fill-rule:nonzero;stroke:none;stroke-width:0.0999997"
         id="path386" /><path
         d="m 795.36379,891.31033 c 4.704,-2.0058 6.852,-7.6488 7.657,-12.3769 0.678,-3.9782 1.04,-11.4911 -1.027,-15.2 0.366,0.2418 0.732,0.4839 1.098,0.7281 -3.98,2.3508 -7.663,7.7547 -10.243,11.5019 -1.33,1.9289 -2.825,3.977 -3.331,6.3028 -0.354,1.6332 1.385,13.4953 5.323,10.2773 0.922,-0.7551 2.248,1.8949 1.505,2.502 -5.272,4.3097 -8.821,-7.9801 -8.856,-11.7711 -0.037,-4.0172 2.016,-7.175 4.235,-10.3629 2.615,-3.7551 6.219,-8.8641 10.186,-11.2082 0.4,-0.2371 0.951,0.4621 1.098,0.7269 2.448,4.3922 2.541,11.7141 2.058,16.6172 -0.55,5.568 -3.013,12.6719 -8.521,15.0211 -0.958,0.4078 -2.146,-2.3472 -1.182,-2.7582 v 0"
         style="fill:#000000;fill-opacity:1;fill-rule:nonzero;stroke:none;stroke-width:0.0999997"
         id="path388" /><path
         d="m 790.02279,920.50133 c 2.965,1.569 7.39,-1.441 9.862,-2.903 2.22,-1.312 7.53,-4.008 8.298,-6.717 0.355,-1.253 1.976,1.167 1.716,2.083 -0.919,3.241 -6.216,5.841 -8.831,7.391 -2.793,1.655 -7.37,4.599 -10.72,2.824 -0.829,-0.438 -1.482,-3.292 -0.325,-2.678 v 0"
         style="fill:#000000;fill-opacity:1;fill-rule:nonzero;stroke:none;stroke-width:0.0999997"
         id="path390" /><path
         d="m 799.05979,918.87133 c 0.56,3.967 7.865,1.883 9.86,1.038 2.994,-1.266 5.815,-3.183 7.971,-5.629 2.776,-3.148 5.784,-10.3462 5.111,-14.7797 0.495,0.6066 0.99,1.2128 1.484,1.8187 -4.086,1.998 -8.528,4.1699 -12.437,6.4859 -3.252,1.9281 -13.839,6.8901 -11.957,12.1941 0.593,1.669 -0.767,2.312 -1.377,0.591 -1.679,-4.729 1.657,-9.076 5.567,-11.6358 5.939,-3.8911 12.664,-7.2832 19.022,-10.3922 0.803,-0.3918 1.412,1.3371 1.485,1.8191 0.485,3.1949 -0.946,7.759 -2.036,10.7039 -1.584,4.277 -4.726,7.672 -8.597,10.026 -5.193,3.158 -14.725,5.093 -15.883,-3.122 -0.272,-1.931 1.635,-0.2 1.787,0.882 v 0"
         style="fill:#000000;fill-opacity:1;fill-rule:nonzero;stroke:none;stroke-width:0.0999997"
         id="path392" /><path
         d="m 784.58379,942.45033 c -1.416,0.315 -2.276,-0.493 -3.293,-1.43 -2.919,-2.684 -5.198,-6.487 -7.62,-9.624 -3.178,-4.114 -5.521,-9.91 -6.035,-15.101 -0.192,-1.946 1.679,-0.221 1.788,0.88 0.443,4.485 2.67,9.383 5.295,12.893 1.475,1.974 6.248,10.167 8.682,9.624 1.077,-0.24 2.109,2.551 1.183,2.758 v 0"
         style="fill:#000000;fill-opacity:1;fill-rule:nonzero;stroke:none;stroke-width:0.0999997"
         id="path394" /><path
         d="m 771.86879,928.56433 c 0.538,0.454 2.007,-5.528 2.055,-6.097 0.226,-2.68 -0.457,-5.249 -1.499,-7.691 -0.717,-1.685 -4.834,-10.6449 -7.209,-8.9629 -0.592,0.42 -1.545,7.8399 -1.548,7.8759 -0.342,3.691 2.097,15.374 7.847,14.028 1.073,-0.251 2.114,2.54 1.183,2.758 -5.434,1.272 -8.528,-6.532 -9.767,-10.427 -1.03,-3.24 -1.386,-6.393 -0.766,-9.761 0.457,-2.4879 0.565,-6.5711 1.952,-8.7289 0.209,-0.325 0.607,-0.082 0.823,0.068 6.802,4.7239 16.465,22.872 7.659,29.677 -0.178,0.138 -0.545,-0.097 -0.661,-0.195 -0.069,-0.059 -0.138,-0.117 -0.208,-0.176 -0.722,-0.609 -1.136,-3.443 0.139,-2.368 v 0"
         style="fill:#000000;fill-opacity:1;fill-rule:nonzero;stroke:none;stroke-width:0.0999997"
         id="path396" /><path
         d="m 776.41379,961.90533 c 3.313,4.213 13.54,1.226 17.653,0.075 2.115,-0.592 4.372,-1.23 6.341,-2.206 1.296,-0.643 2.279,-1.643 3.742,-1.826 0.941,-0.117 1.965,2.667 0.774,2.816 -1.194,0.15 -2.277,1.242 -3.334,1.767 -1.34,0.664 -2.811,1.072 -4.23,1.532 -3.199,1.039 -6.504,1.73 -9.84,2.176 -4.258,0.57 -8.824,1.225 -11.7,-2.433 -0.673,-0.856 -0.61,-3.433 0.594,-1.901 v 0"
         style="fill:#000000;fill-opacity:1;fill-rule:nonzero;stroke:none;stroke-width:0.0999997"
         id="path398" /><path
         d="m 789.10579,964.84633 c 2.97,9.015 14.372,4.002 18.896,-0.139 3.389,-3.103 7.589,-7.975 9.41,-12.248 0.415,0.816 0.83,1.632 1.245,2.449 -2.006,-0.568 -4.294,0.212 -6.334,0.521 -3.295,0.499 -6.512,0.854 -9.714,1.795 -2.303,0.677 -14.188,4.532 -12.838,8.258 0.605,1.667 -0.757,2.307 -1.379,0.591 -1.87,-5.16 2.959,-7.575 7.108,-9.48 3.943,-1.81 8.222,-2.862 12.491,-3.524 2.902,-0.45 6.944,-1.811 9.892,-0.978 0.806,0.228 1.598,1.624 1.246,2.45 -1.361,3.192 -3.92,6.029 -6.05,8.731 -3.01,3.821 -6.676,7.112 -11.398,8.579 -6.558,2.037 -12.074,-0.659 -14.218,-7.168 -0.633,-1.921 1.205,-1.167 1.643,0.163 v 0"
         style="fill:#000000;fill-opacity:1;fill-rule:nonzero;stroke:none;stroke-width:0.0999997"
         id="path400" /><path
         d="m 762.45979,985.39733 c -2.945,-3.348 -4.827,-7.139 -6.182,-11.371 -1.484,-4.639 -1.189,-9.751 -2.654,-14.294 -0.621,-1.924 1.213,-1.172 1.643,0.163 0.852,2.643 0.774,5.735 1.243,8.484 0.944,5.519 2.794,10.854 6.543,15.116 0.733,0.832 0.698,3.369 -0.593,1.902 v 0"
         style="fill:#000000;fill-opacity:1;fill-rule:nonzero;stroke:none;stroke-width:0.0999997"
         id="path402" /><path
         d="m 755.63579,968.51733 c 5.437,-1.008 3.395,-9.019 1.976,-12.56 -1.51,-3.768 -3.573,-7.116 -5.94,-10.389 0.401,-0.062 0.801,-0.123 1.203,-0.185 0.107,4.042 -1.849,7.794 -2.181,11.812 -0.206,2.487 1.261,14.315 6.047,11.684 0.87,-0.479 2.134,2.234 1.183,2.757 -4.376,2.406 -7.347,-4.575 -8.341,-7.853 -0.869,-2.868 -0.941,-5.826 -0.62,-8.779 0.408,-3.762 2.202,-7.374 2.1,-11.153 -0.022,-0.872 0.838,-0.689 1.203,-0.184 3.565,4.93 6.88,10.4 8.253,16.418 0.903,3.955 1.406,10.243 -3.7,11.19 -1.093,0.202 -2.094,-2.589 -1.183,-2.758 v 0"
         style="fill:#000000;fill-opacity:1;fill-rule:nonzero;stroke:none;stroke-width:0.0999997"
         id="path404" /><path
         d="m 752.58479,999.74333 c 0.538,1.56397 9.401,0.88897 10.752,0.86597 4.621,-0.081 8.018,-1.73397 12.255,-3.08897 1.027,-0.328 2.137,2.452 1.182,2.75797 -3.126,0.999 -5.892,2.481 -9.224,2.933 -2.609,0.352 -5.295,0.251 -7.919,0.19 -3.699,-0.086 -7.345,0.086 -8.69,-3.82097 -0.658,-1.912 1.19,-1.155 1.644,0.163 v 0"
         style="fill:#000000;fill-opacity:1;fill-rule:nonzero;stroke:none;stroke-width:0.0999997"
         id="path406" /><path
         d="m 764.80679,999.85233 c -1.65,2.08697 2.482,4.57097 3.784,5.05397 0.9,0.334 2.238,0.366 3.207,0.318 2.826,-0.14 5.526,-1.203 7.946,-2.628 3.447,-2.029 8.912,-6.86597 9.879,-11.06197 0.34,0.794 0.68,1.587 1.02,2.381 -1.722,-0.889 -5.207,-0.117 -7.097,-0.012 -2.531,0.141 -4.904,0.801 -7.386,1.207 -1.357,0.223 -2.704,0.156 -4.061,0.298 -3.084,0.321 -5.253,1.99 -7.609,3.874 -0.448,-0.877 -0.897,-1.753 -1.344,-2.63 0.057,-0.045 0.114,-0.09 0.171,-0.135 0.701,-0.552 2.067,2.061 1.183,2.757 -0.058,0.045 -0.115,0.09 -0.172,0.135 -0.691,0.544 -2.059,-2.058 -1.344,-2.629 1.732,-1.385 3.568,-3.024 5.703,-3.752 2.399,-0.818 5.174,-0.477 7.654,-0.96 2.41,-0.471 4.646,-0.901 7.118,-1.017 1.975,-0.092 5.073,-0.738 6.859,0.184 0.771,0.397 1.209,1.564 1.021,2.381 -0.787,3.416 -4.948,7.77497 -7.618,9.84897 -3.889,3.019 -8.732,5.208 -13.724,4.371 -3.899,-0.655 -10.063,-6.229 -6.697,-10.48597 0.678,-0.856 2.138,1.703 1.507,2.502 v 0"
         style="fill:#000000;fill-opacity:1;fill-rule:nonzero;stroke:none;stroke-width:0.0999997"
         id="path408" /><path
         d="m 737.36879,1017.0423 c -4.337,-3.701 -6.362,-9.372 -8.244,-14.604 -1.025,-2.84897 -1.837,-5.79897 -2.018,-8.83497 -0.15,-2.531 0.722,-5.65 0.034,-8.105 -0.544,-1.945 1.262,-1.204 1.644,0.163 1.056,3.775 -0.2,8.032 0.557,11.928 1.074,5.51797 3.783,13.34597 8.166,17.08497 0.717,0.612 1.128,3.449 -0.139,2.368 v 0"
         style="fill:#000000;fill-opacity:1;fill-rule:nonzero;stroke:none;stroke-width:0.0999997"
         id="path410" /><path
         d="m 730.32479,1003.7433 c 1.672,-5.00097 4.35,-9.90797 3.366,-15.30697 -0.792,-4.344 -2.665,-8.316 -4.543,-12.269 0.36,0.37 0.718,0.741 1.076,1.112 -1.997,-0.027 -4.846,2.928 -5.914,4.333 -2.13701,2.814 -2.391,6.273 -1.7,9.614 0.731,3.531 2.122,7.188 4.786,9.68797 1.478,1.386 2.722,1.823 4.03,3.372 0.712,0.841 0.667,3.392 -0.593,1.901 -1.071,-1.265 -2.882,-1.925 -4.074,-3.12 -1.218,-1.223 -2.292,-2.855 -3.115,-4.37197 -1.559,-2.874 -2.64701,-6.355 -3.09,-9.596 -0.40001,-2.932 -0.079,-5.802 1.345,-8.437 1.233,-2.281 4.74,-6.237 7.552,-6.199 0.509,0.01 0.897,0.736 1.076,1.112 2.045,4.305 4.34,8.728 5.194,13.489 1.046,5.834 -1.893,11.41897 -3.679,16.76097 -0.421,1.259 -2.02,-1.177 -1.717,-2.082 v 0"
         style="fill:#000000;fill-opacity:1;fill-rule:nonzero;stroke:none;stroke-width:0.0999997"
         id="path412" /></g><g
       id="g8880"
       transform="rotate(180,716.51952,948.96431)"><path
         style="fill:#000000;stroke:#000000;stroke-width:0.0606586;stroke-miterlimit:1"
         d="m 790.69154,882.78251 c -0.53155,0.24772 -1.09427,0.9315 -1.43368,1.74217 -0.73613,1.75808 -1.02047,4.27298 -0.89076,7.87853 0.11249,3.12697 0.41555,5.25562 1.24632,8.75422 0.14711,0.6195 0.25533,1.1385 0.24049,1.15335 -0.0149,0.015 -0.22564,-0.12855 -0.46845,-0.3186 -3.15881,-2.47222 -5.50639,-3.88665 -8.20579,-4.94377 -1.97426,-0.77325 -3.24692,-1.09178 -4.55193,-1.13948 -1.3551,-0.0495 -1.96188,0.11678 -2.59793,0.71175 -0.65002,0.60803 -0.88741,1.21808 -0.88741,2.28045 0,0.99653 0.21056,1.8864 0.73621,3.11145 1.41595,3.29993 4.67689,7.1742 8.18061,9.71933 2.91734,2.1192 5.62472,3.3939 8.69061,4.09177 0.54145,0.1233 1.00718,0.2442 1.03497,0.26865 0.13808,0.12173 -4.36533,0.66345 -7.11725,0.85613 -0.65054,0.0457 -2.50586,0.0758 -4.79204,0.0781 -3.91703,0.008 -4.89359,-0.0382 -7.73398,-0.33337 -5.62699,-0.58478 -10.9274,-1.7454 -16.28685,-3.56625 -2.84906,-0.96795 -5.46183,-2.03753 -8.78359,-3.59558 -0.84419,-0.396 -1.6029,-0.71992 -1.68604,-0.71992 -0.21316,0 -0.44893,0.25492 -0.44893,0.4854 0,0.28005 0.19984,0.42645 1.3594,0.9957 7.90799,3.88267 16.43464,6.38377 25.02712,7.3413 3.56321,0.39712 5.48677,0.48495 9.6144,0.43905 4.27719,-0.0472 6.81838,-0.26205 11.22185,-0.9471 0.83406,-0.12975 1.52517,-0.22733 1.53582,-0.2169 0.0107,0.0105 -0.0712,0.0883 -0.18198,0.17325 -1.57172,1.20465 -2.39685,1.94257 -3.30095,2.9523 -2.24849,2.51107 -3.8941,5.40975 -5.06157,8.9157 -0.68194,2.04787 -1.16276,4.26067 -1.32689,6.10657 -0.0975,1.09665 -0.0834,3.51765 0.0253,4.34693 0.26727,2.03887 1.09284,3.54952 2.26345,4.1418 0.28653,0.14497 0.43076,0.17542 0.92529,0.1953 0.67047,0.027 1.05107,-0.0593 1.69071,-0.3837 1.47356,-0.747 3.51528,-2.86665 5.21087,-5.40983 1.01287,-1.5192 2.0658,-3.52155 2.8173,-5.35762 0.18435,-0.45038 0.42298,-1.03245 0.5303,-1.29353 0.10732,-0.26107 0.21602,-0.45217 0.24157,-0.42465 0.0256,0.0277 0.16064,0.45953 0.30022,0.96 1.74469,6.25515 5.10746,12.4404 7.9687,14.65718 0.79066,0.61252 1.21397,0.79807 1.89218,0.8292 0.47015,0.0217 0.58762,0.007 0.83039,-0.1077 0.75444,-0.35468 1.31211,-1.38893 1.5381,-2.8527 0.10767,-0.69735 0.12262,-3.4905 0.0265,-4.94738 -0.41615,-6.3066 -2.4422,-12.92722 -5.68834,-18.58815 -0.94006,-1.63942 -2.12293,-3.40515 -3.16957,-4.73137 -0.30278,-0.3837 -0.64618,-0.83723 -0.76312,-1.00785 l -0.21263,-0.31028 0.15251,-1.08487 c 0.30408,-2.16315 0.34832,-2.76668 0.3819,-5.20965 0.0448,-3.25973 -0.0863,-5.22405 -0.52701,-7.89938 -0.73025,-4.43257 -2.02338,-8.41552 -4.0426,-12.45165 -1.50532,-3.00892 -2.7289,-4.65705 -3.87712,-5.22255 -0.53529,-0.26362 -1.23166,-0.31507 -1.64665,-0.12172 z"
         id="path88105" /><path
         id="rect8867"
         style="fill:#000000;stroke:none;stroke-width:2.83465;stroke-miterlimit:1"
         d="m 805.22989,919.08118 c -0.0981,0.005 -0.1971,0.003 -0.29595,-0.006 -0.26355,-0.0244 -0.52755,-0.10133 -0.77633,-0.23438 l -3.96097,-2.11815 v -4.69192 l 5.01855,-1.2363 c 1.09597,-0.27 2.19682,0.39525 2.46682,1.49115 0.27,1.09605 -0.39525,2.1954 -1.49122,2.4654 l -0.7119,0.17572 0.6006,0.32085 c 0.99525,0.53235 1.36882,1.76303 0.8364,2.75828 -0.34935,0.65317 -0.99923,1.03815 -1.686,1.0752 z" /></g><g
       id="g8886"
       transform="translate(-200.65892,79.584211)"><path
         style="fill:#000000;stroke:#000000;stroke-width:0.0606586;stroke-miterlimit:1"
         d="m 790.69154,882.78251 c -0.53155,0.24772 -1.09427,0.9315 -1.43368,1.74217 -0.73613,1.75808 -1.02047,4.27298 -0.89076,7.87853 0.11249,3.12697 0.41555,5.25562 1.24632,8.75422 0.14711,0.6195 0.25533,1.1385 0.24049,1.15335 -0.0149,0.015 -0.22564,-0.12855 -0.46845,-0.3186 -3.15881,-2.47222 -5.50639,-3.88665 -8.20579,-4.94377 -1.97426,-0.77325 -3.24692,-1.09178 -4.55193,-1.13948 -1.3551,-0.0495 -1.96188,0.11678 -2.59793,0.71175 -0.65002,0.60803 -0.88741,1.21808 -0.88741,2.28045 0,0.99653 0.21056,1.8864 0.73621,3.11145 1.41595,3.29993 4.67689,7.1742 8.18061,9.71933 2.91734,2.1192 5.62472,3.3939 8.69061,4.09177 0.54145,0.1233 1.00718,0.2442 1.03497,0.26865 0.13808,0.12173 -4.36533,0.66345 -7.11725,0.85613 -0.65054,0.0457 -2.50586,0.0758 -4.79204,0.0781 -3.91703,0.008 -4.89359,-0.0382 -7.73398,-0.33337 -5.62699,-0.58478 -10.9274,-1.7454 -16.28685,-3.56625 -2.84906,-0.96795 -5.46183,-2.03753 -8.78359,-3.59558 -0.84419,-0.396 -1.6029,-0.71992 -1.68604,-0.71992 -0.21316,0 -0.44893,0.25492 -0.44893,0.4854 0,0.28005 0.19984,0.42645 1.3594,0.9957 7.90799,3.88267 16.43464,6.38377 25.02712,7.3413 3.56321,0.39712 5.48677,0.48495 9.6144,0.43905 4.27719,-0.0472 6.81838,-0.26205 11.22185,-0.9471 0.83406,-0.12975 1.52517,-0.22733 1.53582,-0.2169 0.0107,0.0105 -0.0712,0.0883 -0.18198,0.17325 -1.57172,1.20465 -2.39685,1.94257 -3.30095,2.9523 -2.24849,2.51107 -3.8941,5.40975 -5.06157,8.9157 -0.68194,2.04787 -1.16276,4.26067 -1.32689,6.10657 -0.0975,1.09665 -0.0834,3.51765 0.0253,4.34693 0.26727,2.03887 1.09284,3.54952 2.26345,4.1418 0.28653,0.14497 0.43076,0.17542 0.92529,0.1953 0.67047,0.027 1.05107,-0.0593 1.69071,-0.3837 1.47356,-0.747 3.51528,-2.86665 5.21087,-5.40983 1.01287,-1.5192 2.0658,-3.52155 2.8173,-5.35762 0.18435,-0.45038 0.42298,-1.03245 0.5303,-1.29353 0.10732,-0.26107 0.21602,-0.45217 0.24157,-0.42465 0.0256,0.0277 0.16064,0.45953 0.30022,0.96 1.74469,6.25515 5.10746,12.4404 7.9687,14.65718 0.79066,0.61252 1.21397,0.79807 1.89218,0.8292 0.47015,0.0217 0.58762,0.007 0.83039,-0.1077 0.75444,-0.35468 1.31211,-1.38893 1.5381,-2.8527 0.10767,-0.69735 0.12262,-3.4905 0.0265,-4.94738 -0.41615,-6.3066 -2.4422,-12.92722 -5.68834,-18.58815 -0.94006,-1.63942 -2.12293,-3.40515 -3.16957,-4.73137 -0.30278,-0.3837 -0.64618,-0.83723 -0.76312,-1.00785 l -0.21263,-0.31028 0.15251,-1.08487 c 0.30408,-2.16315 0.34832,-2.76668 0.3819,-5.20965 0.0448,-3.25973 -0.0863,-5.22405 -0.52701,-7.89938 -0.73025,-4.43257 -2.02338,-8.41552 -4.0426,-12.45165 -1.50532,-3.00892 -2.7289,-4.65705 -3.87712,-5.22255 -0.53529,-0.26362 -1.23166,-0.31507 -1.64665,-0.12172 z"
         id="path8882" /><path
         id="path8884"
         style="fill:#000000;stroke:none;stroke-width:2.83465;stroke-miterlimit:1"
         d="m 805.22989,919.08118 c -0.0981,0.005 -0.1971,0.003 -0.29595,-0.006 -0.26355,-0.0244 -0.52755,-0.10133 -0.77633,-0.23438 l -3.96097,-2.11815 v -4.69192 l 5.01855,-1.2363 c 1.09597,-0.27 2.19682,0.39525 2.46682,1.49115 0.27,1.09605 -0.39525,2.1954 -1.49122,2.4654 l -0.7119,0.17572 0.6006,0.32085 c 0.99525,0.53235 1.36882,1.76303 0.8364,2.75828 -0.34935,0.65317 -0.99923,1.03815 -1.686,1.0752 z" /></g></g></svg>
