<?xml version="1.0" encoding="UTF-8" standalone="no"?>
<svg
   xmlns:dc="http://purl.org/dc/elements/1.1/"
   xmlns:cc="http://creativecommons.org/ns#"
   xmlns:rdf="http://www.w3.org/1999/02/22-rdf-syntax-ns#"
   xmlns:svg="http://www.w3.org/2000/svg"
   xmlns="http://www.w3.org/2000/svg"
   xmlns:sodipodi="http://sodipodi.sourceforge.net/DTD/sodipodi-0.dtd"
   xmlns:inkscape="http://www.inkscape.org/namespaces/inkscape"
   width="19.5in"
   height="11in"
   viewBox="0 0 495.3 279.40001"
   version="1.1"
   id="svg27734"
   inkscape:version="1.0.1 (3bc2e813f5, 2020-09-07)"
   sodipodi:docname="FrontFlipDELETE.svg">
  <defs
     id="defs27728" />
  <sodipodi:namedview
     id="base"
     pagecolor="#ffffff"
     bordercolor="#00ff00"
     borderopacity="1"
     inkscape:pageopacity="0.0"
     inkscape:pageshadow="2"
     inkscape:zoom="1.4"
     inkscape:cx="343.48816"
     inkscape:cy="242.30014"
     inkscape:document-units="mm"
     inkscape:current-layer="layer1"
     inkscape:document-rotation="0"
     showgrid="false"
     units="in"
     inkscape:pagecheckerboard="false"
     inkscape:showpageshadow="false"
     borderlayer="false"
     inkscape:window-width="1918"
     inkscape:window-height="1008"
     inkscape:window-x="663"
     inkscape:window-y="793"
     inkscape:window-maximized="0" />
  <metadata
     id="metadata27731">
    <rdf:RDF>
      <cc:Work
         rdf:about="">
        <dc:format>image/svg+xml</dc:format>
        <dc:type
           rdf:resource="http://purl.org/dc/dcmitype/StillImage" />
        <dc:title></dc:title>
      </cc:Work>
    </rdf:RDF>
  </metadata>
  <g
     inkscape:label="Layer 1"
     inkscape:groupmode="layer"
     id="layer1">
    <g
       id="g1347">
      <path
         style="fill:none;stroke:#000000;stroke-width:1"
         d="m 62.19,37.1 v 4.3307 h -6 v 10.1957 h 6 v 10.3757 h -6 v 10.1958 h 6 v 10.3757 h -6 v 10.1957 h 6 V 97.1"
         id="path1251" />
      <path
         style="fill:none;stroke:#000000;stroke-width:1"
         d="M 62.19,97.1 H 49.835 v 0 h -12.49 v 0 h -12.31 v 0 h -12.49 v 0 H 0.19"
         id="path1253" />
      <path
         style="fill:none;stroke:#000000;stroke-width:1"
         d="m 0.19,97.1 v -4.3307 h 6 V 82.5736 h -6 V 72.1979 h 6 V 62.0021 h -6 V 51.6264 h 6 V 41.4307 h -6 V 37.1"
         id="path1255" />
    </g>
    <g
       id="panel2092">
      <path
         style="fill:none;stroke:#000000;stroke-width:1"
         d="M 0.1 0.1 L 12.545 0.1 L 12.545 6.1 L 24.855 6.1 L 24.855 0.1 L 37.345 0.1 L 37.345 6.1 L 49.655 6.1 L 49.655 0.1 L 62.1 0.1"
         id="path1267" />
      <path
         style="fill:none;stroke:#000000;stroke-width:1"
         d="M 62.1 0.1 L 62.1 12.4783 L 56.1 12.4783 L 56.1 24.7217 L 62.1 24.7217 L 62.1 37.1"
         id="path1269" />
      <path
         style="fill:none;stroke:#000000;stroke-width:1"
         d="M 62.1 37.1 L 49.655 37.1 L 49.655 31.1 L 37.345 31.1 L 37.345 37.1 L 24.855 37.1 L 24.855 31.1 L 12.545 31.1 L 12.545 37.1 L 0.1 37.1"
         id="path1271" />
      <path
         style="fill:none;stroke:#000000;stroke-width:1"
         d="M 0.1 37.1 L 0.1 24.7217 L 6.1 24.7217 L 6.1 12.4783 L 0.1 12.4783 L 0.1 0.1"
         id="path1273" />
    </g>
    <g
       aria-label="WEN RC"
       id="text1340"
       style="font-size:11.2889px;line-height:1.25;font-family:Michroma;-inkscape-font-specification:'Michroma, Normal';text-align:center;writing-mode:lr-tb;text-anchor:middle;fill:#ff0000;stroke-width:1;stroke-miterlimit:0.8"
       transform="rotate(180,31.19,67.350005)">
      <path
         d="m 19.766052,55.972908 h 1.234723 l 3.439587,7.584729 3.351392,-7.584729 h 1.234724 l -3.88056,8.466675 h -1.411112 l -3.351393,-7.408341 -3.351392,7.408341 h -1.411112 l -4.233338,-8.466675 h 1.234723 l 3.704171,7.584729 z"
         style="text-align:center;text-anchor:middle;stroke-width:1"
         id="path1349" />
      <path
         d="m 30.43759,64.439583 v -8.466675 h 8.466676 v 0.881945 h -7.408341 v 2.822225 h 7.055563 v 0.881945 h -7.055563 v 2.998614 h 7.408341 v 0.881946 z"
         style="text-align:center;text-anchor:middle;stroke-width:1"
         id="path1351" />
      <path
         d="m 41.373713,64.439583 h -1.058334 v -8.466675 h 1.857597 l 7.761119,7.40834 v -7.40834 h 1.058335 v 8.466675 h -1.411113 l -8.207604,-7.58473 z"
         style="text-align:center;text-anchor:middle;stroke-width:1"
         id="path1353" />
      <path
         d="m 30.663589,78.550708 h -1.058335 v -1.587501 q 0,-0.385851 -0.01654,-0.661459 -0.01102,-0.28112 -0.09371,-0.479558 -0.07717,-0.198438 -0.248047,-0.319705 -0.170877,-0.121268 -0.48507,-0.187414 -0.314193,-0.06615 -0.799263,-0.08819 -0.479558,-0.02756 -1.185114,-0.02756 h -4.756993 v 3.351392 H 20.96219 v -8.466675 h 5.991716 q 0.97014,0 1.631599,0.07166 0.666971,0.06615 1.09692,0.20395 0.43546,0.137804 0.666971,0.341754 0.237023,0.20395 0.341754,0.479558 0.110243,0.275607 0.126779,0.617361 0.02205,0.341754 0.02205,0.755166 0,0.529167 -0.07717,0.931555 -0.07166,0.396875 -0.248048,0.677995 -0.176389,0.28112 -0.468533,0.451997 -0.292144,0.165365 -0.733117,0.231511 0.440973,0.06615 0.705556,0.231511 0.264584,0.165364 0.4079,0.429948 0.143316,0.264583 0.187413,0.628386 0.04961,0.363802 0.04961,0.826824 z m -8.643065,-4.233337 h 4.933382 q 0.705556,0 1.185114,-0.02205 0.48507,-0.02756 0.799263,-0.09371 0.314193,-0.06615 0.48507,-0.187413 0.170877,-0.121268 0.248047,-0.319705 0.08268,-0.198438 0.09371,-0.474046 0.01654,-0.28112 0.01654,-0.666971 0,-0.35829 -0.01654,-0.617362 -0.01102,-0.259071 -0.09371,-0.43546 -0.07717,-0.176389 -0.248047,-0.28112 -0.170877,-0.104731 -0.48507,-0.159853 -0.314193,-0.06063 -0.799263,-0.07717 -0.479558,-0.01654 -1.185114,-0.01654 h -4.933382 z"
         style="text-align:center;text-anchor:middle;stroke-width:1"
         id="path1355" />
      <path
         d="m 41.41781,72.729869 q 0,-0.661459 -0.143316,-1.04731 -0.143316,-0.385851 -0.474046,-0.584289 -0.330729,-0.198438 -0.870921,-0.253559 -0.534679,-0.05512 -1.32843,-0.05512 h -2.474959 q -0.705556,0 -1.190626,0.0441 -0.479558,0.03858 -0.793751,0.165364 -0.314193,0.12678 -0.48507,0.363803 -0.170877,0.237023 -0.248047,0.628386 -0.07717,0.391363 -0.08819,0.964628 -0.01102,0.567752 -0.01102,1.361503 0,0.79375 0.01102,1.367015 0.01654,0.567752 0.09371,0.959115 0.07717,0.391364 0.242535,0.628387 0.170877,0.237022 0.48507,0.363802 0.314193,0.12678 0.793751,0.170877 0.48507,0.03858 1.190626,0.03858 h 2.474959 q 0.617362,0 1.063847,-0.03307 0.446485,-0.03307 0.760678,-0.121267 0.314193,-0.08819 0.507118,-0.242535 0.192926,-0.154341 0.297657,-0.385851 0.110243,-0.237023 0.148828,-0.562241 0.03859,-0.330729 0.03859,-0.771702 h 1.058334 q 0,0.529167 -0.06614,0.959116 -0.06615,0.424436 -0.237023,0.760678 -0.165365,0.330729 -0.446485,0.573264 -0.28112,0.242535 -0.711068,0.402388 -0.429949,0.15434 -1.025262,0.225998 -0.595313,0.07717 -1.389064,0.07717 h -2.474959 q -0.97014,0 -1.637111,-0.121267 -0.661459,-0.115755 -1.091407,-0.352778 -0.429949,-0.242535 -0.666972,-0.606338 -0.23151,-0.363802 -0.341753,-0.854384 -0.104731,-0.490582 -0.121268,-1.107944 -0.01654,-0.617362 -0.01654,-1.367015 0,-0.749654 0.01654,-1.367016 0.01654,-0.617361 0.121268,-1.107943 0.110243,-0.490583 0.341753,-0.854385 0.237023,-0.363802 0.666972,-0.600825 0.429948,-0.242535 1.091407,-0.358291 0.666971,-0.121267 1.637111,-0.121267 h 2.474959 q 0.793751,0 1.389064,0.07717 0.595313,0.07166 1.025262,0.225999 0.429948,0.148828 0.711068,0.380339 0.28112,0.23151 0.446485,0.545703 0.170877,0.314193 0.237023,0.711069 0.06614,0.396875 0.06614,0.881945 z"
         style="text-align:center;text-anchor:middle;stroke-width:1"
         id="path1357" />
    </g>
  </g>
</svg>
