<?xml version="1.0" encoding="UTF-8" standalone="no"?>
<svg
   xmlns:dc="http://purl.org/dc/elements/1.1/"
   xmlns:cc="http://creativecommons.org/ns#"
   xmlns:rdf="http://www.w3.org/1999/02/22-rdf-syntax-ns#"
   xmlns:svg="http://www.w3.org/2000/svg"
   xmlns="http://www.w3.org/2000/svg"
   xmlns:sodipodi="http://sodipodi.sourceforge.net/DTD/sodipodi-0.dtd"
   xmlns:inkscape="http://www.inkscape.org/namespaces/inkscape"
   inkscape:version="1.0.2 (e86c870879, 2021-01-15, custom)"
   sodipodi:docname="JigSawHolder.svg"
   id="svg705"
   version="1.1"
   viewBox="0 0 495.30001 279.40001"
   height="11in"
   width="19.5in">
  <defs
     id="defs699" />
  <sodipodi:namedview
     id="base"
     pagecolor="#ffffff"
     bordercolor="#666666"
     borderopacity="1.0"
     inkscape:pageopacity="0.0"
     inkscape:pageshadow="2"
     inkscape:zoom="0.7"
     inkscape:cx="571.6879"
     inkscape:cy="700.78133"
     inkscape:document-units="mm"
     inkscape:current-layer="layer1"
     inkscape:document-rotation="0"
     showgrid="false"
     inkscape:window-width="3840"
     inkscape:window-height="2066"
     inkscape:window-x="-11"
     inkscape:window-y="-11"
     inkscape:window-maximized="1"
     units="in">
    <sodipodi:guide
       position="0,279.40001"
       orientation="0,1872"
       id="guide1564" />
    <sodipodi:guide
       position="495.30001,279.40001"
       orientation="1056,0"
       id="guide1566" />
    <sodipodi:guide
       position="495.30001,0"
       orientation="0,-1872"
       id="guide1568" />
    <sodipodi:guide
       position="0,0"
       orientation="-1056,0"
       id="guide1570" />
  </sodipodi:namedview>
  <metadata
     id="metadata702">
    <rdf:RDF>
      <cc:Work
         rdf:about="">
        <dc:format>image/svg+xml</dc:format>
        <dc:type
           rdf:resource="http://purl.org/dc/dcmitype/StillImage" />
        <dc:title></dc:title>
      </cc:Work>
    </rdf:RDF>
  </metadata>
  <g
     inkscape:label="Layer 1"
     inkscape:groupmode="layer"
     id="layer1">
    <g
       id="g11707">
      <g
         id="panel277"
         transform="translate(-34,-34.000002)">
        <path
           style="fill:none;stroke:#000000;stroke-width:1"
           d="m 34,138 h 8.6217 v -6 h 8.7566 v 6 h 8.5767 v -6 h 8.7567 v 6 h 8.5766 v -6 h 8.7567 v 6 h 8.5767 v -6 h 8.7563 v 6 h 8.577 v -6 h 8.757 v 6 h 8.576 v -6 h 8.757 v 6 h 8.577 v -6 h 8.756 v 6 h 8.577 v -6 h 8.757 v 6 h 8.576 v -6 h 8.757 v 6 h 8.577 v -6 h 8.756 v 6 H 216"
           id="path10826" />
        <path
           style="fill:none;stroke:#000000;stroke-width:1"
           d="m 216,138 v 4.712 h -6 v 10.576 h 6 V 158"
           id="path10828" />
        <path
           style="fill:none;stroke:#000000;stroke-width:1"
           d="m 216,158 h -8.622 v 0 h -8.756 v 0 h -8.577 v 0 h -8.757 v 0 h -8.576 v 0 h -8.757 v 0 h -8.577 v 0 h -8.756 v 0 h -8.577 v 0 h -8.757 v 0 h -8.576 v 0 h -8.757 v 0 h -8.577 v 0 h -8.7563 v 0 H 86.045 v 0 h -8.7567 v 0 h -8.5766 v 0 H 59.955 v 0 h -8.5767 v 0 h -8.7566 v 0 H 34"
           id="path10830" />
        <path
           style="fill:none;stroke:#000000;stroke-width:1"
           d="m 34,158 v -4.712 h 6 V 142.712 H 34 V 138"
           id="path10832" />
      </g>
      <g
         id="g10924"
         transform="translate(-34,-34.000002)">
        <path
           style="fill:none;stroke:#000000;stroke-width:1"
           d="m 243,40 h 4.6217 v -6 h 10.7566 v 6 H 263"
           id="path10835" />
        <path
           style="fill:none;stroke:#000000;stroke-width:1"
           d="m 263,40 v 2.7732 h 6 v 8.9082 h -6 v 8.7281 h 6 v 8.9082 h -6 v 8.7282 h 6 v 8.9082 h -6 v 8.7282 h 6 v 8.9077 h -6 v 8.729 h 6 v 8.908 h -6 V 125"
           id="path10837" />
        <path
           style="fill:none;stroke:#000000;stroke-width:1"
           d="m 263,125 h -4.6217 v 6 h -10.7566 v -6 H 243"
           id="path10839" />
      </g>
      <g
         id="panel5803"
         transform="translate(-34,-34.000002)">
        <path
           style="fill:none;stroke:#000000;stroke-width:1"
           d="m 34,34 h 8.7117 v 6 h 8.5766 v -6 h 8.7567 v 6 h 8.5767 v -6 h 8.7566 v 6 h 8.5767 v -6 h 8.7567 v 6 h 8.5763 v -6 h 8.757 v 6 h 8.577 v -6 h 8.756 v 6 h 8.577 v -6 h 8.757 v 6 h 8.576 v -6 h 8.757 v 6 h 8.577 v -6 h 8.756 v 6 h 8.577 v -6 h 8.757 v 6 h 8.576 V 34 H 216"
           id="path10844" />
        <path
           style="fill:none;stroke:#000000;stroke-width:1"
           d="m 216,34 v 8.8632 h -6 v 8.7282 h 6 v 8.9081 h -6 v 8.7282 h 6 v 8.9082 h -6 v 8.7282 h 6 v 8.9082 h -6 V 104.5 h 6 v 8.909 h -6 v 8.728 h 6 V 131"
           id="path10846" />
        <path
           style="fill:none;stroke:#000000;stroke-width:1"
           d="m 216,131 h -8.712 v -6 h -8.576 v 6 h -8.757 v -6 h -8.577 v 6 h -8.756 v -6 h -8.577 v 6 h -8.757 v -6 h -8.576 v 6 h -8.757 v -6 h -8.577 v 6 h -8.756 v -6 h -8.577 v 6 h -8.757 v -6 h -8.5763 v 6 H 85.955 v -6 h -8.5767 v 6 h -8.7566 v -6 H 60.045 v 6 h -8.7567 v -6 h -8.5766 v 6 H 34"
           id="path10848" />
        <path
           style="fill:none;stroke:#000000;stroke-width:1"
           d="m 34,131 v -8.863 h 6 v -8.728 H 34 V 104.5 h 6 v -8.7277 h -6 v -8.9082 h 6 v -8.7282 h -6 v -8.9082 h 6 v -8.7282 h -6 v -8.9081 h 6 V 42.8632 H 34 V 34"
           id="path10850" />
      </g>
      <g
         id="panel5148"
         transform="translate(-34,-34.000002)">
        <path
           style="fill:none;stroke:#000000;stroke-width:1"
           d="m 223,40 h 4.622 v -6 h 10.756 v 6 H 243"
           id="path10853" />
        <path
           style="fill:none;stroke:#000000;stroke-width:1"
           d="m 243,40 v 2.7732 0 8.9082 0 8.7281 0 8.9082 0 8.7282 0 8.9082 0 8.7282 0 8.9077 0 8.729 0 8.908 0 2.773"
           id="path10855" />
        <path
           style="fill:none;stroke:#000000;stroke-width:1"
           d="m 243,125 h -4.622 v 6 h -10.756 v -6 H 223"
           id="path10857" />
        <path
           style="fill:none;stroke:#000000;stroke-width:1"
           d="m 223,125 v -2.773 h -6 v -8.908 h 6 v -8.729 h -6 v -8.9077 h 6 v -8.7282 h -6 v -8.9082 h 6 v -8.7282 h -6 v -8.9082 h 6 v -8.7281 h -6 v -8.9082 h 6 V 40"
           id="path10859" />
      </g>
      <g
         id="g10911"
         transform="translate(-34,-36.645836)">
        <path
           style="fill:none;stroke:#000000;stroke-width:1"
           d="m 216,160.64585 v 4.7117 h -6 v 10.5766 h 6 v 4.7117"
           id="path10864" />
        <path
           style="fill:none;stroke:#000000;stroke-width:1"
           d="m 216,180.64585 h -8.622 v 6 h -8.756 v -6 h -8.577 v 6 h -8.757 v -6 h -8.576 v 6 h -8.757 v -6 h -8.577 v 6 h -8.756 v -6 h -8.577 v 6 h -8.757 v -6 h -8.576 v 6 h -8.757 v -6 h -8.577 v 6 h -8.7563 v -6 H 86.045 v 6 h -8.7567 v -6 h -8.5766 v 6 H 59.955 v -6 h -8.5767 v 6 h -8.7566 v -6 H 34"
           id="path10866" />
        <path
           style="fill:none;stroke:#000000;stroke-width:1"
           d="m 34,180.64585 v -4.7117 h 6 v -10.5766 h -6 v -4.7117"
           id="path10868" />
      </g>
      <rect
         style="fill:none;stroke:#000000;stroke-width:1;stroke-miterlimit:4;stroke-dasharray:none"
         id="rect10902"
         width="34.794376"
         height="11.794378"
         x="134.79115"
         y="42.60281" />
      <g
         aria-label="DCS334"
         id="text10928"
         style="font-style:normal;font-weight:normal;font-size:10.5833px;line-height:1.25;font-family:sans-serif;letter-spacing:0px;word-spacing:0px;fill:#ff0000;fill-opacity:1;stroke:none;stroke-width:0.264583">
        <path
           d="m 76.79161,69.676826 q 0,1.049028 -0.459919,1.901687 -0.454751,0.852658 -1.214392,1.322912 -0.527098,0.325561 -1.178219,0.470254 -0.645954,0.144694 -1.705317,0.144694 h -1.943028 v -7.694597 h 1.922357 q 1.126543,0 1.787999,0.165364 0.666624,0.160197 1.126543,0.444416 0.785479,0.490925 1.224727,1.30741 0.439249,0.816485 0.439249,1.93786 z m -1.069699,-0.0155 q 0,-0.904335 -0.315225,-1.52445 -0.315226,-0.620115 -0.940508,-0.976681 -0.454752,-0.258382 -0.966347,-0.356567 -0.511595,-0.103352 -1.224727,-0.103352 h -0.961179 v 5.937603 h 0.961179 q 0.73897,0 1.286739,-0.10852 0.552936,-0.10852 1.012855,-0.403075 0.573606,-0.366901 0.857826,-0.966346 0.289387,-0.599445 0.289387,-1.498612 z"
           style="fill:#ff0000;stroke-width:0.264583"
           id="path10930" />
        <path
           d="m 84.388021,72.958269 q -0.284219,0.124023 -0.516762,0.232543 -0.227376,0.10852 -0.599445,0.227376 -0.315225,0.09819 -0.687295,0.165364 -0.366901,0.07235 -0.811317,0.07235 -0.837155,0 -1.52445,-0.232544 -0.682127,-0.23771 -1.188554,-0.73897 -0.496092,-0.490925 -0.775144,-1.245398 -0.279052,-0.759641 -0.279052,-1.762161 0,-0.950843 0.268717,-1.700149 0.268716,-0.749306 0.775144,-1.266069 0.490924,-0.50126 1.183386,-0.764809 0.69763,-0.263549 1.545121,-0.263549 0.620115,0 1.235062,0.149862 0.620116,0.149861 1.374589,0.527098 v 1.214392 h -0.07751 q -0.635618,-0.532266 -1.260901,-0.775144 -0.625283,-0.242879 -1.338415,-0.242879 -0.583942,0 -1.054196,0.191203 -0.465087,0.186034 -0.831988,0.583941 -0.356566,0.387572 -0.558104,0.98185 -0.19637,0.589109 -0.19637,1.364253 0,0.811317 0.217041,1.395259 0.222208,0.583942 0.568439,0.950844 0.361733,0.382404 0.842323,0.568438 0.485757,0.180867 1.02319,0.180867 0.73897,0 1.384924,-0.253213 0.645953,-0.253214 1.209224,-0.759641 h 0.07235 z"
           style="fill:#ff0000;stroke-width:0.264583"
           id="path10932" />
        <path
           d="m 91.426329,71.320131 q 0,0.449584 -0.211873,0.888832 -0.206705,0.439248 -0.583941,0.744138 -0.41341,0.330728 -0.966347,0.516763 -0.547768,0.186035 -1.322912,0.186035 -0.831988,0 -1.498612,-0.155029 -0.661456,-0.155029 -1.34875,-0.459919 V 71.75938 h 0.07235 q 0.583942,0.485756 1.348751,0.749305 0.764809,0.263549 1.4366,0.263549 0.950844,0 1.477942,-0.356566 0.532265,-0.356566 0.532265,-0.950843 0,-0.511595 -0.253214,-0.754474 -0.248046,-0.242878 -0.759641,-0.377236 -0.387572,-0.103353 -0.842323,-0.170532 -0.449583,-0.06718 -0.956011,-0.170532 -1.02319,-0.21704 -1.519282,-0.73897 -0.490925,-0.527098 -0.490925,-1.369422 0,-0.966346 0.816485,-1.581293 0.816485,-0.620116 2.072219,-0.620116 0.811317,0 1.488276,0.155029 0.676959,0.155029 1.19889,0.382405 v 1.209224 h -0.07235 q -0.439248,-0.372069 -1.157549,-0.614947 -0.713132,-0.248046 -1.462438,-0.248046 -0.821653,0 -1.322912,0.341063 -0.496093,0.341063 -0.496093,0.878497 0,0.480589 0.248046,0.754473 0.248047,0.273884 0.873329,0.418578 0.330729,0.07235 0.940508,0.175699 0.60978,0.103353 1.033526,0.211873 0.857826,0.227375 1.291907,0.687294 0.43408,0.459919 0.434079,1.286739 z"
           style="fill:#ff0000;stroke-width:0.264583"
           id="path10934" />
        <path
           d="m 97.400105,69.811184 q 0.248046,0.222208 0.408242,0.558104 0.160197,0.335896 0.160197,0.868161 0,0.527098 -0.191203,0.966346 -0.191202,0.439249 -0.537433,0.764809 -0.387572,0.361734 -0.91467,0.537433 -0.52193,0.170532 -1.147213,0.170532 -0.640786,0 -1.260901,-0.155029 -0.620115,-0.149861 -1.018022,-0.330728 v -1.080034 h 0.07751 q 0.439248,0.289387 1.033525,0.480589 0.594278,0.191203 1.147214,0.191203 0.32556,0 0.692462,-0.10852 0.366901,-0.108521 0.594277,-0.320393 0.23771,-0.227376 0.351398,-0.50126 0.118856,-0.273884 0.118856,-0.692462 0,-0.41341 -0.134359,-0.682127 -0.12919,-0.273884 -0.361733,-0.428913 -0.232544,-0.160196 -0.563272,-0.21704 -0.330728,-0.06201 -0.713132,-0.06201 h -0.465087 v -0.857826 h 0.361734 q 0.785479,0 1.250566,-0.32556 0.470254,-0.330728 0.470254,-0.961179 0,-0.279052 -0.118856,-0.485757 -0.118855,-0.211872 -0.330728,-0.346231 -0.222208,-0.134358 -0.475421,-0.186034 -0.253214,-0.05168 -0.573607,-0.05168 -0.490924,0 -1.04386,0.1757 -0.552937,0.175699 -1.043861,0.496092 h -0.05168 v -1.080034 q 0.366901,-0.180867 0.976681,-0.330728 0.614948,-0.155029 1.188554,-0.155029 0.563272,0 0.992185,0.103353 0.428913,0.103352 0.775144,0.330728 0.372069,0.248046 0.563271,0.599444 0.191202,0.351399 0.191202,0.821653 0,0.640786 -0.454751,1.121375 -0.449584,0.475422 -1.064531,0.599445 v 0.07235 q 0.248046,0.04134 0.568439,0.1757 0.320393,0.12919 0.542601,0.32556 z"
           style="fill:#ff0000;stroke-width:0.264583"
           id="path10936" />
        <path
           d="m 104.12836,69.811184 q 0.24804,0.222208 0.40824,0.558104 0.16019,0.335896 0.16019,0.868161 0,0.527098 -0.1912,0.966346 -0.1912,0.439249 -0.53743,0.764809 -0.38757,0.361734 -0.91467,0.537433 -0.52193,0.170532 -1.14721,0.170532 -0.64079,0 -1.26091,-0.155029 -0.62011,-0.149861 -1.018018,-0.330728 v -1.080034 h 0.07751 q 0.439248,0.289387 1.033528,0.480589 0.59428,0.191203 1.14722,0.191203 0.32556,0 0.69246,-0.10852 0.3669,-0.108521 0.59427,-0.320393 0.23771,-0.227376 0.3514,-0.50126 0.11886,-0.273884 0.11886,-0.692462 0,-0.41341 -0.13436,-0.682127 -0.12919,-0.273884 -0.36173,-0.428913 -0.23255,-0.160196 -0.56328,-0.21704 -0.33072,-0.06201 -0.71313,-0.06201 h -0.46508 v -0.857826 h 0.36173 q 0.78548,0 1.25056,-0.32556 0.47025,-0.330728 0.47025,-0.961179 0,-0.279052 -0.11886,-0.485757 -0.11885,-0.211872 -0.33072,-0.346231 -0.22221,-0.134358 -0.47543,-0.186034 -0.25321,-0.05168 -0.5736,-0.05168 -0.49093,0 -1.04386,0.1757 -0.55294,0.175699 -1.043859,0.496092 h -0.05168 v -1.080034 q 0.366899,-0.180867 0.976679,-0.330728 0.61495,-0.155029 1.18856,-0.155029 0.56327,0 0.99218,0.103353 0.42891,0.103352 0.77514,0.330728 0.37207,0.248046 0.56328,0.599444 0.1912,0.351399 0.1912,0.821653 0,0.640786 -0.45475,1.121375 -0.44959,0.475422 -1.06453,0.599445 v 0.07235 q 0.24804,0.04134 0.56843,0.1757 0.3204,0.12919 0.54261,0.32556 z"
           style="fill:#ff0000;stroke-width:0.264583"
           id="path10938" />
        <path
           d="m 111.70926,71.351137 h -1.14204 v 2.165236 h -0.99219 v -2.165236 h -3.68452 v -1.188554 l 3.72586,-4.340807 h 0.95085 v 4.702541 h 1.14204 z m -2.13423,-0.82682 v -3.472645 l -2.98172,3.472645 z"
           style="fill:#ff0000;stroke-width:0.264583"
           id="path10940" />
      </g>
      <g
         aria-label="DCS334"
         id="g10981"
         style="font-style:normal;font-weight:normal;font-size:10.5833px;line-height:1.25;font-family:sans-serif;letter-spacing:0px;word-spacing:0px;fill:#ff0000;fill-opacity:1;stroke:none;stroke-width:0.264583"
         transform="rotate(90,155.31296,112.81296)">
        <path
           d="m 76.79161,69.676826 q 0,1.049028 -0.459919,1.901687 -0.454751,0.852658 -1.214392,1.322912 -0.527098,0.325561 -1.178219,0.470254 -0.645954,0.144694 -1.705317,0.144694 h -1.943028 v -7.694597 h 1.922357 q 1.126543,0 1.787999,0.165364 0.666624,0.160197 1.126543,0.444416 0.785479,0.490925 1.224727,1.30741 0.439249,0.816485 0.439249,1.93786 z m -1.069699,-0.0155 q 0,-0.904335 -0.315225,-1.52445 -0.315226,-0.620115 -0.940508,-0.976681 -0.454752,-0.258382 -0.966347,-0.356567 -0.511595,-0.103352 -1.224727,-0.103352 h -0.961179 v 5.937603 h 0.961179 q 0.73897,0 1.286739,-0.10852 0.552936,-0.10852 1.012855,-0.403075 0.573606,-0.366901 0.857826,-0.966346 0.289387,-0.599445 0.289387,-1.498612 z"
           style="fill:#ff0000;stroke-width:0.264583"
           id="path10969" />
        <path
           d="m 84.388021,72.958269 q -0.284219,0.124023 -0.516762,0.232543 -0.227376,0.10852 -0.599445,0.227376 -0.315225,0.09819 -0.687295,0.165364 -0.366901,0.07235 -0.811317,0.07235 -0.837155,0 -1.52445,-0.232544 -0.682127,-0.23771 -1.188554,-0.73897 -0.496092,-0.490925 -0.775144,-1.245398 -0.279052,-0.759641 -0.279052,-1.762161 0,-0.950843 0.268717,-1.700149 0.268716,-0.749306 0.775144,-1.266069 0.490924,-0.50126 1.183386,-0.764809 0.69763,-0.263549 1.545121,-0.263549 0.620115,0 1.235062,0.149862 0.620116,0.149861 1.374589,0.527098 v 1.214392 h -0.07751 q -0.635618,-0.532266 -1.260901,-0.775144 -0.625283,-0.242879 -1.338415,-0.242879 -0.583942,0 -1.054196,0.191203 -0.465087,0.186034 -0.831988,0.583941 -0.356566,0.387572 -0.558104,0.98185 -0.19637,0.589109 -0.19637,1.364253 0,0.811317 0.217041,1.395259 0.222208,0.583942 0.568439,0.950844 0.361733,0.382404 0.842323,0.568438 0.485757,0.180867 1.02319,0.180867 0.73897,0 1.384924,-0.253213 0.645953,-0.253214 1.209224,-0.759641 h 0.07235 z"
           style="fill:#ff0000;stroke-width:0.264583"
           id="path10971" />
        <path
           d="m 91.426329,71.320131 q 0,0.449584 -0.211873,0.888832 -0.206705,0.439248 -0.583941,0.744138 -0.41341,0.330728 -0.966347,0.516763 -0.547768,0.186035 -1.322912,0.186035 -0.831988,0 -1.498612,-0.155029 -0.661456,-0.155029 -1.34875,-0.459919 V 71.75938 h 0.07235 q 0.583942,0.485756 1.348751,0.749305 0.764809,0.263549 1.4366,0.263549 0.950844,0 1.477942,-0.356566 0.532265,-0.356566 0.532265,-0.950843 0,-0.511595 -0.253214,-0.754474 -0.248046,-0.242878 -0.759641,-0.377236 -0.387572,-0.103353 -0.842323,-0.170532 -0.449583,-0.06718 -0.956011,-0.170532 -1.02319,-0.21704 -1.519282,-0.73897 -0.490925,-0.527098 -0.490925,-1.369422 0,-0.966346 0.816485,-1.581293 0.816485,-0.620116 2.072219,-0.620116 0.811317,0 1.488276,0.155029 0.676959,0.155029 1.19889,0.382405 v 1.209224 h -0.07235 q -0.439248,-0.372069 -1.157549,-0.614947 -0.713132,-0.248046 -1.462438,-0.248046 -0.821653,0 -1.322912,0.341063 -0.496093,0.341063 -0.496093,0.878497 0,0.480589 0.248046,0.754473 0.248047,0.273884 0.873329,0.418578 0.330729,0.07235 0.940508,0.175699 0.60978,0.103353 1.033526,0.211873 0.857826,0.227375 1.291907,0.687294 0.43408,0.459919 0.434079,1.286739 z"
           style="fill:#ff0000;stroke-width:0.264583"
           id="path10973" />
        <path
           d="m 97.400105,69.811184 q 0.248046,0.222208 0.408242,0.558104 0.160197,0.335896 0.160197,0.868161 0,0.527098 -0.191203,0.966346 -0.191202,0.439249 -0.537433,0.764809 -0.387572,0.361734 -0.91467,0.537433 -0.52193,0.170532 -1.147213,0.170532 -0.640786,0 -1.260901,-0.155029 -0.620115,-0.149861 -1.018022,-0.330728 v -1.080034 h 0.07751 q 0.439248,0.289387 1.033525,0.480589 0.594278,0.191203 1.147214,0.191203 0.32556,0 0.692462,-0.10852 0.366901,-0.108521 0.594277,-0.320393 0.23771,-0.227376 0.351398,-0.50126 0.118856,-0.273884 0.118856,-0.692462 0,-0.41341 -0.134359,-0.682127 -0.12919,-0.273884 -0.361733,-0.428913 -0.232544,-0.160196 -0.563272,-0.21704 -0.330728,-0.06201 -0.713132,-0.06201 h -0.465087 v -0.857826 h 0.361734 q 0.785479,0 1.250566,-0.32556 0.470254,-0.330728 0.470254,-0.961179 0,-0.279052 -0.118856,-0.485757 -0.118855,-0.211872 -0.330728,-0.346231 -0.222208,-0.134358 -0.475421,-0.186034 -0.253214,-0.05168 -0.573607,-0.05168 -0.490924,0 -1.04386,0.1757 -0.552937,0.175699 -1.043861,0.496092 h -0.05168 v -1.080034 q 0.366901,-0.180867 0.976681,-0.330728 0.614948,-0.155029 1.188554,-0.155029 0.563272,0 0.992185,0.103353 0.428913,0.103352 0.775144,0.330728 0.372069,0.248046 0.563271,0.599444 0.191202,0.351399 0.191202,0.821653 0,0.640786 -0.454751,1.121375 -0.449584,0.475422 -1.064531,0.599445 v 0.07235 q 0.248046,0.04134 0.568439,0.1757 0.320393,0.12919 0.542601,0.32556 z"
           style="fill:#ff0000;stroke-width:0.264583"
           id="path10975" />
        <path
           d="m 104.12836,69.811184 q 0.24804,0.222208 0.40824,0.558104 0.16019,0.335896 0.16019,0.868161 0,0.527098 -0.1912,0.966346 -0.1912,0.439249 -0.53743,0.764809 -0.38757,0.361734 -0.91467,0.537433 -0.52193,0.170532 -1.14721,0.170532 -0.64079,0 -1.26091,-0.155029 -0.62011,-0.149861 -1.018018,-0.330728 v -1.080034 h 0.07751 q 0.439248,0.289387 1.033528,0.480589 0.59428,0.191203 1.14722,0.191203 0.32556,0 0.69246,-0.10852 0.3669,-0.108521 0.59427,-0.320393 0.23771,-0.227376 0.3514,-0.50126 0.11886,-0.273884 0.11886,-0.692462 0,-0.41341 -0.13436,-0.682127 -0.12919,-0.273884 -0.36173,-0.428913 -0.23255,-0.160196 -0.56328,-0.21704 -0.33072,-0.06201 -0.71313,-0.06201 h -0.46508 v -0.857826 h 0.36173 q 0.78548,0 1.25056,-0.32556 0.47025,-0.330728 0.47025,-0.961179 0,-0.279052 -0.11886,-0.485757 -0.11885,-0.211872 -0.33072,-0.346231 -0.22221,-0.134358 -0.47543,-0.186034 -0.25321,-0.05168 -0.5736,-0.05168 -0.49093,0 -1.04386,0.1757 -0.55294,0.175699 -1.043859,0.496092 h -0.05168 v -1.080034 q 0.366899,-0.180867 0.976679,-0.330728 0.61495,-0.155029 1.18856,-0.155029 0.56327,0 0.99218,0.103353 0.42891,0.103352 0.77514,0.330728 0.37207,0.248046 0.56328,0.599444 0.1912,0.351399 0.1912,0.821653 0,0.640786 -0.45475,1.121375 -0.44959,0.475422 -1.06453,0.599445 v 0.07235 q 0.24804,0.04134 0.56843,0.1757 0.3204,0.12919 0.54261,0.32556 z"
           style="fill:#ff0000;stroke-width:0.264583"
           id="path10977" />
        <path
           d="m 111.70926,71.351137 h -1.14204 v 2.165236 h -0.99219 v -2.165236 h -3.68452 v -1.188554 l 3.72586,-4.340807 h 0.95085 v 4.702541 h 1.14204 z m -2.13423,-0.82682 v -3.472645 l -2.98172,3.472645 z"
           style="fill:#ff0000;stroke-width:0.264583"
           id="path10979" />
      </g>
    </g>
    <g
       id="panel7640"
       transform="translate(338.3917,-62.57)">
      <path
         style="fill:none;stroke:#000000;stroke-width:1"
         d="m 64,168 h 7.955 v -6 h 8.09 v 6 h 7.91 v -6 h 8.09 v 6 h 7.91 v -6 h 8.09 v 6 h 7.91 v -6 h 8.09 v 6 H 136"
         id="path13440" />
      <path
         style="fill:none;stroke:#000000;stroke-width:1"
         d="m 108,170.902 v 8.767 h 6 v -8.767 h -6"
         id="path13442" />
      <path
         style="fill:none;stroke:#000000;stroke-width:1"
         d="m 86,170.902 v 8.767 h 6 v -8.767 h -6"
         id="path13444" />
      <path
         style="fill:none;stroke:#000000;stroke-width:1"
         d="m 108,188.616 v 8.768 h 6 v -8.768 h -6"
         id="path13446" />
      <path
         style="fill:none;stroke:#000000;stroke-width:1"
         d="m 86,188.616 v 8.768 h 6 v -8.768 h -6"
         id="path13448" />
      <path
         style="fill:none;stroke:#000000;stroke-width:1"
         d="m 108,206.331 v 8.767 h 6 v -8.767 h -6"
         id="path13450" />
      <path
         style="fill:none;stroke:#000000;stroke-width:1"
         d="m 86,206.331 v 8.767 h 6 v -8.767 h -6"
         id="path13452" />
      <path
         style="fill:none;stroke:#000000;stroke-width:1"
         d="m 136,168 v 2.902 h -6 v 8.767 h 6 v 8.947 h -6 v 8.768 h 6 v 8.947 h -6 v 8.767 h 6 V 218"
         id="path13454" />
      <path
         style="fill:none;stroke:#000000;stroke-width:1"
         d="m 136,218 h -7.955 v 0 h -8.09 v 0 h -7.91 v 0 h -8.09 v 0 h -7.91 v 0 h -8.09 v 0 h -7.91 v 0 h -8.09 v 0 H 64"
         id="path13456" />
      <path
         style="fill:none;stroke:#000000;stroke-width:1"
         d="m 64,218 v -2.902 h 6 v -8.767 h -6 v -8.947 h 6 v -8.768 h -6 v -8.947 h 6 v -8.767 H 64 V 168"
         id="path13458" />
    </g>
    <g
       id="panel1538"
       transform="translate(181.955,-127.91)">
      <path
         style="fill:none;stroke:#000000;stroke-width:1"
         d="m 0,231 h 7.955 v 0 h 8.09 v 0 h 7.91 v 0 h 8.09 v 0 h 7.91 v 0 h 8.09 v 0 h 7.91 v 0 h 8.09 v 0 H 72"
         id="path13461" />
      <path
         style="fill:none;stroke:#000000;stroke-width:1"
         d="m 44,225 v 30.955 h 6 V 225 h -6"
         id="path13463" />
      <path
         style="fill:none;stroke:#000000;stroke-width:1"
         d="m 22,225 v 30.955 h 6 V 225 h -6"
         id="path13465" />
      <path
         style="fill:none;stroke:#000000;stroke-width:1"
         d="m 72,231 v 2.902 h -6 v 8.767 h 6 v 8.947 h -6 v 8.768 h 6 v 8.947 h -6 v 8.767 h 6 V 281"
         id="path13467" />
      <path
         style="fill:none;stroke:#000000;stroke-width:1"
         d="m 72,281 h -7.955 v 0 h -8.09 v 0 h -7.91 v 0 h -8.09 v 0 h -7.91 v 0 h -8.09 v 0 h -7.91 v 0 h -8.09 v 0 H 0"
         id="path13469" />
      <path
         style="fill:none;stroke:#000000;stroke-width:1"
         d="m 0,281 v -2.902 h 6 v -8.767 H 0 v -8.947 h 6 v -8.768 H 0 v -8.947 h 6 v -8.767 H 0 V 231"
         id="path13471" />
    </g>
    <g
       id="panel7699"
       transform="translate(181.955,-127.91)">
      <path
         style="fill:none;stroke:#000000;stroke-width:1"
         d="m 73,231 h 7.955 v 0 h 8.09 v 0 h 7.91 v 0 h 8.09 v 0 h 7.91 v 0 h 8.09 v 0 h 7.91 v 0 h 8.09 v 0 H 145"
         id="path13474" />
      <path
         style="fill:none;stroke:#000000;stroke-width:1"
         d="m 117,225 v 30.955 h 6 V 225 h -6"
         id="path13476" />
      <path
         style="fill:none;stroke:#000000;stroke-width:1"
         d="m 95,225 v 30.955 h 6 V 225 h -6"
         id="path13478" />
      <path
         style="fill:none;stroke:#000000;stroke-width:1"
         d="m 145,231 v 2.902 h -6 v 8.767 h 6 v 8.947 h -6 v 8.768 h 6 v 8.947 h -6 v 8.767 h 6 V 281"
         id="path13480" />
      <path
         style="fill:none;stroke:#000000;stroke-width:1"
         d="m 145,281 h -7.955 v 0 h -8.09 v 0 h -7.91 v 0 h -8.09 v 0 h -7.91 v 0 h -8.09 v 0 h -7.91 v 0 h -8.09 v 0 H 73"
         id="path13482" />
      <path
         style="fill:none;stroke:#000000;stroke-width:1"
         d="m 73,281 v -2.902 h 6 v -8.767 h -6 v -8.947 h 6 v -8.768 h -6 v -8.947 h 6 v -8.767 H 73 V 231"
         id="path13484" />
    </g>
    <g
       id="panel2946"
       transform="translate(181.955,-127.91)">
      <path
         style="fill:none;stroke:#000000;stroke-width:1"
         d="m 146,231 h 7.955 v 0 h 8.09 v 0 h 7.91 v 0 h 8.09 v 0 h 7.91 v 0 h 8.09 v 0 h 7.91 v 0 h 8.09 v 0 H 218"
         id="path13487" />
      <path
         style="fill:none;stroke:#000000;stroke-width:1"
         d="m 190,225 v 30.955 h 6 V 225 h -6"
         id="path13489" />
      <path
         style="fill:none;stroke:#000000;stroke-width:1"
         d="m 168,225 v 30.955 h 6 V 225 h -6"
         id="path13491" />
      <path
         style="fill:none;stroke:#000000;stroke-width:1"
         d="m 218,231 v 2.902 h -6 v 8.767 h 6 v 8.947 h -6 v 8.768 h 6 v 8.947 h -6 v 8.767 h 6 V 281"
         id="path13493" />
      <path
         style="fill:none;stroke:#000000;stroke-width:1"
         d="m 218,281 h -7.955 v 0 h -8.09 v 0 h -7.91 v 0 h -8.09 v 0 h -7.91 v 0 h -8.09 v 0 h -7.91 v 0 h -8.09 v 0 H 146"
         id="path13495" />
      <path
         style="fill:none;stroke:#000000;stroke-width:1"
         d="m 146,281 v -2.902 h 6 v -8.767 h -6 v -8.947 h 6 v -8.768 h -6 v -8.947 h 6 v -8.767 h -6 V 231"
         id="path13497" />
    </g>
    <g
       id="g13832"
       transform="translate(-14.54501,-2.7357534)">
      <path
         style="fill:none;stroke:#000000;stroke-width:1"
         d="m 291.25001,211.73581 v -31.045 h 6 v 31.045 h -6"
         id="path13533" />
      <path
         style="fill:none;stroke:#000000;stroke-width:1"
         d="m 314.00001,211.73581 v -31.045 h 6 v 31.045 h -6"
         id="path13535" />
      <path
         style="fill:none;stroke:#000000;stroke-width:1"
         d="m 336.75001,211.73581 v -31.045 h 6 v 31.045 h -6"
         id="path13537" />
      <path
         style="fill:none;stroke:#000000;stroke-width:1"
         d="m 274.50001,205.73581 v -2.81214 h -6 v -8.94716 h 6 v -8.7671 h -6 v -8.9472 h 6 v -8.7671 h -6 v -8.9472 h 6 v -2.8121"
         id="path13539" />
      <path
         style="fill:none;stroke:#000000;stroke-width:1"
         d="m 359.50001,155.73581 v 2.8121 h 6 v 8.9472 h -6 v 8.7671 h 6 v 8.9472 h -6 v 8.7671 h 6 v 8.94716 h -6 v 2.81214"
         id="path13543" />
      <path
         style="fill:none;stroke:#000000;stroke-width:1"
         d="m 359.50001,205.73581 h -2.773 v 0 h -8.908 v 0 h -8.729 v 0 h -8.908 v 0 h -8.728 v 0 h -8.908 v 0 h -8.728 v 0 h -8.908 v 0 h -8.729 v 0 h -8.908 v 0 h -2.773"
         id="path13545" />
    </g>
    <g
       id="panel9769"
       transform="translate(359.1957,-285.57)">
      <path
         style="fill:none;stroke:#000000;stroke-width:1"
         d="m 63,310.75 h 31.045 v 6 H 63 v -6"
         id="path13548" />
      <path
         style="fill:none;stroke:#000000;stroke-width:1"
         d="m 63,333.5 h 31.045 v 6 H 63 v -6"
         id="path13550" />
      <path
         style="fill:none;stroke:#000000;stroke-width:1"
         d="m 63,356.25 h 31.045 v 6 H 63 v -6"
         id="path13552" />
      <path
         style="fill:none;stroke:#000000;stroke-width:1"
         d="m 69,294 h 2.8121 v -6 h 8.9472 v 6 h 8.7671 v -6 h 8.9472 v 6 h 8.7674 v -6 h 8.947 v 6 H 119"
         id="path13554" />
      <path
         style="fill:none;stroke:#000000;stroke-width:1"
         d="m 119,294 v 2.773 0 8.908 0 8.729 0 8.908 0 8.728 0 8.908 0 8.728 0 8.908 0 8.729 0 8.908 0 2.773"
         id="path13556" />
      <path
         style="fill:none;stroke:#000000;stroke-width:1"
         d="m 119,379 h -2.812 v 6 h -8.947 v -6 h -8.7674 v 6 h -8.9472 v -6 h -8.7671 v 6 h -8.9472 v -6 H 69"
         id="path13558" />
      <path
         style="fill:none;stroke:#000000;stroke-width:1"
         d="m 69,379 v -2.773 0 -8.908 0 -8.729 0 -8.908 0 -8.728 0 -8.908 0 -8.728 0 -8.908 0 -8.729 0 -8.908 0 V 294"
         id="path13560" />
    </g>
    <g
       id="panel5200"
       transform="translate(171,-63.910002)">
      <path
         style="fill:none;stroke:#000000;stroke-width:1"
         d="m 64,64 h 8.045 v 6 h 7.91 v -6 h 8.09 v 6 h 7.91 v -6 h 8.09 v 6 h 7.91 v -6 h 8.09 v 6 h 7.91 V 64 H 136"
         id="path13563" />
      <path
         style="fill:none;stroke:#000000;stroke-width:1"
         d="m 136,64 v 8.8632 h -6 v 8.7282 h 6 v 8.9081 h -6 v 8.7282 h 6 v 8.9083 h -6 v 8.728 h 6 v 8.908 h -6 v 8.728 h 6 v 8.909 h -6 v 8.728 h 6 V 161"
         id="path13565" />
      <path
         style="fill:none;stroke:#000000;stroke-width:1"
         d="m 136,161 h -8.045 v -6 h -7.91 v 6 h -8.09 v -6 h -7.91 v 6 h -8.09 v -6 h -7.91 v 6 h -8.09 v -6 h -7.91 v 6 H 64"
         id="path13567" />
      <path
         style="fill:none;stroke:#000000;stroke-width:1"
         d="m 64,161 v -8.863 h 6 v -8.728 H 64 V 134.5 h 6 v -8.728 h -6 v -8.908 h 6 v -8.728 h -6 v -8.9083 h 6 v -8.7282 h -6 v -8.9081 h 6 V 72.8632 H 64 V 64"
         id="path13569" />
    </g>
    <g
       id="g13796"
       transform="translate(-64.1043,-62.31)">
      <g
         id="panel7189"
         transform="translate(423.3,-1.6)">
        <path
           style="fill:none;stroke:#000000;stroke-width:1"
           d="m 7,92.75 h 2.81214 v -6 H 7 v 6"
           id="path13500" />
        <path
           style="fill:none;stroke:#000000;stroke-width:1"
           d="m 7,115.5 h 2.81214 v -6 H 7 v 6"
           id="path13502" />
        <path
           style="fill:none;stroke:#000000;stroke-width:1"
           d="m 7,138.25 h 2.81214 v -6 H 7 v 6"
           id="path13504" />
        <path
           style="fill:none;stroke:#000000;stroke-width:1"
           d="m 18.7593,92.75 h 8.7671 v -6 h -8.7671 v 6"
           id="path13506" />
        <path
           style="fill:none;stroke:#000000;stroke-width:1"
           d="m 18.7593,115.5 h 8.7671 v -6 h -8.7671 v 6"
           id="path13508" />
        <path
           style="fill:none;stroke:#000000;stroke-width:1"
           d="m 18.7593,138.25 h 8.7671 v -6 h -8.7671 v 6"
           id="path13510" />
        <path
           style="fill:none;stroke:#000000;stroke-width:1"
           d="m 36.4736,92.75 h 8.7671 v -6 h -8.7671 v 6"
           id="path13512" />
        <path
           style="fill:none;stroke:#000000;stroke-width:1"
           d="m 36.4736,115.5 h 8.7671 v -6 h -8.7671 v 6"
           id="path13514" />
        <path
           style="fill:none;stroke:#000000;stroke-width:1"
           d="m 36.4736,138.25 h 8.7671 v -6 h -8.7671 v 6"
           id="path13516" />
        <path
           style="fill:none;stroke:#000000;stroke-width:1"
           d="M 54.1879,92.75 H 57 v -6 h -2.8121 v 6"
           id="path13518" />
        <path
           style="fill:none;stroke:#000000;stroke-width:1"
           d="M 54.1879,115.5 H 57 v -6 h -2.8121 v 6"
           id="path13520" />
        <path
           style="fill:none;stroke:#000000;stroke-width:1"
           d="M 54.1879,138.25 H 57 v -6 h -2.8121 v 6"
           id="path13522" />
        <path
           style="fill:none;stroke:#000000;stroke-width:1"
           d="m 7,70 h 2.81214 v -6 h 8.94716 v 6 h 8.7671 v -6 h 8.9472 v 6 h 8.7671 v -6 h 8.9472 v 6 H 57"
           id="path13524" />
        <path
           style="fill:none;stroke:#000000;stroke-width:1"
           d="m 57,70 v 2.7732 h 6 v 8.9082 h -6 v 8.7281 h 6 v 8.9082 h -6 v 8.7283 h 6 v 8.908 h -6 v 8.728 h 6 v 8.908 h -6 v 8.729 h 6 v 8.908 H 57 V 155"
           id="path13526" />
        <path
           style="fill:none;stroke:#000000;stroke-width:1"
           d="m 57,155 h -2.8121 v 6 h -8.9472 v -6 h -8.7671 v 6 h -8.9472 v -6 h -8.7671 v 6 H 9.81214 v -6 H 7"
           id="path13528" />
        <path
           style="fill:none;stroke:#000000;stroke-width:1"
           d="m 7,155 v -2.773 0 -8.908 0 -8.729 0 -8.908 0 -8.728 0 -8.908 0 -8.7283 0 -8.9082 0 -8.7281 0 -8.9082 0 V 70"
           id="path13530" />
      </g>
      <g
         id="g13761"
         transform="translate(2.6458334)">
        <path
           style="fill:none;stroke:#000000;stroke-width:1"
           d="m 377.65415,91.15 h 2.812 v -6 h -2.812 v 6"
           id="path13572" />
        <path
           style="fill:none;stroke:#000000;stroke-width:1"
           d="m 377.65415,113.9 h 2.812 v -6 h -2.812 v 6"
           id="path13574" />
        <path
           style="fill:none;stroke:#000000;stroke-width:1"
           d="m 377.65415,136.65 h 2.812 v -6 h -2.812 v 6"
           id="path13576" />
        <path
           style="fill:none;stroke:#000000;stroke-width:1"
           d="m 389.41315,91.15 h 8.767 v -6 h -8.767 v 6"
           id="path13578" />
        <path
           style="fill:none;stroke:#000000;stroke-width:1"
           d="m 389.41315,113.9 h 8.767 v -6 h -8.767 v 6"
           id="path13580" />
        <path
           style="fill:none;stroke:#000000;stroke-width:1"
           d="m 389.41315,136.65 h 8.767 v -6 h -8.767 v 6"
           id="path13582" />
        <path
           style="fill:none;stroke:#000000;stroke-width:1"
           d="m 407.12815,91.15 h 8.767 v -6 h -8.767 v 6"
           id="path13584" />
        <path
           style="fill:none;stroke:#000000;stroke-width:1"
           d="m 407.12815,113.9 h 8.767 v -6 h -8.767 v 6"
           id="path13586" />
        <path
           style="fill:none;stroke:#000000;stroke-width:1"
           d="m 407.12815,136.65 h 8.767 v -6 h -8.767 v 6"
           id="path13588" />
        <path
           style="fill:none;stroke:#000000;stroke-width:1"
           d="m 424.84215,91.15 h 2.812 v -6 h -2.812 v 6"
           id="path13590" />
        <path
           style="fill:none;stroke:#000000;stroke-width:1"
           d="m 424.84215,113.9 h 2.812 v -6 h -2.812 v 6"
           id="path13592" />
        <path
           style="fill:none;stroke:#000000;stroke-width:1"
           d="m 424.84215,136.65 h 2.812 v -6 h -2.812 v 6"
           id="path13594" />
        <path
           style="fill:none;stroke:#000000;stroke-width:1"
           d="m 377.65415,68.4 h 2.812 v -6 h 8.947 v 6 h 8.767 v -6 h 8.948 v 6 h 8.767 v -6 h 8.947 v 6 h 2.812"
           id="path13596" />
        <path
           style="fill:none;stroke:#000000;stroke-width:1"
           d="m 427.65415,153.4 h -2.812 v 6 h -8.947 v -6 h -8.767 v 6 h -8.948 v -6 h -8.767 v 6 h -8.947 v -6 h -2.812"
           id="path13600" />
        <path
           style="fill:none;stroke:#000000;stroke-width:1"
           d="m 377.65415,153.4 v -2.773 h -6 v -8.908 h 6 v -8.729 h -6 v -8.908 h 6 v -8.728 h -6 v -8.908 h 6 v -8.7283 h -6 v -8.9082 h 6 v -8.7281 h -6 v -8.9082 h 6 V 68.4"
           id="path13602" />
      </g>
    </g>
    <g
       id="g13817"
       transform="translate(0,-2.6458334)">
      <path
         style="fill:none;stroke:#000000;stroke-width:1"
         d="m 225.955,158.63799 v 8.76716 h 6 v -8.76716 h -6"
         id="path13607" />
      <path
         style="fill:none;stroke:#000000;stroke-width:1"
         d="m 203.955,158.63799 v 8.76716 h 6 v -8.76716 h -6"
         id="path13609" />
      <path
         style="fill:none;stroke:#000000;stroke-width:1"
         d="m 225.955,176.35225 v 8.7672 h 6 v -8.7672 h -6"
         id="path13611" />
      <path
         style="fill:none;stroke:#000000;stroke-width:1"
         d="m 203.955,176.35225 v 8.7672 h 6 v -8.7672 h -6"
         id="path13613" />
      <path
         style="fill:none;stroke:#000000;stroke-width:1"
         d="m 225.955,194.06655 v 8.7672 h 6 v -8.7672 h -6"
         id="path13615" />
      <path
         style="fill:none;stroke:#000000;stroke-width:1"
         d="m 203.955,194.06655 v 8.7672 h 6 v -8.7672 h -6"
         id="path13617" />
      <path
         style="fill:none;stroke:#000000;stroke-width:1"
         d="m 253.955,155.73585 v 2.90214 h -6 v 8.76716 h 6 v 8.9471 h -6 v 8.7672 h 6 v 8.9471 h -6 v 8.7672 h 6 v 2.9021"
         id="path13619" />
      <path
         style="fill:none;stroke:#000000;stroke-width:1"
         d="M 253.955,205.73585 H 246 v 6 h -8.09 v -6 H 230 v 6 h -8.09 v -6 H 214 v 6 h -8.09 v -6 H 198 v 6 h -8.09 v -6 h -7.955"
         id="path13621" />
      <path
         style="fill:none;stroke:#000000;stroke-width:1"
         d="m 181.955,205.73585 v -2.9021 h 6 v -8.7672 h -6 v -8.9471 h 6 v -8.7672 h -6 v -8.9471 h 6 v -8.76716 h -6 v -2.90214"
         id="path13623" />
    </g>
    <rect
       style="fill:none;stroke:#000000;stroke-width:0.893719;stroke-miterlimit:4;stroke-dasharray:none"
       id="rect13834"
       width="97.106277"
       height="97.106277"
       x="84.848717"
       y="153.09" />
    <path
       style="fill:none;stroke:#000000;stroke-width:1;stroke-linecap:butt;stroke-linejoin:miter;stroke-miterlimit:4;stroke-dasharray:none;stroke-opacity:1"
       d="M 84.848719,153.08999 181.955,250.19627"
       id="path13836" />
    <rect
       style="fill:none;stroke:#000000;stroke-width:0.893719;stroke-miterlimit:4;stroke-dasharray:none"
       id="rect13838"
       width="97.106277"
       height="97.106277"
       x="353.33044"
       y="155.42999" />
    <path
       style="fill:none;stroke:#000000;stroke-width:1;stroke-linecap:butt;stroke-linejoin:miter;stroke-miterlimit:4;stroke-dasharray:none;stroke-opacity:1"
       d="m 353.33043,155.42999 97.10628,97.10628"
       id="path13840" />
  </g>
</svg>
