<?xml version="1.0" encoding="UTF-8" standalone="no"?>
<svg
   xmlns:dc="http://purl.org/dc/elements/1.1/"
   xmlns:cc="http://creativecommons.org/ns#"
   xmlns:rdf="http://www.w3.org/1999/02/22-rdf-syntax-ns#"
   xmlns:svg="http://www.w3.org/2000/svg"
   xmlns="http://www.w3.org/2000/svg"
   xmlns:sodipodi="http://sodipodi.sourceforge.net/DTD/sodipodi-0.dtd"
   xmlns:inkscape="http://www.inkscape.org/namespaces/inkscape"
   width="19.5in"
   height="11in"
   viewBox="0 0 495.3 279.40001"
   version="1.1"
   id="svg27734"
   inkscape:version="1.0.1 (3bc2e813f5, 2020-09-07)"
   sodipodi:docname="laser_holder.svg">
  <defs
     id="defs27728" />
  <sodipodi:namedview
     id="base"
     pagecolor="#ffffff"
     bordercolor="#00ff00"
     borderopacity="1"
     inkscape:pageopacity="0.0"
     inkscape:pageshadow="2"
     inkscape:zoom="0.5"
     inkscape:cx="1186.5194"
     inkscape:cy="622.38852"
     inkscape:document-units="mm"
     inkscape:current-layer="layer1"
     inkscape:document-rotation="0"
     showgrid="false"
     units="in"
     inkscape:pagecheckerboard="false"
     inkscape:showpageshadow="false"
     borderlayer="false"
     inkscape:window-width="2131"
     inkscape:window-height="1368"
     inkscape:window-x="1273"
     inkscape:window-y="1080"
     inkscape:window-maximized="0"
     showguides="true"
     inkscape:guide-bbox="true" />
  <metadata
     id="metadata27731">
    <rdf:RDF>
      <cc:Work
         rdf:about="">
        <dc:format>image/svg+xml</dc:format>
        <dc:type
           rdf:resource="http://purl.org/dc/dcmitype/StillImage" />
        <dc:title></dc:title>
      </cc:Work>
    </rdf:RDF>
  </metadata>
  <g
     inkscape:label="Layer 1"
     inkscape:groupmode="layer"
     id="layer1">
    <path
       style="fill:none;stroke:#000000;stroke-width:1"
       d="m 226.41,156.9305 v 6.2117 h -6 v 12.0766 h 6 v 6.2117"
       id="path4070" />
    <path
       style="fill:none;stroke:#000000;stroke-width:1"
       d="m 226.41,181.4305 h -10.587 v 0 h -10.721 v 0 H 194.56 v 0 h -10.721 v 0 h -10.542 v 0 h -10.721 v 0 h -10.542 v 0 h -10.722 v 0 h -10.541 v 0 h -10.722 v 0 h -10.541 v 0 H 98.786003 v 0 h -10.542 v 0 h -10.721 v 0 h -10.542 v 0 h -10.721 v 0 h -10.542 v 0 h -10.721 v 0 h -10.587"
       id="path4072" />
    <path
       style="fill:none;stroke:#000000;stroke-width:1"
       d="m 24.410003,181.4305 v -6.2117 h 6 v -12.0766 h -6 v -6.2117"
       id="path4074" />
    <g
       id="panel6009"
       transform="translate(24.409803,-29.969498)">
      <path
         style="fill:none;stroke:#000000;stroke-width:1"
         d="m 202,211.4 v 6.212 h -6 v 12.076 h 6 v 6.212"
         id="path4079" />
      <path
         style="fill:none;stroke:#000000;stroke-width:1"
         d="m 202,235.9 h -10.587 v 0 h -10.721 v 0 H 170.15 v 0 h -10.721 v 0 h -10.542 v 0 h -10.721 v 0 h -10.542 v 0 h -10.722 v 0 h -10.541 v 0 H 95.6392 v 0 H 85.0976 v 0 H 74.3761 v 0 H 63.8345 v 0 H 53.1129 v 0 H 42.5713 v 0 H 31.8497 v 0 H 21.3082 v 0 H 10.5866 v 0 H 0"
         id="path4081" />
      <path
         style="fill:none;stroke:#000000;stroke-width:1"
         d="m 0,235.9 v -6.212 H 6 V 217.612 H 0 V 211.4"
         id="path4083" />
    </g>
    <g
       id="g4200"
       transform="translate(35.79167,30.830502)">
      <path
         style="fill:none;stroke:#000000;stroke-width:1"
         d="m -35.79167,75.818829 h 6.122 v -6 h -6.122 v 6"
         id="path4086" />
      <path
         style="fill:none;stroke:#000000;stroke-width:1"
         d="m -17.41367,75.818829 h 6.122002 v -6 h -6.122002 v 6"
         id="path4088" />
      <path
         style="fill:none;stroke:#000000;stroke-width:1"
         d="m -35.79167,0.010005 h 6.122 v -6 h 12.256 v 6 h 6.122002"
         id="path4090" />
      <path
         style="fill:none;stroke:#000000;stroke-width:1"
         d="m -11.291668,120.01 h -6.122002 v 6 h -12.256 v -6 h -6.122"
         id="path4094" />
      <path
         style="fill:none;stroke:#000000;stroke-width:1"
         d="m -35.79167,120.01 v -4.10899 0 -10.244 0 -10.064005 0 -10.2434 0 -10.0638 0 -10.2439 0 -10.0638 0 -10.2439 0 -10.0638 0 -10.2439 0 -10.0638 0 -10.2439 0 -4.1088"
         id="path4096" />
    </g>
    <g
       id="panel9712"
       transform="translate(24.400003,24.830502)">
      <path
         style="fill:none;stroke:#000000;stroke-width:1"
         d="m 0.1,0.1 h 10.6766 v 6 h 10.5416 v -6 h 10.7215 v 6 h 10.5416 v -6 h 10.7216 v 6 h 10.5416 v -6 h 10.7216 v 6 h 10.5415 v -6 h 10.7216 v 6 h 10.5418 v -6 h 10.721 v 6 h 10.542 v -6 h 10.722 v 6 h 10.541 v -6 h 10.722 v 6 h 10.541 v -6 h 10.722 v 6 h 10.541 v -6 H 202.1"
         id="path4099" />
      <path
         style="fill:none;stroke:#000000;stroke-width:1"
         d="m 202.1,0.1 v 10.1988 h -6 v 10.0639 h 6 v 10.2438 h -6 v 10.0639 h 6 v 10.2438 h -6 v 10.0639 h 6 v 10.2438 h -6 v 10.0639 h 6 v 10.2438 h -6 v 10.0634 h 6 v 10.244 h -6 v 10.064 h 6 V 132.1"
         id="path4101" />
      <path
         style="fill:none;stroke:#000000;stroke-width:1"
         d="m 202.1,132.1 h -10.677 v -6 h -10.541 v 6 H 170.16 v -6 h -10.541 v 6 h -10.722 v -6 h -10.541 v 6 h -10.722 v -6 h -10.542 v 6 h -10.721 v -6 H 95.8292 v 6 H 85.1076 v -6 H 74.5661 v 6 H 63.8445 v -6 H 53.3029 v 6 H 42.5813 v -6 H 32.0397 v 6 H 21.3182 v -6 H 10.7766 v 6 H 0.1"
         id="path4103" />
      <path
         style="fill:none;stroke:#000000;stroke-width:1"
         d="m 0.1,132.1 v -10.199 h 6 v -10.064 h -6 v -10.244 h 6 V 91.5296 h -6 V 81.2858 h 6 V 71.2219 h -6 V 60.9781 h 6 V 50.9142 h -6 V 40.6704 h 6 V 30.6065 h -6 V 20.3627 h 6 V 10.2988 h -6 V 0.1"
         id="path4105" />
    </g>
    <g
       id="g4193"
       transform="translate(25.208336,30.830502)">
      <path
         style="fill:none;stroke:#000000;stroke-width:1"
         d="m 201.29167,75.998824 h 6.122 v -6 h -6.122 v 6"
         id="path4108" />
      <path
         style="fill:none;stroke:#000000;stroke-width:1"
         d="m 219.66967,75.998824 h 6.122 v -6 h -6.122 v 6"
         id="path4110" />
      <path
         style="fill:none;stroke:#000000;stroke-width:1"
         d="m 201.29167,0.19 h 6.122 v -6 h 12.256 v 6 h 6.122"
         id="path4112" />
      <path
         style="fill:none;stroke:#000000;stroke-width:1"
         d="m 225.79167,0.19 v 4.1088 0 10.2439 0 10.0638 0 10.2439 0 10.0638 0 10.2439 0 10.0638 0 10.2439 0 10.0638 0 10.2434 0 10.064 0 10.244 0 4.109"
         id="path4114" />
      <path
         style="fill:none;stroke:#000000;stroke-width:1"
         d="m 225.79167,120.19 h -6.122 v 6 h -12.256 v -6 h -6.122"
         id="path4116" />
    </g>
    <g
       id="g4213"
       transform="translate(30.500003,36.122169)">
      <path
         style="fill:none;stroke:#000000;stroke-width:1"
         d="m -5.9098,-35.69167 h 10.587 v 0 h 10.721 v 0 h 10.542 v 0 h 10.721 v 0 h 10.542 v 0 h 10.721 v 0 h 10.542 v 0 h 10.722 v 0 h 10.541 v 0 h 10.722 v 0 h 10.541 v 0 h 10.722 v 0 h 10.542 v 0 h 10.721 v 0 h 10.542 v 0 h 10.721 v 0 h 10.542 v 0 h 10.721 v 0 h 10.587"
         id="path4121" />
      <path
         style="fill:none;stroke:#000000;stroke-width:1"
         d="m 196.0902,-35.69167 v 6.2117 h -6 v 12.0766 h 6 v 6.2117"
         id="path4123" />
      <path
         style="fill:none;stroke:#000000;stroke-width:1"
         d="m -5.9098,-11.19167 v -6.2117 h 6 v -12.0766 h -6 v -6.2117"
         id="path4127" />
    </g>
    <g
       aria-label="LASER
LEVEL"
       id="text4224"
       style="font-size:11.2889px;line-height:1.25;font-family:Michroma;-inkscape-font-specification:'Michroma, Normal';writing-mode:lr-tb;fill:#ff0000;stroke-width:1;stroke-miterlimit:0.8"
       transform="translate(30.500003,30.830502)">
      <path
         d="M 18.520834,33.866665 V 25.39999 h 1.058334 v 7.58473 h 6.702785 v 0.881945 z"
         style="stroke-width:1"
         id="path4228" />
      <path
         d="m 35.983352,31.926385 h -6.702785 l -1.058334,1.94028 h -1.234724 l 4.938894,-8.466675 h 1.411113 l 4.938894,8.466675 H 37.041686 Z M 35.454185,31.04444 32.63196,26.105546 29.809735,31.04444 Z"
         style="stroke-width:1"
         id="path4230" />
      <path
         d="m 45.02329,29.10416 q 0.870921,0 1.493795,0.07166 0.622874,0.07166 1.04731,0.214974 0.429949,0.137804 0.683508,0.347266 0.253559,0.209462 0.391363,0.479558 0.137804,0.264584 0.176389,0.595313 0.0441,0.33073 0.0441,0.716581 0,0.385851 -0.07166,0.727605 -0.06615,0.336241 -0.242535,0.617361 -0.17639,0.28112 -0.479558,0.501607 -0.303169,0.220486 -0.771702,0.374827 -0.468534,0.15434 -1.129993,0.23151 -0.655947,0.08268 -1.537892,0.08268 h -1.411113 q -0.79375,0 -1.389064,-0.06063 -0.595313,-0.06063 -1.025261,-0.181901 -0.429948,-0.12678 -0.711068,-0.314193 -0.28112,-0.192926 -0.451997,-0.446485 -0.165365,-0.259072 -0.231511,-0.584289 -0.06615,-0.33073 -0.06615,-0.727605 h 1.058334 q 0,0.496094 0.143317,0.777214 0.143316,0.28112 0.474045,0.424437 0.33073,0.137804 0.865409,0.176389 0.540192,0.03307 1.333942,0.03307 h 1.411113 q 0.926043,0 1.537892,-0.0882 0.61185,-0.08819 0.975652,-0.28112 0.363803,-0.192926 0.512631,-0.501606 0.148828,-0.314193 0.148828,-0.760678 0,-0.446485 -0.104731,-0.744142 -0.09922,-0.297656 -0.402387,-0.474045 -0.297657,-0.176389 -0.843361,-0.248047 -0.545703,-0.07717 -1.427649,-0.07717 h -1.455209 q -0.97014,0 -1.664672,-0.07166 -0.68902,-0.07166 -1.157554,-0.20395 -0.468533,-0.137803 -0.749653,-0.336241 -0.28112,-0.20395 -0.429948,-0.463022 -0.143317,-0.259071 -0.187414,-0.573264 -0.0441,-0.319705 -0.0441,-0.68902 0,-0.385851 0.06615,-0.71658 0.07166,-0.33073 0.259071,-0.595313 0.187414,-0.270096 0.512631,-0.479558 0.325217,-0.209462 0.832336,-0.347266 0.512631,-0.143316 1.229211,-0.214974 0.716581,-0.07166 1.686721,-0.07166 h 1.058334 q 0.793751,0 1.389064,0.06063 0.595313,0.05512 1.025261,0.181902 0.429949,0.121267 0.711069,0.30868 0.286632,0.181902 0.451997,0.440973 0.170877,0.253559 0.237023,0.578777 0.06615,0.325217 0.06615,0.722092 h -1.058335 q 0,-0.496094 -0.143316,-0.777214 -0.143316,-0.28112 -0.474046,-0.418924 -0.330729,-0.143316 -0.870921,-0.176389 -0.540191,-0.03859 -1.333942,-0.03859 H 43.92086 q -1.058335,0 -1.741842,0.07717 -0.683508,0.07166 -1.080383,0.248047 -0.396876,0.176389 -0.551216,0.474046 -0.154341,0.297656 -0.154341,0.744141 0,0.275608 0.03859,0.490582 0.03859,0.214975 0.154341,0.380339 0.121267,0.159853 0.336242,0.270096 0.214974,0.110243 0.567752,0.181901 0.352778,0.07166 0.859897,0.104731 0.51263,0.02756 1.218187,0.02756 z"
         style="stroke-width:1"
         id="path4232" />
      <path
         d="M 50.623644,33.866665 V 25.39999 h 8.466675 v 0.881945 h -7.408341 v 2.822225 h 7.055563 v 0.881945 h -7.055563 v 2.998615 h 7.408341 v 0.881945 z"
         style="stroke-width:1"
         id="path4234" />
      <path
         d="m 70.202831,33.866665 h -1.058334 v -1.587502 q 0,-0.385851 -0.01654,-0.661459 -0.01102,-0.28112 -0.09371,-0.479558 -0.07717,-0.198437 -0.248047,-0.319705 -0.170877,-0.121267 -0.48507,-0.187413 -0.314193,-0.06615 -0.799263,-0.08819 -0.479558,-0.02756 -1.185114,-0.02756 H 61.55976 v 3.351392 h -1.058328 v -8.46668 h 5.991717 q 0.97014,0 1.631599,0.07166 0.666971,0.06615 1.096919,0.20395 0.435461,0.137803 0.666971,0.341753 0.237023,0.20395 0.341754,0.479558 0.110243,0.275608 0.12678,0.617362 0.02205,0.341754 0.02205,0.755166 0,0.529167 -0.07717,0.931554 -0.07166,0.396876 -0.248047,0.677996 -0.176389,0.28112 -0.468534,0.451997 -0.292144,0.165365 -0.733117,0.23151 0.440973,0.06615 0.705557,0.231511 0.264583,0.165365 0.407899,0.429948 0.143317,0.264584 0.187414,0.628387 0.04961,0.363802 0.04961,0.826823 z m -8.643064,-4.233338 h 4.933382 q 0.705556,0 1.185114,-0.02205 0.48507,-0.02756 0.799263,-0.09371 0.314193,-0.06615 0.48507,-0.187413 0.170877,-0.121268 0.248047,-0.319706 0.08268,-0.198437 0.09371,-0.474045 0.01654,-0.28112 0.01654,-0.666971 0,-0.358291 -0.01654,-0.617362 -0.01102,-0.259072 -0.09371,-0.435461 -0.07717,-0.176389 -0.248047,-0.28112 -0.170877,-0.104731 -0.48507,-0.159852 -0.314193,-0.06063 -0.799263,-0.07717 -0.479558,-0.01654 -1.185114,-0.01654 h -4.933382 z"
         style="stroke-width:1"
         id="path4236" />
      <path
         d="m 18.520834,47.97779 v -8.466675 h 1.058334 v 7.58473 h 6.702785 v 0.881945 z"
         style="stroke-width:1"
         id="path4238" />
      <path
         d="m 27.693066,47.97779 v -8.466675 h 8.466675 V 40.39306 H 28.7514 v 2.822226 h 7.055563 v 0.881945 H 28.7514 v 2.998614 h 7.408341 v 0.881945 z"
         style="stroke-width:1"
         id="path4240" />
      <path
         d="m 46.213917,39.511115 h 1.234723 l -4.586116,8.466675 h -1.411112 l -4.586116,-8.466675 h 1.234724 l 4.056948,7.761119 z"
         style="stroke-width:1"
         id="path4242" />
      <path
         d="m 48.859755,47.97779 v -8.466675 h 8.466675 v 0.881945 h -7.408341 v 2.822226 h 7.055563 v 0.881945 h -7.055563 v 2.998614 h 7.408341 v 0.881945 z"
         style="stroke-width:1"
         id="path4244" />
      <path
         d="m 58.737539,47.97779 v -8.466675 h 1.058335 v 7.58473 h 6.702784 v 0.881945 z"
         style="stroke-width:1"
         id="path4246" />
    </g>
  </g>
</svg>
