<?xml version="1.0" encoding="UTF-8" standalone="no"?>
<svg
   xmlns:dc="http://purl.org/dc/elements/1.1/"
   xmlns:cc="http://creativecommons.org/ns#"
   xmlns:rdf="http://www.w3.org/1999/02/22-rdf-syntax-ns#"
   xmlns:svg="http://www.w3.org/2000/svg"
   xmlns="http://www.w3.org/2000/svg"
   xmlns:sodipodi="http://sodipodi.sourceforge.net/DTD/sodipodi-0.dtd"
   xmlns:inkscape="http://www.inkscape.org/namespaces/inkscape"
   width="19.5in"
   height="11in"
   viewBox="0 0 495.3 279.40001"
   version="1.1"
   id="svg27734"
   inkscape:version="1.0.1 (3bc2e813f5, 2020-09-07)"
   sodipodi:docname="MdfDustHood_Part2.svg">
  <defs
     id="defs27728" />
  <sodipodi:namedview
     id="base"
     pagecolor="#ffffff"
     bordercolor="#00ff00"
     borderopacity="1"
     inkscape:pageopacity="0.0"
     inkscape:pageshadow="2"
     inkscape:zoom="0.35"
     inkscape:cx="400"
     inkscape:cy="560"
     inkscape:document-units="mm"
     inkscape:current-layer="layer1"
     inkscape:document-rotation="0"
     showgrid="false"
     units="in"
     inkscape:pagecheckerboard="false"
     inkscape:showpageshadow="false"
     borderlayer="false"
     inkscape:window-width="2131"
     inkscape:window-height="1368"
     inkscape:window-x="1273"
     inkscape:window-y="1080"
     inkscape:window-maximized="0">
    <sodipodi:guide
       position="0,279.4"
       orientation="0,1872"
       id="guide854" />
    <sodipodi:guide
       position="495.30001,279.4"
       orientation="1056,0"
       id="guide856" />
    <sodipodi:guide
       position="495.30001,0"
       orientation="0,-1872"
       id="guide858" />
    <sodipodi:guide
       position="0,0"
       orientation="-1056,0"
       id="guide860" />
  </sodipodi:namedview>
  <metadata
     id="metadata27731">
    <rdf:RDF>
      <cc:Work
         rdf:about="">
        <dc:format>image/svg+xml</dc:format>
        <dc:type
           rdf:resource="http://purl.org/dc/dcmitype/StillImage" />
        <dc:title></dc:title>
      </cc:Work>
    </rdf:RDF>
  </metadata>
  <g
     inkscape:label="Layer 1"
     inkscape:groupmode="layer"
     id="layer1">
    <g
       id="panel5448"
       transform="translate(-988.5,-0.099995)">
      <path
         style="fill:none;stroke:#000000;stroke-width:1"
         d="m 988.5,6.1 h 13.16 v -6 h 13.29 v 6 h 13.11 v -6 h 13.29 v 6 h 13.11 v -6 h 13.29 v 6 h 13.11 v -6 h 13.29 v 6 h 13.11 v -6 h 13.29 v 6 h 13.11 v -6 h 13.29 v 6 h 13.11 v -6 h 13.29 v 6 h 13.11 v -6 h 13.29 v 6 h 13.11 v -6 h 13.29 v 6 h 13.11 v -6 h 13.29 v 6 h 13.11 v -6 h 13.29 v 6 h 13.11 v -6 h 13.29 v 6 h 13.15"
         id="path922" />
      <path
         style="fill:none;stroke:#000000;stroke-width:1"
         d="m 1318.5,6.1 v 6.6604 h -6 v 12.5254 h 6 v 12.7054 h -6 v 12.5253 h 6 v 12.7054 h -6 v 12.5254 h 6 v 12.7054 h -6 v 12.5253 h 6 v 12.705 h -6 v 12.526 h 6 v 12.705 h -6 v 12.526 h 6 v 6.66"
         id="path924" />
      <path
         style="fill:none;stroke:#000000;stroke-width:1"
         d="m 1318.5,158.1 h -13.15 v 6 h -13.29 v -6 h -13.11 v 6 h -13.29 v -6 h -13.11 v 6 h -13.29 v -6 h -13.11 v 6 h -13.29 v -6 h -13.11 v 6 h -13.29 v -6 h -13.11 v 6 h -13.29 v -6 h -13.11 v 6 h -13.29 v -6 h -13.11 v 6 h -13.29 v -6 h -13.11 v 6 h -13.29 v -6 h -13.11 v 6 h -13.29 v -6 h -13.11 v 6 h -13.29 v -6 h -13.11 v 6 h -13.29 v -6 H 988.5"
         id="path926" />
      <path
         style="fill:none;stroke:#000000;stroke-width:1"
         d="m 988.5,158.1 v -6.66 h 6 v -12.526 h -6 v -12.705 h 6 v -12.526 h -6 v -12.705 h 6 V 88.4527 h -6 V 75.7473 h 6 V 63.2219 h -6 V 50.5165 h 6 V 37.9912 h -6 V 25.2858 h 6 V 12.7604 h -6 V 6.1"
         id="path928" />
    </g>
    <g
       id="panel7257"
       transform="translate(-1318.6,163.90001)">
      <path
         style="fill:none;stroke:#000000;stroke-width:1"
         d="m 1318.6,6.1 h 13.16 v -6 h 13.29 v 6 h 13.11 v -6 h 13.29 v 6 h 13.11 v -6 h 13.29 v 6 h 13.11 v -6 h 13.29 v 6 h 13.11 v -6 h 13.29 v 6 h 13.11 v -6 h 13.29 v 6 h 13.11 v -6 h 13.29 v 6 h 13.11 v -6 h 13.29 v 6 h 13.11 v -6 h 13.29 v 6 h 13.11 v -6 h 13.29 v 6 h 13.11 v -6 h 13.29 v 6 h 13.11 v -6 h 13.29 v 6 h 13.15"
         id="path967" />
      <path
         style="fill:none;stroke:#000000;stroke-width:1"
         d="m 1648.6,6.1 v 6.6604 h -6 v 12.5254 h 6 v 12.7054 h -6 v 12.5253 h 6 v 12.7054 h -6 v 12.5254 h 6 v 12.7054 h -6 v 12.5253 h 6 v 12.705 h -6 v 12.526 h 6 v 12.705 h -6 v 12.526 h 6 v 6.66"
         id="path969" />
      <path
         style="fill:none;stroke:#000000;stroke-width:1"
         d="m 1648.6,158.1 h -13.15 v 6 h -13.29 v -6 h -13.11 v 6 h -13.29 v -6 h -13.11 v 6 h -13.29 v -6 h -13.11 v 6 h -13.29 v -6 h -13.11 v 6 h -13.29 v -6 h -13.11 v 6 h -13.29 v -6 h -13.11 v 6 h -13.29 v -6 h -13.11 v 6 h -13.29 v -6 h -13.11 v 6 h -13.29 v -6 h -13.11 v 6 h -13.29 v -6 h -13.11 v 6 h -13.29 v -6 h -13.11 v 6 h -13.29 v -6 h -13.16"
         id="path971" />
      <path
         style="fill:none;stroke:#000000;stroke-width:1"
         d="m 1318.6,158.1 v -6.66 h 6 v -12.526 h -6 v -12.705 h 6 v -12.526 h -6 v -12.705 h 6 V 88.4527 h -6 V 75.7473 h 6 V 63.2219 h -6 V 50.5165 h 6 V 37.9912 h -6 V 25.2858 h 6 V 12.7604 h -6 V 6.1"
         id="path973" />
    </g>
  </g>
</svg>
