<?xml version="1.0" encoding="UTF-8" standalone="no"?>
<svg
   xmlns:dc="http://purl.org/dc/elements/1.1/"
   xmlns:cc="http://creativecommons.org/ns#"
   xmlns:rdf="http://www.w3.org/1999/02/22-rdf-syntax-ns#"
   xmlns:svg="http://www.w3.org/2000/svg"
   xmlns="http://www.w3.org/2000/svg"
   xmlns:sodipodi="http://sodipodi.sourceforge.net/DTD/sodipodi-0.dtd"
   xmlns:inkscape="http://www.inkscape.org/namespaces/inkscape"
   width="19in"
   height="11in"
   viewBox="0 0 482.6 279.40001"
   version="1.1"
   id="svg27734"
   inkscape:version="1.0.1 (3bc2e813f5, 2020-09-07)"
   sodipodi:docname="MdfDustHood_PushThroughSlot.svg">
  <defs
     id="defs27728" />
  <sodipodi:namedview
     id="base"
     pagecolor="#ffffff"
     bordercolor="#00ff00"
     borderopacity="1"
     inkscape:pageopacity="0.0"
     inkscape:pageshadow="2"
     inkscape:zoom="0.32"
     inkscape:cx="1710.3757"
     inkscape:cy="1394.382"
     inkscape:document-units="mm"
     inkscape:current-layer="layer1"
     inkscape:document-rotation="0"
     showgrid="false"
     units="in"
     inkscape:pagecheckerboard="false"
     inkscape:showpageshadow="false"
     borderlayer="false"
     inkscape:window-width="2131"
     inkscape:window-height="1368"
     inkscape:window-x="1587"
     inkscape:window-y="1080"
     inkscape:window-maximized="0"
     inkscape:snap-midpoints="true"
     inkscape:object-paths="true"
     inkscape:snap-object-midpoints="true" />
  <metadata
     id="metadata27731">
    <rdf:RDF>
      <cc:Work
         rdf:about="">
        <dc:format>image/svg+xml</dc:format>
        <dc:type
           rdf:resource="http://purl.org/dc/dcmitype/StillImage" />
        <dc:title></dc:title>
      </cc:Work>
    </rdf:RDF>
  </metadata>
  <g
     inkscape:label="Layer 1"
     inkscape:groupmode="layer"
     id="layer1">
    <g
       id="panel1047"
       transform="matrix(0,1,1,0,828.22101,-328.33698)"
       style="stroke:#800000">
      <g
         id="g1558"
         transform="translate(158.7581,-478.94699)"
         style="stroke:#800000">
        <path
           style="fill:none;stroke:#800000;stroke-width:1"
           d="m 336.2,6.1 h 6.57 v -6 h 12.706 v 6 h 12.525 v -6 h 12.706 v 6 h 12.525 v -6 h 12.705 v 6 h 12.526 v -6 h 12.705 v 6 h 12.525 v -6 h 12.706 v 6 h 12.525 v -6 h 12.706 v 6 h 6.57"
           id="path1040" />
        <path
           style="fill:none;stroke:#800000;stroke-width:1"
           d="m 488.2,6.1 v 6.5914 h 6 v 12.7263 h -6 v 12.5464 h 0.66999 0.66998 4.66003 v 12.7264 h -6 v 12.5463 h 6 v 12.7264 h -6 v 12.5463 h 6 v 12.7265 h -6 v 12.546 h 6 v 12.727 h -6 v 6.591"
           id="path1042"
           sodipodi:nodetypes="cccccccccccccccccccccccc" />
        <path
           style="fill:none;stroke:#800000;stroke-width:1"
           d="m 488.2,133.1 h -6.57 v 6 h -12.706 v -6 h -12.525 v 6 h -12.706 v -6 h -12.525 v 6 h -12.705 v -6 h -12.526 v 6 h -12.705 v -6 h -12.525 v 6 h -12.706 v -6 h -12.525 v 6 H 342.77 v -6 h -6.57"
           id="path1044" />
        <path
           style="fill:none;stroke:#800000;stroke-width:1"
           d="m 336.2,133.1 v -6.591 0 -12.727 0 -12.546 0 -12.7265 0 -12.5463 0 -12.7264 0 -12.5463 0 -12.7264 0 -12.5464 0 -12.7263 0 V 6.1"
           id="path1046" />
      </g>
    </g>
    <g
       id="panel4503"
       transform="translate(-982.08053,141.55262)"
       style="stroke:#808000">
      <path
         style="fill:none;stroke:#808000;stroke-width:1"
         d="m 988.5,6.1 h 13.16 v 0 h 13.29 v 0 h 13.11 v 0 h 13.29 v 0 h 13.11 v 0 h 13.29 v 0 h 13.11 v 0 h 13.29 v 0 h 13.11 v 0 h 13.29 v 0 h 13.11 v 0 h 13.29 v 0 h 13.11 v 0 h 13.29 v 0 h 13.11 v 0 h 13.29 v 0 h 13.11 v 0 h 13.29 v 0 h 13.11 v 0 h 13.29 v 0 h 13.11 v 0 h 13.29 v 0 h 13.11 v 0 h 13.29 v 0 h 13.15"
         id="path1067" />
      <path
         style="fill:none;stroke:#808000;stroke-width:1"
         d="m 1318.5,6.1 v 6.6604 h -6 v 12.5254 h 6 v 12.7054 h -6 v 12.5253 h 6 v 12.7054 h -6 v 12.5254 h 6 v 12.7054 h -6 v 12.5253 h 6 v 12.705 h -6 v 12.526 h 6 v 12.705 h -6 v 12.526 h 6 v 6.66"
         id="path1069" />
      <path
         style="fill:none;stroke:#808000;stroke-width:1"
         d="m 1318.5,158.1 h -13.15 v 6 h -13.29 v -6 h -13.11 v 6 h -13.29 v -6 h -13.11 v 6 h -13.29 v -6 h -13.11 v 6 h -13.29 v -6 h -13.11 v 6 h -13.29 v -6 h -13.11 v 6 h -13.29 v -6 h -13.11 v 6 h -13.29 v -6 h -13.11 v 6 h -13.29 v -6 h -13.11 v 6 h -13.29 v -6 h -13.11 v 6 h -13.29 v -6 h -13.11 v 6 h -13.29 v -6 h -13.11 v 6 h -13.29 v -6 H 988.5"
         id="path1071" />
      <path
         style="fill:none;stroke:#808000;stroke-width:1"
         d="m 988.5,158.1 v -6.66 h 6 v -12.526 h -6 v -12.705 h 6 v -12.526 h -6 v -12.705 h 6 V 88.4527 h -6 V 75.7473 h 6 V 63.2219 h -6 V 50.5165 h 6 V 37.9912 h -6 V 25.2858 h 6 V 12.7604 h -6 V 6.1"
         id="path1073" />
    </g>
    <g
       id="g1118">
      <g
         id="panel3122"
         transform="translate(-651.97553,305.55262)"
         style="stroke:#00ffff">
        <path
           style="fill:none;stroke:#00ffff;stroke-width:1"
           d="m 658.4,6.1 h 13.155 v -6 h 13.29 v 6 h 13.11 v -6 h 13.29 v 6 h 13.11 v -6 h 13.29 v 6 h 13.11 v -6 h 13.29 v 6 h 13.11 v -6 h 13.29 v 6 h 13.11 v -6 h 13.29 v 6 h 13.11 v -6 h 13.29 v 6 h 13.11 v -6 h 13.29 v 6 h 13.11 v -6 h 13.29 v 6 h 13.11 v -6 h 13.29 v 6 h 13.11 v -6 h 13.29 v 6 h 13.11 v -6 h 13.29 v 6 H 988.4"
           id="path1031" />
        <path
           style="fill:none;stroke:#00ffff;stroke-width:1"
           d="m 988.4,6.1 v 6.6604 h -6 v 12.5254 h 6 v 12.7054 h -6 v 12.5253 h 6 v 12.7054 h -6 v 12.5254 h 6 v 12.7054 h -6 v 12.5253 h 6 v 12.705 h -6 v 12.526 h 6 v 12.705 h -6 v 12.526 h 6 v 6.66"
           id="path1033" />
        <path
           style="fill:none;stroke:#00ffff;stroke-width:1"
           d="m 988.4,158.1 h -13.155 v 0 h -13.29 v 0 h -13.11 v 0 h -13.29 v 0 h -13.11 v 0 h -13.29 v 0 h -13.11 v 0 h -13.29 v 0 h -13.11 v 0 h -13.29 v 0 h -13.11 v 0 h -13.29 v 0 h -13.11 v 0 h -13.29 v 0 h -13.11 v 0 h -13.29 v 0 h -13.11 v 0 h -13.29 v 0 h -13.11 v 0 h -13.29 v 0 h -13.11 v 0 h -13.29 v 0 h -13.11 v 0 h -13.29 v 0 H 658.4"
           id="path1035" />
        <path
           style="fill:none;stroke:#00ffff;stroke-width:1"
           d="m 658.4,158.1 v -6.66 h 6 v -12.526 h -6 v -12.705 h 6 v -12.526 h -6 v -12.705 h 6 V 88.4527 h -6 V 75.7473 h 6 V 63.2219 h -6 V 50.5165 h 6 V 37.9912 h -6 V 25.2858 h 6 V 12.7604 h -6 V 6.1"
           id="path1037" />
      </g>
      <circle
         style="fill:none;stroke:#00ffff;stroke-width:1;stroke-linecap:round;stroke-miterlimit:4;stroke-dasharray:none"
         id="circle1311"
         cx="168.60371"
         cy="452.77808"
         r="3.0374165" />
    </g>
    <g
       id="g1184">
      <g
         id="panel7406"
         transform="translate(6.32447,8.552623)"
         style="stroke:#800080">
        <path
           style="fill:none;stroke:#800080;stroke-width:1"
           d="m 0.1,0.1 h 13.245 v 6 h 13.11 v -6 h 13.29 v 6 h 13.11 v -6 h 13.29 v 6 h 13.11 v -6 h 13.29 v 6 h 13.11 v -6 h 13.29 v 6 h 13.11 v -6 h 13.29 v 6 h 13.11 v -6 h 13.29 v 6 h 13.11 v -6 h 13.29 v 6 h 13.11 v -6 h 13.29 v 6 h 13.11 v -6 h 13.29 v 6 h 13.11 v -6 h 13.29 v 6 h 13.11 v -6 h 13.29 v 6 h 13.11 v -6 H 330.1"
           id="path1049" />
        <path
           style="fill:none;stroke:#800080;stroke-width:1"
           d="m 330.1,0.1 v 12.6814 h -6 v 12.5463 h 6 v 12.7264 h -6 v 12.5464 h 6 v 12.7263 h -6 v 12.5464 h 6 v 12.7263 h -6 v 12.5465 h 6 v 12.726 h -6 v 12.547 h 6 V 139.1"
           id="path1051" />
        <path
           style="fill:none;stroke:#800080;stroke-width:1"
           d="m 330.1,139.1 h -13.245 v -6 h -13.11 v 6 h -13.29 v -6 h -13.11 v 6 h -13.29 v -6 h -13.11 v 6 h -13.29 v -6 h -13.11 v 6 h -13.29 v -6 h -13.11 v 6 h -13.29 v -6 h -13.11 v 6 h -13.29 v -6 h -13.11 v 6 h -13.29 v -6 h -13.11 v 6 h -13.29 v -6 h -13.11 v 6 h -13.29 v -6 h -13.11 v 6 h -13.29 v -6 h -13.11 v 6 h -13.29 v -6 h -13.11 v 6 H 0.1"
           id="path1053" />
        <path
           style="fill:none;stroke:#800080;stroke-width:1"
           d="m 0.1,139.1 v -12.681 h 6 v -12.547 h -6 v -12.726 h 6 V 88.5995 h -6 V 75.8732 h 6 V 63.3268 h -6 V 50.6005 h 6 V 38.0541 h -6 V 25.3277 h 6 V 12.7814 h -6 V 0.1"
           id="path1055" />
      </g>
      <circle
         style="fill:none;stroke:#800080;stroke-width:0.529167;stroke-linecap:round"
         id="path1323"
         cx="171.42447"
         cy="78.152626"
         r="50.535416" />
    </g>
    <g
       id="g1152"
       transform="matrix(-1,0,0,1,339.56201,-42.48437)">
      <g
         id="g1035"
         transform="rotate(90,108.13769,129.35238)">
        <circle
           style="fill:none;stroke:#000000;stroke-width:1;stroke-linecap:round;stroke-miterlimit:4;stroke-dasharray:none"
           id="circle1331"
           cx="78.24279"
           cy="-550.13776"
           r="3.0374165"
           transform="rotate(90)" />
        <path
           style="fill:none;stroke:#000000;stroke-width:1;stroke-linecap:round;stroke-miterlimit:4;stroke-dasharray:none"
           d="M 550.29751,81.27601 H 505.52724"
           id="path1333" />
        <circle
           style="fill:none;stroke:#000000;stroke-width:1;stroke-linecap:round;stroke-miterlimit:4;stroke-dasharray:none"
           id="circle1335"
           cx="78.24279"
           cy="-504.96921"
           r="3.0374165"
           transform="rotate(90)" />
        <path
           style="fill:none;stroke:#000000;stroke-width:1;stroke-linecap:round;stroke-miterlimit:4;stroke-dasharray:none"
           d="m 504.85379,75.20758 h 45.16856"
           id="path1337" />
      </g>
      <g
         id="g961"
         transform="rotate(90,194.84934,161.64948)">
        <path
           style="fill:none;stroke:#2b0000;stroke-width:1;stroke-miterlimit:4;stroke-dasharray:none"
           d="m 615.53685,22.783777 v 13.155 0 13.29 0 13.11 0 13.29 0 13.11 0 13.290003 0 13.11 0 13.29 0 13.11 0 13.29 0 13.11 0 13.29 0 13.11 0 13.29 0 13.11 0 13.29 0 13.11 0 13.29 0 13.11 0 13.29 0 13.11 0 13.29 0 13.11 0 13.29 0 7.155"
           id="path1256" />
        <path
           style="fill:none;stroke:#2b0000;stroke-width:1"
           d="m 539.33685,346.78378 v -7.155 0 -13.29 0 -13.11 0 -13.29 0 -13.11 0 -13.29 0 -13.11 0 -13.29 0 -13.11 0 -13.29 0 -13.11 0 -13.29 0 -13.11 0 -13.29 0 -13.11 0 -13.29 0 -13.11 0 -13.29 0 -13.11 0 -13.290003 0 -13.11 0 -13.29 0 -13.11 0 -13.29 0 -13.155"
           id="path1260" />
        <path
           style="fill:none;stroke:#2b0000;stroke-width:1"
           d="m 539.33685,22.783777 h 6.645 v 6 h 12.51 v -6 h 12.69 v 6 h 12.51 v -6 h 12.69 v 6 h 12.51 v -6 h 6.645"
           id="path1262" />
        <path
           style="fill:none;stroke:#2b0000;stroke-width:1;stroke-linecap:round;stroke-miterlimit:4;stroke-dasharray:none"
           d="m 615.53686,346.78377 c 0,0 1.60269,59.57994 -47.5313,101.43359"
           id="path1383"
           sodipodi:nodetypes="cc" />
        <path
           style="fill:none;stroke:#2b0000;stroke-width:1;stroke-linecap:round;stroke-miterlimit:4;stroke-dasharray:none"
           d="M 539.33686,431.52822 V 346.78377"
           id="path1387"
           sodipodi:nodetypes="cc" />
      </g>
    </g>
    <g
       id="g1011"
       transform="translate(5e-5,-0.6149)">
      <g
         id="panel6043"
         transform="translate(-231.62015,93.45963)"
         style="stroke:#008000">
        <path
           style="fill:none;stroke:#008000;stroke-width:1"
           d="m 701.03962,-78.22361 v 6.57 h 6 v 12.706 h -6 v 12.525 h 6 v 12.706 h -6 v 12.525 h 6 v 12.705 h -6 v 12.526 h 6 v 12.705 h -6 v 12.525 h 6 v 12.706 h -6 v 12.525 h 6 v 12.706 h -6 v 6.57"
           id="path1058" />
        <path
           style="fill:none;stroke:#008000;stroke-width:1"
           d="m 701.03962,73.77639 h -6.5914 v 0 h -12.7263 v 0 h -12.5464 v 0 h -12.7264 v 0 h -12.5463 v 0 h -12.7264 v 0 h -12.5463 v 0 h -12.7265 v 0 h -12.546 v 0 h -12.727 v 0 h -6.591"
           id="path1060" />
        <path
           style="fill:none;stroke:#008000;stroke-width:1"
           d="m 574.03962,73.77639 v -6.57 h -6 v -12.706 h 6 v -12.525 h -6 v -12.706 h 6 v -12.525 h -6 v -12.705 h 6 v -12.526 h -6 v -12.705 h 6 v -12.525 h -6 v -12.706 h 6 v -12.525 h -6 v -12.706 h 6 v -6.57"
           id="path1062" />
        <path
           style="fill:none;stroke:#008000;stroke-width:1"
           d="m 574.03962,-78.22361 h 6.591 v -6 h 12.727 v 6 h 12.546 v -6 h 12.7265 v 6 h 12.5463 v -6 h 12.7264 v 6 h 12.5463 v -6 h 12.7264 v 6 h 12.5464 v -6 h 12.7263 v 6 h 6.5914"
           id="path1064" />
      </g>
      <circle
         style="fill:none;stroke:#008000;stroke-width:0.529;stroke-linecap:round;stroke-miterlimit:4;stroke-dasharray:none"
         id="circle983"
         cx="405.51846"
         cy="156.45148"
         r="3.0374165" />
    </g>
    <g
       id="g1170"
       transform="translate(-61.654078,-160.15829)">
      <g
         id="panel8660"
         transform="translate(81.214765,492.63853)"
         style="stroke:#800000">
        <path
           style="fill:none;stroke:#800000;stroke-width:1"
           d="m 336.2,6.1 h 6.591 v 0 h 12.727 v 0 h 12.546 v 0 h 12.726 v 0 h 12.547 v 0 h 12.726 v 0 h 12.547 v 0 h 12.726 v 0 h 12.546 v 0 h 12.727 v 0 h 6.591"
           id="path1247" />
        <path
           style="fill:none;stroke:#800000;stroke-width:1"
           d="m 463.2,6.1 v 6.555 h 6 v 12.69 h -6 v 12.51 h 6 v 12.69 h -6 v 12.51 h 6 v 12.69 h -6 V 82.3"
           id="path1249" />
        <path
           style="fill:none;stroke:#800000;stroke-width:1"
           d="m 463.2,82.3 h -6.591 v 0 h -12.727 v 0 h -12.546 v 0 H 418.61 v 0 h -12.547 v 0 h -12.726 v 0 H 380.79 v 0 h -12.726 v 0 h -12.546 v 0 h -12.727 v 0 H 336.2"
           id="path1251" />
        <path
           style="fill:none;stroke:#800000;stroke-width:1"
           d="m 336.2,82.3 v -6.555 0 -12.69 0 -12.51 0 -12.69 0 -12.51 0 -12.69 0 V 6.1"
           id="path1253" />
      </g>
      <g
         id="g1139"
         transform="rotate(90,269.17465,282.99089)"
         style="stroke:#800000">
        <circle
           style="fill:none;stroke:#800000;stroke-width:1;stroke-linecap:round;stroke-miterlimit:4;stroke-dasharray:none"
           id="circle1131"
           cx="78.24279"
           cy="-550.13776"
           r="3.0374165"
           transform="rotate(90)" />
        <path
           style="fill:none;stroke:#800000;stroke-width:1;stroke-linecap:round;stroke-miterlimit:4;stroke-dasharray:none"
           d="M 550.29751,81.27601 H 505.52724"
           id="path1133" />
        <circle
           style="fill:none;stroke:#800000;stroke-width:1;stroke-linecap:round;stroke-miterlimit:4;stroke-dasharray:none"
           id="circle1135"
           cx="78.24279"
           cy="-504.96921"
           r="3.0374165"
           transform="rotate(90)" />
        <path
           style="fill:none;stroke:#800000;stroke-width:1;stroke-linecap:round;stroke-miterlimit:4;stroke-dasharray:none"
           d="m 504.85379,75.20758 h 45.16856"
           id="path1137" />
      </g>
    </g>
    <path
       style="fill:none;stroke:#000000;stroke-width:1;stroke-linecap:round;stroke-miterlimit:4;stroke-dasharray:none"
       d="m 414.15291,463.65263 c 22.46212,0.83891 19.99321,22.07911 18.09687,26.45935 -0.86472,1.99738 -1.67118,3.02676 -1.67118,3.02676"
       id="path890"
       sodipodi:nodetypes="csc" />
  </g>
</svg>
