<?xml version="1.0" encoding="UTF-8" standalone="no"?>
<svg
   xmlns:dc="http://purl.org/dc/elements/1.1/"
   xmlns:cc="http://creativecommons.org/ns#"
   xmlns:rdf="http://www.w3.org/1999/02/22-rdf-syntax-ns#"
   xmlns:svg="http://www.w3.org/2000/svg"
   xmlns="http://www.w3.org/2000/svg"
   xmlns:sodipodi="http://sodipodi.sourceforge.net/DTD/sodipodi-0.dtd"
   xmlns:inkscape="http://www.inkscape.org/namespaces/inkscape"
   sodipodi:docname="MdfDustHood_Part1.svg"
   inkscape:version="1.0.1 (3bc2e813f5, 2020-09-07)"
   id="svg27734"
   version="1.1"
   viewBox="0 0 495.3 279.40001"
   height="11in"
   width="19.5in">
  <defs
     id="defs27728" />
  <sodipodi:namedview
     id="base"
     pagecolor="#ffffff"
     bordercolor="#00ff00"
     borderopacity="1"
     inkscape:pageopacity="0.0"
     inkscape:pageshadow="2"
     inkscape:zoom="0.7"
     inkscape:cx="1333.3935"
     inkscape:cy="368.50948"
     inkscape:document-units="mm"
     inkscape:current-layer="layer1"
     inkscape:document-rotation="0"
     showgrid="false"
     units="in"
     inkscape:pagecheckerboard="false"
     inkscape:showpageshadow="false"
     borderlayer="false"
     inkscape:window-width="2131"
     inkscape:window-height="1368"
     inkscape:window-x="1273"
     inkscape:window-y="1080"
     inkscape:window-maximized="0" />
  <metadata
     id="metadata27731">
    <rdf:RDF>
      <cc:Work
         rdf:about="">
        <dc:format>image/svg+xml</dc:format>
        <dc:type
           rdf:resource="http://purl.org/dc/dcmitype/StillImage" />
        <dc:title></dc:title>
      </cc:Work>
    </rdf:RDF>
  </metadata>
  <g
     inkscape:label="Layer 1"
     inkscape:groupmode="layer"
     id="layer1">
    <g
       id="panel1465"
       transform="translate(-330.2,0.09)">
      <path
         style="fill:none;stroke:#000000;stroke-width:1"
         d="m 666.3,6.1 h 6.57 v -6 h 12.706 v 6 h 12.525 v -6 h 12.706 v 6 h 12.525 v -6 h 12.705 v 6 h 12.526 v -6 h 12.705 v 6 h 12.525 v -6 h 12.706 v 6 h 12.525 v -6 h 12.706 v 6 h 6.57"
         id="path931" />
      <path
         style="fill:none;stroke:#000000;stroke-width:1"
         d="m 818.3,6.1 v 6.5914 h 6 v 12.7263 h -6 v 12.5464 h 6 v 12.7264 h -6 v 12.5463 h 6 v 12.7264 h -6 v 12.5463 h 6 v 12.7265 h -6 v 12.546 h 6 v 12.727 h -6 v 6.591"
         id="path933" />
      <path
         style="fill:none;stroke:#000000;stroke-width:1"
         d="m 818.3,133.1 h -6.57 v 6 h -12.706 v -6 h -12.525 v 6 h -12.706 v -6 h -12.525 v 6 h -12.705 v -6 h -12.526 v 6 h -12.705 v -6 h -12.525 v 6 h -12.706 v -6 h -12.525 v 6 H 672.87 v -6 h -6.57"
         id="path935" />
      <path
         style="fill:none;stroke:#000000;stroke-width:1"
         d="m 666.3,133.1 v -6.591 h -6 v -12.727 h 6 v -12.546 h -6 V 88.5095 h 6 V 75.9632 h -6 V 63.2368 h 6 V 50.6905 h -6 V 37.9641 h 6 V 25.4177 h -6 V 12.6914 h 6 V 6.1"
         id="path937" />
    </g>
    <g
       id="panel2465">
      <path
         style="fill:none;stroke:#000000;stroke-width:1"
         d="M 0.1 0.1 L 13.345 0.1 L 13.345 6.1 L 26.455 6.1 L 26.455 0.1 L 39.745 0.1 L 39.745 6.1 L 52.855 6.1 L 52.855 0.1 L 66.145 0.1 L 66.145 6.1 L 79.255 6.1 L 79.255 0.1 L 92.545 0.1 L 92.545 6.1 L 105.655 6.1 L 105.655 0.1 L 118.945 0.1 L 118.945 6.1 L 132.055 6.1 L 132.055 0.1 L 145.345 0.1 L 145.345 6.1 L 158.455 6.1 L 158.455 0.1 L 171.745 0.1 L 171.745 6.1 L 184.855 6.1 L 184.855 0.1 L 198.145 0.1 L 198.145 6.1 L 211.255 6.1 L 211.255 0.1 L 224.545 0.1 L 224.545 6.1 L 237.655 6.1 L 237.655 0.1 L 250.945 0.1 L 250.945 6.1 L 264.055 6.1 L 264.055 0.1 L 277.345 0.1 L 277.345 6.1 L 290.455 6.1 L 290.455 0.1 L 303.745 0.1 L 303.745 6.1 L 316.855 6.1 L 316.855 0.1 L 330.1 0.1"
         id="path940" />
      <path
         style="fill:none;stroke:#000000;stroke-width:1"
         d="M 330.1 0.1 L 330.1 12.7814 L 324.1 12.7814 L 324.1 25.3277 L 330.1 25.3277 L 330.1 38.0541 L 324.1 38.0541 L 324.1 50.6005 L 330.1 50.6005 L 330.1 63.3268 L 324.1 63.3268 L 324.1 75.8732 L 330.1 75.8732 L 330.1 88.5995 L 324.1 88.5995 L 324.1 101.146 L 330.1 101.146 L 330.1 113.872 L 324.1 113.872 L 324.1 126.419 L 330.1 126.419 L 330.1 139.1"
         id="path942" />
      <path
         style="fill:none;stroke:#000000;stroke-width:1"
         d="M 330.1 139.1 L 316.855 139.1 L 316.855 133.1 L 303.745 133.1 L 303.745 139.1 L 290.455 139.1 L 290.455 133.1 L 277.345 133.1 L 277.345 139.1 L 264.055 139.1 L 264.055 133.1 L 250.945 133.1 L 250.945 139.1 L 237.655 139.1 L 237.655 133.1 L 224.545 133.1 L 224.545 139.1 L 211.255 139.1 L 211.255 133.1 L 198.145 133.1 L 198.145 139.1 L 184.855 139.1 L 184.855 133.1 L 171.745 133.1 L 171.745 139.1 L 158.455 139.1 L 158.455 133.1 L 145.345 133.1 L 145.345 139.1 L 132.055 139.1 L 132.055 133.1 L 118.945 133.1 L 118.945 139.1 L 105.655 139.1 L 105.655 133.1 L 92.545 133.1 L 92.545 139.1 L 79.255 139.1 L 79.255 133.1 L 66.145 133.1 L 66.145 139.1 L 52.855 139.1 L 52.855 133.1 L 39.745 133.1 L 39.745 139.1 L 26.455 139.1 L 26.455 133.1 L 13.345 133.1 L 13.345 139.1 L 0.1 139.1"
         id="path944" />
      <path
         style="fill:none;stroke:#000000;stroke-width:1"
         d="M 0.1 139.1 L 0.1 126.419 L 6.1 126.419 L 6.1 113.872 L 0.1 113.872 L 0.1 101.146 L 6.1 101.146 L 6.1 88.5995 L 0.1 88.5995 L 0.1 75.8732 L 6.1 75.8732 L 6.1 63.3268 L 0.1 63.3268 L 0.1 50.6005 L 6.1 50.6005 L 6.1 38.0541 L 0.1 38.0541 L 0.1 25.3277 L 6.1 25.3277 L 6.1 12.7814 L 0.1 12.7814 L 0.1 0.1"
         id="path946" />
    </g>
    <g
       id="panel819"
       transform="translate(-330.1,139)">
      <path
         style="fill:none;stroke:#000000;stroke-width:1"
         d="m 330.2,0.1 h 13.245 v 6 h 13.11 v -6 h 13.29 v 6 h 13.11 v -6 h 13.29 v 6 h 13.11 v -6 h 13.29 v 6 h 13.11 v -6 h 13.29 v 6 h 13.11 v -6 h 13.29 v 6 h 13.11 v -6 h 13.29 v 6 h 13.11 v -6 h 13.29 v 6 h 13.11 v -6 h 13.29 v 6 h 13.11 v -6 h 13.29 v 6 h 13.11 v -6 h 13.29 v 6 h 13.11 v -6 h 13.29 v 6 h 13.11 v -6 H 660.2"
         id="path949" />
      <path
         style="fill:none;stroke:#000000;stroke-width:1"
         d="m 660.2,0.1 v 12.6814 h -6 v 12.5463 h 6 v 12.7264 h -6 v 12.5464 h 6 v 12.7263 h -6 v 12.5464 h 6 v 12.7263 h -6 v 12.5465 h 6 v 12.726 h -6 v 12.547 h 6 V 139.1"
         id="path951" />
      <path
         style="fill:none;stroke:#000000;stroke-width:1"
         d="m 660.2,139.1 h -13.245 v -6 h -13.11 v 6 h -13.29 v -6 h -13.11 v 6 h -13.29 v -6 h -13.11 v 6 h -13.29 v -6 h -13.11 v 6 h -13.29 v -6 h -13.11 v 6 h -13.29 v -6 h -13.11 v 6 h -13.29 v -6 h -13.11 v 6 h -13.29 v -6 h -13.11 v 6 h -13.29 v -6 h -13.11 v 6 h -13.29 v -6 h -13.11 v 6 h -13.29 v -6 h -13.11 v 6 h -13.29 v -6 h -13.11 v 6 H 330.2"
         id="path953" />
      <path
         style="fill:none;stroke:#000000;stroke-width:1"
         d="m 330.2,139.1 v -12.681 h 6 v -12.547 h -6 v -12.726 h 6 V 88.5995 h -6 V 75.8732 h 6 V 63.3268 h -6 V 50.6005 h 6 V 38.0541 h -6 V 25.3277 h 6 V 12.7814 h -6 V 0.1"
         id="path955" />
    </g>
    <g
       id="panel2346"
       transform="translate(-494.3,138.91)">
      <path
         style="fill:none;stroke:#000000;stroke-width:1"
         d="m 830.4,6.1 h 6.57 v -6 h 12.706 v 6 h 12.525 v -6 h 12.706 v 6 h 12.525 v -6 h 12.705 v 6 h 12.526 v -6 h 12.705 v 6 h 12.525 v -6 h 12.706 v 6 h 12.525 v -6 h 12.706 v 6 h 6.57"
         id="path958" />
      <path
         style="fill:none;stroke:#000000;stroke-width:1"
         d="m 982.4,6.1 v 6.5914 h 6 v 12.7263 h -6 v 12.5464 h 6 v 12.7264 h -6 v 12.5463 h 6 v 12.7264 h -6 v 12.5463 h 6 v 12.7265 h -6 v 12.546 h 6 v 12.727 h -6 v 6.591"
         id="path960" />
      <path
         style="fill:none;stroke:#000000;stroke-width:1"
         d="m 982.4,133.1 h -6.57 v 6 h -12.706 v -6 h -12.525 v 6 h -12.706 v -6 h -12.525 v 6 h -12.705 v -6 h -12.526 v 6 h -12.705 v -6 h -12.525 v 6 h -12.706 v -6 h -12.525 v 6 H 836.97 v -6 h -6.57"
         id="path962" />
      <path
         style="fill:none;stroke:#000000;stroke-width:1"
         d="m 830.4,133.1 v -6.591 h -6 v -12.727 h 6 v -12.546 h -6 V 88.5095 h 6 V 75.9632 h -6 V 63.2368 h 6 V 50.6905 h -6 V 37.9641 h 6 V 25.4177 h -6 V 12.6914 h 6 V 6.1"
         id="path964" />
    </g>
    <circle
       style="fill:none;stroke:#000000;stroke-width:0.52917;stroke-linecap:round"
       id="path1026"
       cx="412.10001"
       cy="69.690002"
       r="50.535416" />
  </g>
</svg>
