<?xml version="1.0" encoding="UTF-8" standalone="no"?>
<svg
   xmlns:dc="http://purl.org/dc/elements/1.1/"
   xmlns:cc="http://creativecommons.org/ns#"
   xmlns:rdf="http://www.w3.org/1999/02/22-rdf-syntax-ns#"
   xmlns:svg="http://www.w3.org/2000/svg"
   xmlns="http://www.w3.org/2000/svg"
   xmlns:sodipodi="http://sodipodi.sourceforge.net/DTD/sodipodi-0.dtd"
   xmlns:inkscape="http://www.inkscape.org/namespaces/inkscape"
   inkscape:version="1.0.2 (e86c870879, 2021-01-15, custom)"
   width="19.5in"
   height="11in"
   viewBox="0 0 495.30001 279.40001"
   version="1.1"
   id="svg8"
   sodipodi:docname="RouterHolder.svg">
  <defs
     id="defs2" />
  <sodipodi:namedview
     id="base"
     pagecolor="#ffffff"
     bordercolor="#666666"
     borderopacity="1.0"
     inkscape:pageopacity="0.0"
     inkscape:pageshadow="2"
     inkscape:zoom="0.35"
     inkscape:cx="147.64815"
     inkscape:cy="-283.67284"
     inkscape:document-units="mm"
     inkscape:current-layer="layer1"
     inkscape:document-rotation="0"
     showgrid="false"
     inkscape:window-width="3840"
     inkscape:window-height="2066"
     inkscape:window-x="-11"
     inkscape:window-y="-11"
     inkscape:window-maximized="1"
     units="in"
     inkscape:snap-nodes="true">
    <sodipodi:guide
       position="0,279.40001"
       orientation="0,1872"
       id="guide561" />
    <sodipodi:guide
       position="496.05226,204.03"
       orientation="1056,0"
       id="guide563" />
    <sodipodi:guide
       position="540.419,-1.2330047"
       orientation="0,-1872"
       id="guide565" />
    <sodipodi:guide
       position="0,0"
       orientation="-1056,0"
       id="guide567" />
  </sodipodi:namedview>
  <metadata
     id="metadata5">
    <rdf:RDF>
      <cc:Work
         rdf:about="">
        <dc:format>image/svg+xml</dc:format>
        <dc:type
           rdf:resource="http://purl.org/dc/dcmitype/StillImage" />
        <dc:title />
      </cc:Work>
    </rdf:RDF>
  </metadata>
  <g
     inkscape:label="Layer 1"
     inkscape:groupmode="layer"
     id="layer1">
    <g
       aria-label="DCW
600"
       transform="rotate(-90)"
       id="text1583"
       style="font-style:normal;font-variant:normal;font-weight:bold;font-stretch:normal;font-size:10.5833px;line-height:1.25;font-family:sans-serif;-inkscape-font-specification:'sans-serif Bold';text-align:center;letter-spacing:0px;word-spacing:0px;text-anchor:middle;fill:#ff0000;fill-opacity:1;stroke:none;stroke-width:0.264583">
      <path
         d="m -65.760568,103.23106 q 0,1.07486 -0.490925,1.92752 -0.490924,0.84749 -1.24023,1.30224 -0.563271,0.34107 -1.235063,0.47542 -0.671791,0.13436 -1.591629,0.13436 h -2.713004 v -7.694594 h 2.790518 q 0.940509,0 1.622635,0.160197 0.682127,0.155028 1.147213,0.444415 0.795815,0.485762 1.250566,1.312582 0.459919,0.82165 0.459919,1.93786 z m -2.051548,-0.0155 q 0,-0.75964 -0.279052,-1.29707 -0.273884,-0.5426 -0.873329,-0.84749 -0.30489,-0.14986 -0.625283,-0.20154 -0.315225,-0.0568 -0.956011,-0.0568 h -0.501259 v 4.81622 h 0.501259 q 0.707965,0 1.038693,-0.062 0.330729,-0.0672 0.645954,-0.23771 0.542601,-0.31006 0.795814,-0.82682 0.253214,-0.52193 0.253214,-1.28674 z"
         style="font-style:normal;font-variant:normal;font-weight:bold;font-stretch:normal;font-family:sans-serif;-inkscape-font-specification:'sans-serif Bold';text-align:center;text-anchor:middle;fill:#ff0000;stroke-width:0.264583"
         id="path10943" />
      <path
         d="m -60.768641,107.22046 q -0.857826,0 -1.586461,-0.25321 -0.723468,-0.25321 -1.245398,-0.75447 -0.52193,-0.50126 -0.811318,-1.25057 -0.284219,-0.74931 -0.284219,-1.73115 0,-0.91467 0.273884,-1.65881 0.273884,-0.74414 0.795815,-1.27641 0.50126,-0.511591 1.24023,-0.790643 0.744138,-0.279052 1.622635,-0.279052 0.485757,0 0.873329,0.05684 0.39274,0.05168 0.723468,0.139526 0.346231,0.09819 0.625282,0.222208 0.28422,0.118855 0.496093,0.222208 v 1.865509 h -0.227376 q -0.144693,-0.12402 -0.366901,-0.29455 -0.217041,-0.17053 -0.496093,-0.3359 -0.284219,-0.16536 -0.614947,-0.27905 -0.330728,-0.11369 -0.707965,-0.11369 -0.418578,0 -0.795815,0.13436 -0.377236,0.12919 -0.697629,0.43408 -0.30489,0.29456 -0.496092,0.78031 -0.186035,0.48576 -0.186035,1.17822 0,0.72347 0.201537,1.20923 0.206706,0.48575 0.516763,0.76481 0.315225,0.28422 0.702797,0.40824 0.387572,0.11885 0.764809,0.11885 0.361734,0 0.713133,-0.10852 0.356566,-0.10852 0.656288,-0.29455 0.253214,-0.14986 0.470254,-0.32039 0.217041,-0.17053 0.356567,-0.29456 h 0.206705 v 1.83968 q -0.289387,0.12919 -0.552936,0.24288 -0.263549,0.11368 -0.552937,0.19637 -0.377236,0.10852 -0.707964,0.16536 -0.330728,0.0568 -0.909503,0.0568 z"
         style="font-style:normal;font-variant:normal;font-weight:bold;font-stretch:normal;font-family:sans-serif;-inkscape-font-specification:'sans-serif Bold';text-align:center;text-anchor:middle;fill:#ff0000;stroke-width:0.264583"
         id="path10945" />
      <path
         d="m -45.968558,99.376006 -2.072218,7.694594 h -2.196242 l -1.379756,-5.0126 -1.343583,5.0126 h -2.196241 l -2.072219,-7.694594 h 2.072219 l 1.183386,5.296814 1.41593,-5.296814 h 1.979201 l 1.34875,5.296814 1.240231,-5.296814 z"
         style="font-style:normal;font-variant:normal;font-weight:bold;font-stretch:normal;font-family:sans-serif;-inkscape-font-specification:'sans-serif Bold';text-align:center;text-anchor:middle;fill:#ff0000;stroke-width:0.264583"
         id="path10947" />
      <path
         d="m -64.119847,117.67974 q 0,0.59428 -0.21704,1.11621 -0.21704,0.52193 -0.60978,0.87849 -0.418578,0.38241 -0.971514,0.58395 -0.547768,0.20153 -1.286739,0.20153 -0.692462,0 -1.266068,-0.18603 -0.568439,-0.1912 -0.976682,-0.57878 -0.470254,-0.44441 -0.7183,-1.14721 -0.248046,-0.7028 -0.248046,-1.67948 0,-1.01285 0.232543,-1.79833 0.232543,-0.78548 0.759641,-1.39009 0.506428,-0.57878 1.312577,-0.89917 0.811318,-0.32039 1.927525,-0.32039 0.377237,0 0.826821,0.0517 0.449583,0.0517 0.583941,0.0775 v 1.51411 h -0.196369 q -0.139526,-0.0672 -0.475422,-0.14986 -0.330728,-0.0879 -0.754474,-0.0879 -0.992184,0 -1.54512,0.48576 -0.552936,0.48576 -0.666624,1.35392 0.397907,-0.23771 0.837156,-0.38241 0.444416,-0.14986 0.956011,-0.14986 0.449583,0 0.831988,0.10335 0.387572,0.10336 0.7183,0.33073 0.428913,0.29972 0.687294,0.80615 0.258381,0.50643 0.258381,1.26607 z m -2.35127,1.16272 q 0.160197,-0.1757 0.253214,-0.41341 0.09819,-0.24288 0.09819,-0.65629 0,-0.37724 -0.10852,-0.61495 -0.108521,-0.24288 -0.299723,-0.38757 -0.186034,-0.1447 -0.439248,-0.19637 -0.253214,-0.0568 -0.52193,-0.0568 -0.227376,0 -0.475422,0.0517 -0.248046,0.0517 -0.454751,0.12919 0,0.0517 -0.0052,0.17053 -0.0052,0.11886 -0.0052,0.29973 0,0.63561 0.124023,1.04902 0.12919,0.40825 0.341063,0.62529 0.144694,0.16019 0.341063,0.23771 0.19637,0.0723 0.423746,0.0723 0.170531,0 0.377237,-0.0775 0.206705,-0.0775 0.351398,-0.23254 z"
         style="font-style:normal;font-variant:normal;font-weight:bold;font-stretch:normal;font-family:sans-serif;-inkscape-font-specification:'sans-serif Bold';text-align:center;text-anchor:middle;fill:#ff0000;stroke-width:0.264583"
         id="path10949" />
      <path
         d="m -56.637123,116.44985 q 0,0.97151 -0.175699,1.74149 -0.1757,0.7648 -0.547769,1.25573 -0.382404,0.50126 -0.981849,0.75964 -0.599445,0.25321 -1.477941,0.25321 -0.862994,0 -1.472774,-0.25838 -0.60978,-0.25838 -0.987017,-0.76481 -0.382404,-0.50642 -0.552936,-1.25573 -0.170531,-0.75447 -0.170531,-1.72599 0,-1.00252 0.175699,-1.74149 0.175699,-0.73897 0.558104,-1.25056 0.382404,-0.50643 0.992184,-0.75964 0.60978,-0.25322 1.457271,-0.25322 0.883664,0 1.483109,0.26355 0.599444,0.25838 0.981849,0.77514 0.377237,0.50643 0.547768,1.25057 0.170532,0.73897 0.170532,1.71049 z m -1.999872,0 q 0,-1.39526 -0.273884,-1.98437 -0.273884,-0.59428 -0.909502,-0.59428 -0.635618,0 -0.909503,0.59428 -0.273884,0.58911 -0.273884,1.9947 0,1.36942 0.279052,1.97403 0.279052,0.60462 0.904335,0.60462 0.625283,0 0.904334,-0.60462 0.279052,-0.60461 0.279052,-1.98436 z"
         style="font-style:normal;font-variant:normal;font-weight:bold;font-stretch:normal;font-family:sans-serif;-inkscape-font-specification:'sans-serif Bold';text-align:center;text-anchor:middle;fill:#ff0000;stroke-width:0.264583"
         id="path10951" />
      <path
         d="m -49.113059,116.44985 q 0,0.97151 -0.175699,1.74149 -0.175699,0.7648 -0.547768,1.25573 -0.382405,0.50126 -0.981849,0.75964 -0.599445,0.25321 -1.477942,0.25321 -0.862993,0 -1.472773,-0.25838 -0.60978,-0.25838 -0.987017,-0.76481 -0.382404,-0.50642 -0.552936,-1.25573 -0.170532,-0.75447 -0.170532,-1.72599 0,-1.00252 0.1757,-1.74149 0.175699,-0.73897 0.558103,-1.25056 0.382405,-0.50643 0.992185,-0.75964 0.60978,-0.25322 1.45727,-0.25322 0.883665,0 1.483109,0.26355 0.599445,0.25838 0.981849,0.77514 0.377237,0.50643 0.547769,1.25057 0.170531,0.73897 0.170531,1.71049 z m -1.999871,0 q 0,-1.39526 -0.273884,-1.98437 -0.273885,-0.59428 -0.909503,-0.59428 -0.635618,0 -0.909502,0.59428 -0.273884,0.58911 -0.273884,1.9947 0,1.36942 0.279052,1.97403 0.279051,0.60462 0.904334,0.60462 0.625283,0 0.904335,-0.60462 0.279052,-0.60461 0.279052,-1.98436 z"
         style="font-style:normal;font-variant:normal;font-weight:bold;font-stretch:normal;font-family:sans-serif;-inkscape-font-specification:'sans-serif Bold';text-align:center;text-anchor:middle;fill:#ff0000;stroke-width:0.264583"
         id="path10953" />
    </g>
    <ellipse
       style="fill:none;stroke:#000000;stroke-width:0.503096"
       id="ellipse1147"
       cx="191.14128"
       cy="137.5"
       rx="6.0984516"
       ry="6.0984521" />
    <ellipse
       style="fill:none;stroke:#000000;stroke-width:0.503096"
       id="ellipse1149"
       cx="166.22502"
       cy="137.5"
       rx="6.0984516"
       ry="6.0984521" />
    <ellipse
       style="fill:none;stroke:#000000;stroke-width:0.503096"
       id="ellipse1151"
       cx="240.21782"
       cy="137.5"
       rx="6.0984516"
       ry="6.0984521" />
    <ellipse
       style="fill:none;stroke:#000000;stroke-width:0.503096"
       id="ellipse1153"
       cx="215.30159"
       cy="137.5"
       rx="6.0984516"
       ry="6.0984521" />
    <g
       id="panel5188"
       transform="translate(-64,-64.000002)">
      <path
         style="fill:none;stroke:#000000;stroke-width:1"
         d="m 64,190 h 15.7328 v -6 h 15.8678 v 6 h 15.6874 v -6 h 15.868 v 6 h 15.688 v -6 h 15.868 v 6 h 15.687 v -6 h 15.868 v 6 H 206"
         id="path7340" />
      <path
         style="fill:none;stroke:#000000;stroke-width:1"
         d="m 206,190 v 14.712 h -6 v 20.576 h 6 V 240"
         id="path7342" />
      <path
         style="fill:none;stroke:#000000;stroke-width:1"
         d="m 206,240 h -15.733 v 0 h -15.868 v 0 h -15.687 v 0 h -15.868 v 0 h -15.688 v 0 h -15.868 v 0 H 95.6006 v 0 H 79.7328 v 0 H 64"
         id="path7344" />
      <path
         style="fill:none;stroke:#000000;stroke-width:1"
         d="m 64,240 v -14.712 h 6 V 204.712 H 64 V 190"
         id="path7346" />
    </g>
    <g
       id="g8261"
       transform="translate(-2.64583)">
      <path
         style="fill:none;stroke:#000000;stroke-width:1"
         d="m 201.64585,5.999998 h 14.6217 v -6 h 20.7566 v 6 h 14.6217"
         id="path7349" />
      <path
         style="fill:none;stroke:#000000;stroke-width:1"
         d="m 251.64585,5.999998 v 10.955 h 6 v 17.09 h -6 v 16.91 h 6 v 17.09 h -6 v 16.91 h 6 V 102.045 h -6 V 113"
         id="path7351" />
      <path
         style="fill:none;stroke:#000000;stroke-width:1"
         d="m 251.64585,113 h -14.6217 v 6 h -20.7566 v -6 h -14.6217"
         id="path7353" />
    </g>
    <g
       id="panel9862"
       style="stroke-width:1;stroke-miterlimit:4;stroke-dasharray:none"
       transform="translate(-64,-64.000002)">
      <path
         style="fill:none;stroke:#000000;stroke-width:1;stroke-miterlimit:4;stroke-dasharray:none"
         d="m 64,64 h 15.8228 v 6 h 15.6878 v -6 h 15.8674 v 6 h 15.688 v -6 h 15.868 v 6 h 15.688 v -6 h 15.867 v 6 h 15.688 V 64 H 206"
         id="path7358" />
      <path
         style="fill:none;stroke:#000000;stroke-width:1;stroke-miterlimit:4;stroke-dasharray:none"
         d="m 206,64 v 17.045 h -6 v 16.91 h 6 v 17.09 h -6 v 16.91 h 6 v 17.09 h -6 v 16.91 h 6 V 183"
         id="path7360" />
      <path
         style="fill:none;stroke:#000000;stroke-width:1;stroke-miterlimit:4;stroke-dasharray:none"
         d="m 206,183 h -15.823 v -6 h -15.688 v 6 h -15.867 v -6 h -15.688 v 6 h -15.868 v -6 h -15.688 v 6 H 95.5106 v -6 H 79.8228 v 6 H 64"
         id="path7362" />
      <path
         style="fill:none;stroke:#000000;stroke-width:1;stroke-miterlimit:4;stroke-dasharray:none"
         d="m 64,183 v -17.045 h 6 v -16.91 h -6 v -17.09 h 6 v -16.91 h -6 v -17.09 h 6 V 81.045 H 64 V 64"
         id="path7364" />
    </g>
    <g
       id="panel1608"
       transform="translate(-64,-64.000002)">
      <path
         style="fill:none;stroke:#000000;stroke-width:1"
         d="m 213,70 h 14.622 v -6 h 20.756 v 6 H 263"
         id="path7367" />
      <path
         style="fill:none;stroke:#000000;stroke-width:1"
         d="m 263,70 v 10.955 0 17.09 0 16.91 0 17.09 0 16.91 0 17.09 0 V 177"
         id="path7369" />
      <path
         style="fill:none;stroke:#000000;stroke-width:1"
         d="m 263,177 h -14.622 v 6 h -20.756 v -6 H 213"
         id="path7371" />
      <path
         style="fill:none;stroke:#000000;stroke-width:1"
         d="m 213,177 v -10.955 h -6 v -17.09 h 6 v -16.91 h -6 v -17.09 h 6 v -16.91 h -6 v -17.09 h 6 V 70"
         id="path7373" />
    </g>
    <g
       id="g8252"
       transform="translate(0,-2.6458322)">
      <path
         style="fill:none;stroke:#000000;stroke-width:1"
         d="m 142,178.64585 v 14.7117 h -6 v 20.5766 h 6 v 14.7117"
         id="path7378" />
      <path
         style="fill:none;stroke:#000000;stroke-width:1"
         d="m 142,228.64585 h -15.733 v 6 h -15.868 v -6 H 94.712 v 6 H 78.844 v -6 H 63.156 v 6 H 47.288 v -6 H 31.6006 v 6 H 15.7328 v -6 H 0"
         id="path7380" />
      <path
         style="fill:none;stroke:#000000;stroke-width:1"
         d="m 0,228.64585 v -14.7117 h 6 v -20.5766 H 0 v -14.7117"
         id="path7382" />
    </g>
    <path
       style="fill:none;stroke:#000000;stroke-width:0.824626;stroke-linecap:butt;stroke-linejoin:miter;stroke-miterlimit:4;stroke-dasharray:none;stroke-opacity:1"
       d="M 255.05372,117.30775 H 371.73889 V 0.58333782"
       id="path7416"
       sodipodi:nodetypes="ccc" />
    <circle
       style="fill:none;stroke:#000000;stroke-width:1;stroke-miterlimit:4;stroke-dasharray:none"
       id="path7420"
       cx="66.760574"
       cy="59.500008"
       r="17.420298" />
    <g
       aria-label="DCW
600"
       transform="rotate(90)"
       id="text8267"
       style="font-style:normal;font-variant:normal;font-weight:bold;font-stretch:normal;font-size:10.5833px;line-height:1.25;font-family:sans-serif;-inkscape-font-specification:'sans-serif Bold';text-align:center;letter-spacing:0px;word-spacing:0px;text-anchor:middle;fill:#ff0000;fill-opacity:1;stroke:none;stroke-width:0.264583">
      <path
         d="m 53.239417,-180.06515 q 0,1.07487 -0.490925,1.92753 -0.490924,0.84749 -1.24023,1.30224 -0.563272,0.34106 -1.235063,0.47542 -0.671792,0.13436 -1.591629,0.13436 h -2.713004 v -7.6946 h 2.790518 q 0.940508,0 1.622635,0.1602 0.682127,0.15503 1.147213,0.44441 0.795815,0.48576 1.250566,1.31258 0.459919,0.82165 0.459919,1.93786 z m -2.051548,-0.0155 q 0,-0.75964 -0.279052,-1.29708 -0.273884,-0.5426 -0.873329,-0.84749 -0.30489,-0.14986 -0.625283,-0.20153 -0.315225,-0.0568 -0.956011,-0.0568 h -0.50126 v 4.81623 h 0.50126 q 0.707965,0 1.038693,-0.062 0.330728,-0.0672 0.645954,-0.23771 0.5426,-0.31006 0.795814,-0.82682 0.253214,-0.52193 0.253214,-1.28674 z"
         style="font-style:normal;font-variant:normal;font-weight:bold;font-stretch:normal;font-family:sans-serif;-inkscape-font-specification:'sans-serif Bold';text-align:center;text-anchor:middle;fill:#ff0000;stroke-width:0.264583"
         id="path10956" />
      <path
         d="m 58.231344,-176.07574 q -0.857826,0 -1.586461,-0.25321 -0.723468,-0.25322 -1.245398,-0.75448 -0.521931,-0.50126 -0.811318,-1.25056 -0.284219,-0.74931 -0.284219,-1.73116 0,-0.91467 0.273884,-1.65881 0.273884,-0.74413 0.795814,-1.2764 0.50126,-0.51159 1.240231,-0.79065 0.744138,-0.27905 1.622635,-0.27905 0.485757,0 0.873329,0.0569 0.392739,0.0517 0.723467,0.13952 0.346231,0.0982 0.625283,0.22221 0.28422,0.11885 0.496092,0.22221 v 1.86551 h -0.227375 q -0.144694,-0.12402 -0.366902,-0.29455 -0.21704,-0.17054 -0.496092,-0.3359 -0.284219,-0.16536 -0.614947,-0.27905 -0.330729,-0.11369 -0.707965,-0.11369 -0.418578,0 -0.795815,0.13436 -0.377237,0.12919 -0.697629,0.43408 -0.30489,0.29455 -0.496093,0.78031 -0.186034,0.48576 -0.186034,1.17822 0,0.72347 0.201537,1.20922 0.206705,0.48576 0.516763,0.76481 0.315225,0.28422 0.702797,0.40825 0.387572,0.11885 0.764809,0.11885 0.361734,0 0.713132,-0.10852 0.356567,-0.10852 0.656289,-0.29455 0.253214,-0.14986 0.470254,-0.3204 0.21704,-0.17053 0.356566,-0.29455 h 0.206705 v 1.83967 q -0.289387,0.12919 -0.552936,0.24288 -0.263549,0.11369 -0.552936,0.19637 -0.377237,0.10852 -0.707965,0.16537 -0.330728,0.0568 -0.909502,0.0568 z"
         style="font-style:normal;font-variant:normal;font-weight:bold;font-stretch:normal;font-family:sans-serif;-inkscape-font-specification:'sans-serif Bold';text-align:center;text-anchor:middle;fill:#ff0000;stroke-width:0.264583"
         id="path10958" />
      <path
         d="m 73.031427,-183.9202 -2.072219,7.6946 h -2.196241 l -1.379756,-5.0126 -1.343583,5.0126 h -2.196242 l -2.072218,-7.6946 h 2.072218 l 1.183387,5.29682 1.41593,-5.29682 h 1.979201 l 1.34875,5.29682 1.240231,-5.29682 z"
         style="font-style:normal;font-variant:normal;font-weight:bold;font-stretch:normal;font-family:sans-serif;-inkscape-font-specification:'sans-serif Bold';text-align:center;text-anchor:middle;fill:#ff0000;stroke-width:0.264583"
         id="path10960" />
      <path
         d="m 54.880138,-165.61646 q 0,0.59427 -0.21704,1.1162 -0.217041,0.52193 -0.60978,0.8785 -0.418578,0.3824 -0.971514,0.58394 -0.547768,0.20154 -1.286739,0.20154 -0.692462,0 -1.266069,-0.18603 -0.568439,-0.19121 -0.976681,-0.57878 -0.470254,-0.44441 -0.7183,-1.14721 -0.248046,-0.7028 -0.248046,-1.67948 0,-1.01286 0.232543,-1.79833 0.232543,-0.78548 0.759641,-1.3901 0.506427,-0.57877 1.312577,-0.89916 0.811318,-0.3204 1.927525,-0.3204 0.377237,0 0.82682,0.0517 0.449584,0.0517 0.583942,0.0775 v 1.51412 h -0.19637 q -0.139526,-0.0672 -0.475421,-0.14986 -0.330728,-0.0879 -0.754474,-0.0879 -0.992184,0 -1.54512,0.48575 -0.552936,0.48576 -0.666624,1.35392 0.397907,-0.23771 0.837155,-0.3824 0.444416,-0.14986 0.956011,-0.14986 0.449584,0 0.831988,0.10335 0.387572,0.10335 0.7183,0.33073 0.428913,0.29972 0.687295,0.80615 0.258381,0.50643 0.258381,1.26607 z m -2.35127,1.16271 q 0.160196,-0.1757 0.253214,-0.41341 0.09819,-0.24288 0.09819,-0.65629 0,-0.37723 -0.108521,-0.61494 -0.10852,-0.24288 -0.299722,-0.38758 -0.186035,-0.14469 -0.439248,-0.19637 -0.253214,-0.0568 -0.521931,-0.0568 -0.227375,0 -0.475421,0.0517 -0.248046,0.0517 -0.454751,0.12919 0,0.0517 -0.0052,0.17053 -0.0052,0.11885 -0.0052,0.29972 0,0.63562 0.124023,1.04903 0.129191,0.40824 0.341064,0.62528 0.144693,0.1602 0.341063,0.23771 0.19637,0.0724 0.423746,0.0724 0.170531,0 0.377236,-0.0775 0.206705,-0.0775 0.351399,-0.23255 z"
         style="font-style:normal;font-variant:normal;font-weight:bold;font-stretch:normal;font-family:sans-serif;-inkscape-font-specification:'sans-serif Bold';text-align:center;text-anchor:middle;fill:#ff0000;stroke-width:0.264583"
         id="path10962" />
      <path
         d="m 62.362862,-166.84636 q 0,0.97152 -0.1757,1.74149 -0.175699,0.76481 -0.547768,1.25573 -0.382405,0.50126 -0.981849,0.75965 -0.599445,0.25321 -1.477941,0.25321 -0.862994,0 -1.472774,-0.25838 -0.60978,-0.25838 -0.987017,-0.76481 -0.382404,-0.50643 -0.552936,-1.25573 -0.170532,-0.75448 -0.170532,-1.72599 0,-1.00252 0.1757,-1.74149 0.175699,-0.73897 0.558103,-1.25057 0.382405,-0.50642 0.992185,-0.75964 0.60978,-0.25321 1.457271,-0.25321 0.883664,0 1.483108,0.26355 0.599445,0.25838 0.98185,0.77514 0.377236,0.50643 0.547768,1.25057 0.170532,0.73897 0.170532,1.71048 z m -1.999872,0 q 0,-1.39526 -0.273884,-1.98437 -0.273884,-0.59427 -0.909502,-0.59427 -0.635619,0 -0.909503,0.59427 -0.273884,0.58911 -0.273884,1.99471 0,1.36942 0.279052,1.97403 0.279052,0.60461 0.904335,0.60461 0.625282,0 0.904334,-0.60461 0.279052,-0.60461 0.279052,-1.98437 z"
         style="font-style:normal;font-variant:normal;font-weight:bold;font-stretch:normal;font-family:sans-serif;-inkscape-font-specification:'sans-serif Bold';text-align:center;text-anchor:middle;fill:#ff0000;stroke-width:0.264583"
         id="path10964" />
      <path
         d="m 69.886926,-166.84636 q 0,0.97152 -0.175699,1.74149 -0.175699,0.76481 -0.547769,1.25573 -0.382404,0.50126 -0.981849,0.75965 -0.599444,0.25321 -1.477941,0.25321 -0.862994,0 -1.472774,-0.25838 -0.60978,-0.25838 -0.987016,-0.76481 -0.382405,-0.50643 -0.552936,-1.25573 -0.170532,-0.75448 -0.170532,-1.72599 0,-1.00252 0.175699,-1.74149 0.1757,-0.73897 0.558104,-1.25057 0.382404,-0.50642 0.992184,-0.75964 0.60978,-0.25321 1.457271,-0.25321 0.883664,0 1.483109,0.26355 0.599445,0.25838 0.981849,0.77514 0.377237,0.50643 0.547768,1.25057 0.170532,0.73897 0.170532,1.71048 z m -1.999871,0 q 0,-1.39526 -0.273885,-1.98437 -0.273884,-0.59427 -0.909502,-0.59427 -0.635618,0 -0.909502,0.59427 -0.273884,0.58911 -0.273884,1.99471 0,1.36942 0.279051,1.97403 0.279052,0.60461 0.904335,0.60461 0.625283,0 0.904335,-0.60461 0.279052,-0.60461 0.279052,-1.98437 z"
         style="font-style:normal;font-variant:normal;font-weight:bold;font-stretch:normal;font-family:sans-serif;-inkscape-font-specification:'sans-serif Bold';text-align:center;text-anchor:middle;fill:#ff0000;stroke-width:0.264583"
         id="path10966" />
    </g>
    <path
       style="fill:none;stroke:#000000;stroke-width:0.824626;stroke-linecap:butt;stroke-linejoin:miter;stroke-miterlimit:4;stroke-dasharray:none;stroke-opacity:1"
       d="M 371.6852,-2.1794872e-6 H 255.00002 V 116.72442 Z"
       id="path8269" />
    <path
       style="fill:none;stroke:#000000;stroke-width:0.824626;stroke-linecap:butt;stroke-linejoin:miter;stroke-miterlimit:4;stroke-dasharray:none;stroke-opacity:1"
       d="M 372.32176,117.36192 H 489.00693 V 0.63750782"
       id="path8271"
       sodipodi:nodetypes="ccc" />
    <path
       style="fill:none;stroke:#000000;stroke-width:0.824626;stroke-linecap:butt;stroke-linejoin:miter;stroke-miterlimit:4;stroke-dasharray:none;stroke-opacity:1"
       d="M 371.73889,117.30776 488.42407,0.58333782 H 371.73889"
       id="path8273"
       sodipodi:nodetypes="ccc" />
    <g
       id="panel3146"
       transform="translate(109.65372,85)">
      <path
         style="fill:none;stroke:#000000;stroke-width:1"
         d="m 34,78 h 8.3079 v -6 h 8.443 v 6 h 8.2629 v -6 h 8.443 v 6 h 8.2629 v -6 h 8.4429 v 6 h 8.263 v -6 h 8.4434 v 6 h 8.262 v -6 h 8.443 v 6 h 8.263 v -6 h 8.443 v 6 h 8.263 v -6 h 8.443 v 6 h 8.263 v -6 h 8.443 v 6 H 176"
         id="path10141" />
      <path
         style="fill:none;stroke:#000000;stroke-width:1"
         d="m 176,78 v 4.7117 h -6 v 10.5766 h 6 V 98"
         id="path10143" />
      <path
         style="fill:none;stroke:#000000;stroke-width:1"
         d="m 176,98 h -8.308 v 0 h -8.443 v 0 h -8.263 v 0 h -8.443 v 0 h -8.263 v 0 h -8.443 v 0 h -8.263 v 0 h -8.443 v 0 h -8.262 v 0 h -8.4434 v 0 h -8.263 v 0 h -8.4429 v 0 h -8.2629 v 0 h -8.443 v 0 h -8.2629 v 0 h -8.443 v 0 H 34"
         id="path10145" />
      <path
         style="fill:none;stroke:#000000;stroke-width:1"
         d="m 34,98 v -4.7117 h 6 V 82.7117 H 34 V 78"
         id="path10147" />
    </g>
    <g
       id="panel8955"
       transform="rotate(180,159.32686,117)">
      <path
         style="fill:none;stroke:#000000;stroke-width:1"
         d="m 7,40 h 4.6217 v -6 h 10.7566 v 6 H 27"
         id="path10150" />
      <path
         style="fill:none;stroke:#000000;stroke-width:1"
         d="m 27,40 v 6.2883 h 6 V 58.7117 H 27 V 65"
         id="path10152" />
      <path
         style="fill:none;stroke:#000000;stroke-width:1"
         d="m 27,65 h -4.6217 v 6 H 11.6217 V 65 H 7"
         id="path10154" />
      <path
         style="fill:none;stroke:#000000;stroke-width:1"
         d="m 7,65 v -6.2883 0 -12.4234 0 V 40"
         id="path10156" />
    </g>
    <g
       id="panel7571"
       transform="translate(108.45132,85)">
      <path
         style="fill:none;stroke:#000000;stroke-width:1"
         d="m 34,34 h 8.3979 v 6 h 8.263 v -6 h 8.4429 v 6 h 8.263 v -6 h 8.4429 v 6 h 8.2629 v -6 h 8.443 v 6 h 8.2634 v -6 h 8.442 v 6 h 8.263 v -6 h 8.443 v 6 h 8.263 v -6 h 8.443 v 6 h 8.263 v -6 h 8.443 v 6 h 8.263 V 34 H 176"
         id="path10159" />
      <path
         style="fill:none;stroke:#000000;stroke-width:1"
         d="m 176,34 v 12.3783 h -6 v 12.2434 h 6 V 71"
         id="path10161" />
      <path
         style="fill:none;stroke:#000000;stroke-width:1"
         d="m 176,71 h -8.398 v -6 h -8.263 v 6 h -8.443 v -6 h -8.263 v 6 h -8.443 v -6 h -8.263 v 6 h -8.443 v -6 h -8.263 v 6 h -8.442 v -6 h -8.2634 v 6 h -8.443 v -6 h -8.2629 v 6 h -8.4429 v -6 h -8.263 v 6 h -8.4429 v -6 h -8.263 v 6 H 34"
         id="path10163" />
      <path
         style="fill:none;stroke:#000000;stroke-width:1"
         d="M 34,71 V 58.6217 h 6 V 46.3783 H 34 V 34"
         id="path10165" />
    </g>
    <g
       id="panel7362"
       transform="translate(108.65404,91.99999)">
      <path
         style="fill:none;stroke:#000000;stroke-width:1"
         d="m 183,40 h 4.622 v -6 h 10.756 v 6 H 203"
         id="path10168" />
      <path
         style="fill:none;stroke:#000000;stroke-width:1"
         d="m 203,40 v 6.2883 0 12.4234 0 V 65"
         id="path10170" />
      <path
         style="fill:none;stroke:#000000;stroke-width:1"
         d="m 203,65 h -4.622 v 6 H 187.622 V 65 H 183"
         id="path10172" />
      <path
         style="fill:none;stroke:#000000;stroke-width:1"
         d="m 183,65 v -6.2883 h -6 V 46.2883 h 6 V 40"
         id="path10174" />
    </g>
    <path
       style="fill:none;stroke:#000000;stroke-width:1"
       d="m 285.65372,183 v 4.71169 h -6 v 10.57659 h 6 v 4.71171"
       id="path10179" />
    <path
       style="fill:none;stroke:#000000;stroke-width:1"
       d="m 285.65372,202.99999 h -8.308 v 6 h -8.443 v -6 h -8.263 v 6 h -8.443 v -6 h -8.263 v 6 h -8.443 v -6 h -8.263 v 6 h -8.443 v -6 h -8.262 v 6 h -8.4434 v -6 h -8.263 v 6 h -8.4429 v -6 h -8.2629 v 6 h -8.443 v -6 h -8.2629 v 6 h -8.443 v -6 h -8.3079"
       id="path10181" />
    <path
       style="fill:none;stroke:#000000;stroke-width:1"
       d="m 143.65372,202.99999 v -4.71171 h 6 v -10.57659 h -6 V 183"
       id="path10183" />
    <ellipse
       style="fill:none;stroke:#000000;stroke-width:0.503096"
       id="ellipse10221"
       cx="264.00018"
       cy="137.5"
       rx="6.0984516"
       ry="6.0984521" />
    <g
       id="panel2777"
       transform="translate(277.65372,111.2883)">
      <path
         style="fill:none;stroke:#000000;stroke-width:1"
         d="m 34,78 h 8.3079 v -6 h 8.443 v 6 h 8.2629 v -6 h 8.443 v 6 h 8.2629 v -6 h 8.4429 v 6 h 8.263 v -6 h 8.4434 v 6 h 8.262 v -6 h 8.443 v 6 h 8.263 v -6 h 8.443 v 6 h 8.263 v -6 h 8.443 v 6 h 8.263 v -6 h 8.443 v 6 H 176"
         id="path10494" />
      <path
         style="fill:none;stroke:#000000;stroke-width:1"
         d="m 176,78 v 4.7117 h -6 v 10.5766 h 6 V 98"
         id="path10496" />
      <path
         style="fill:none;stroke:#000000;stroke-width:1"
         d="m 176,98 h -8.308 v 0 h -8.443 v 0 h -8.263 v 0 h -8.443 v 0 h -8.263 v 0 h -8.443 v 0 h -8.263 v 0 h -8.443 v 0 h -8.262 v 0 h -8.4434 v 0 h -8.263 v 0 h -8.4429 v 0 h -8.2629 v 0 h -8.443 v 0 h -8.2629 v 0 h -8.443 v 0 H 34"
         id="path10498" />
      <path
         style="fill:none;stroke:#000000;stroke-width:1"
         d="m 34,98 v -4.7117 h 6 V 82.7117 H 34 V 78"
         id="path10500" />
    </g>
    <g
       id="panel9320"
       transform="matrix(-1,0,0,1,486.65342,123.5766)">
      <path
         style="fill:none;stroke:#000000;stroke-width:1"
         d="m 7,40 h 4.6217 v -6 h 10.7566 v 6 H 27"
         id="path10503" />
      <path
         style="fill:none;stroke:#000000;stroke-width:1"
         d="m 27,40 v 6.2883 h 6 V 58.7117 H 27 V 65"
         id="path10505" />
      <path
         style="fill:none;stroke:#000000;stroke-width:1"
         d="m 27,65 h -4.6217 v 6 H 11.6217 V 65 H 7"
         id="path10507" />
      <path
         style="fill:none;stroke:#000000;stroke-width:1"
         d="m 7,65 v -6.2883 0 -12.4234 0 V 40"
         id="path10509" />
    </g>
    <g
       id="panel4545"
       transform="translate(277.65372,111.2883)">
      <path
         style="fill:none;stroke:#000000;stroke-width:1"
         d="m 34,34 h 8.3979 v 6 h 8.263 v -6 h 8.4429 v 6 h 8.263 v -6 h 8.4429 v 6 h 8.2629 v -6 h 8.443 v 6 h 8.2634 v -6 h 8.442 v 6 h 8.263 v -6 h 8.443 v 6 h 8.263 v -6 h 8.443 v 6 h 8.263 v -6 h 8.443 v 6 h 8.263 V 34 H 176"
         id="path10512" />
      <path
         style="fill:none;stroke:#000000;stroke-width:1"
         d="m 176,34 v 12.3783 h -6 v 12.2434 h 6 V 71"
         id="path10514" />
      <path
         style="fill:none;stroke:#000000;stroke-width:1"
         d="m 176,71 h -8.398 v -6 h -8.263 v 6 h -8.443 v -6 h -8.263 v 6 h -8.443 v -6 h -8.263 v 6 h -8.443 v -6 h -8.263 v 6 h -8.442 v -6 h -8.2634 v 6 h -8.443 v -6 h -8.2629 v 6 h -8.4429 v -6 h -8.263 v 6 h -8.4429 v -6 h -8.263 v 6 H 34"
         id="path10516" />
      <path
         style="fill:none;stroke:#000000;stroke-width:1"
         d="M 34,71 V 58.6217 h 6 V 46.3783 H 34 V 34"
         id="path10518" />
    </g>
    <g
       id="panel2410"
       transform="translate(276.65372,86.5766)">
      <path
         style="fill:none;stroke:#000000;stroke-width:1"
         d="m 183,40 h 4.622 v -6 h 10.756 v 6 H 203"
         id="path10521" />
      <path
         style="fill:none;stroke:#000000;stroke-width:1"
         d="m 203,40 v 6.2883 0 12.4234 0 V 65"
         id="path10523" />
      <path
         style="fill:none;stroke:#000000;stroke-width:1"
         d="m 203,65 h -4.622 v 6 H 187.622 V 65 H 183"
         id="path10525" />
      <path
         style="fill:none;stroke:#000000;stroke-width:1"
         d="m 183,65 v -6.2883 h -6 V 46.2883 h 6 V 40"
         id="path10527" />
    </g>
    <g
       id="panel7271"
       transform="translate(277.65372,111.2883)">
      <path
         style="fill:none;stroke:#000000;stroke-width:1"
         d="m 34,7 h 8.3079 v 0 h 8.443 v 0 h 8.2629 v 0 h 8.443 v 0 h 8.2629 v 0 h 8.4429 v 0 h 8.263 v 0 h 8.4434 v 0 h 8.262 v 0 h 8.443 v 0 h 8.263 v 0 h 8.443 v 0 h 8.263 v 0 h 8.443 v 0 h 8.263 v 0 h 8.443 V 7 H 176"
         id="path10530" />
      <path
         style="fill:none;stroke:#000000;stroke-width:1"
         d="m 176,7 v 4.7117 h -6 v 10.5766 h 6 V 27"
         id="path10532" />
      <path
         style="fill:none;stroke:#000000;stroke-width:1"
         d="m 176,27 h -8.308 v 6 h -8.443 v -6 h -8.263 v 6 h -8.443 v -6 h -8.263 v 6 h -8.443 v -6 h -8.263 v 6 h -8.443 v -6 h -8.262 v 6 h -8.4434 v -6 h -8.263 v 6 h -8.4429 v -6 h -8.2629 v 6 h -8.443 v -6 h -8.2629 v 6 h -8.443 V 27 H 34"
         id="path10534" />
      <path
         style="fill:none;stroke:#000000;stroke-width:1"
         d="m 34,27 v -4.7117 h 6 V 11.7117 H 34 V 7"
         id="path10536" />
    </g>
    <ellipse
       style="fill:none;stroke:#000000;stroke-width:0.203075"
       id="ellipse1223-2"
       cx="339.94861"
       cy="163.7883"
       rx="3.0734625"
       ry="3.0734627" />
    <ellipse
       style="fill:none;stroke:#000000;stroke-width:0.203075"
       id="ellipse1225-9"
       cx="352.41003"
       cy="163.7883"
       rx="3.0734625"
       ry="3.0734627" />
    <ellipse
       style="fill:none;stroke:#000000;stroke-width:0.203075"
       id="ellipse1227-1"
       cx="364.91974"
       cy="163.7883"
       rx="3.0734625"
       ry="3.0734627" />
    <ellipse
       style="fill:none;stroke:#000000;stroke-width:0.203075"
       id="ellipse1229-5"
       cx="377.25732"
       cy="163.7883"
       rx="3.0734625"
       ry="3.0734627" />
    <ellipse
       style="fill:none;stroke:#000000;stroke-width:0.203075"
       id="ellipse1277-6"
       cx="389.70691"
       cy="163.7883"
       rx="3.0734625"
       ry="3.0734627" />
    <ellipse
       style="fill:none;stroke:#000000;stroke-width:0.203075"
       id="ellipse1279-2"
       cx="402.18903"
       cy="163.7883"
       rx="3.0734625"
       ry="3.0734627" />
    <ellipse
       style="fill:none;stroke:#000000;stroke-width:0.203075"
       id="ellipse1281-6"
       cx="414.69873"
       cy="163.7883"
       rx="3.0734625"
       ry="3.0734627" />
    <ellipse
       style="fill:none;stroke:#000000;stroke-width:0.203075"
       id="ellipse1283-2"
       cx="427.03632"
       cy="163.7883"
       rx="3.0734625"
       ry="3.0734627" />
    <ellipse
       style="fill:none;stroke:#000000;stroke-width:0.503096"
       id="ellipse10618"
       cx="192.43369"
       cy="227.49998"
       rx="6.0984516"
       ry="6.0984521" />
    <ellipse
       style="fill:none;stroke:#000000;stroke-width:0.503096"
       id="ellipse10620"
       cx="167.51743"
       cy="227.49998"
       rx="6.0984516"
       ry="6.0984521" />
    <ellipse
       style="fill:none;stroke:#000000;stroke-width:0.503096"
       id="ellipse10622"
       cx="241.51022"
       cy="227.49998"
       rx="6.0984516"
       ry="6.0984521" />
    <ellipse
       style="fill:none;stroke:#000000;stroke-width:0.503096"
       id="ellipse10624"
       cx="216.59399"
       cy="227.49998"
       rx="6.0984516"
       ry="6.0984521" />
    <g
       id="g10634"
       transform="translate(286.09672,137.2883)">
      <path
         style="fill:none;stroke:#000000;stroke-width:1"
         d="m 34,78 h 8.3079 v -6 h 8.443 v 6 h 8.2629 v -6 h 8.443 v 6 h 8.2629 v -6 h 8.4429 v 6 h 8.263 v -6 h 8.4434 v 6 h 8.262 v -6 h 8.443 v 6 h 8.263 v -6 h 8.443 v 6 h 8.263 v -6 h 8.443 v 6 h 8.263 v -6 h 8.443 v 6 H 176"
         id="path10626" />
      <path
         style="fill:none;stroke:#000000;stroke-width:1"
         d="m 176,78 v 4.7117 h -6 v 10.5766 h 6 V 98"
         id="path10628" />
      <path
         style="fill:none;stroke:#000000;stroke-width:1"
         d="m 176,98 h -8.308 v 0 h -8.443 v 0 h -8.263 v 0 h -8.443 v 0 h -8.263 v 0 h -8.443 v 0 h -8.263 v 0 h -8.443 v 0 h -8.262 v 0 h -8.4434 v 0 h -8.263 v 0 h -8.4429 v 0 h -8.2629 v 0 h -8.443 v 0 h -8.2629 v 0 h -8.443 v 0 H 34"
         id="path10630" />
      <path
         style="fill:none;stroke:#000000;stroke-width:1"
         d="m 34,98 v -4.7117 h 6 V 82.7117 H 34 V 78"
         id="path10632" />
    </g>
    <g
       id="g10644"
       transform="rotate(-90,164.55536,100.44466)">
      <path
         style="fill:none;stroke:#000000;stroke-width:1"
         d="m 7,40 h 4.6217 v -6 h 10.7566 v 6 H 27"
         id="path10636" />
      <path
         style="fill:none;stroke:#000000;stroke-width:1"
         d="m 27,40 v 6.2883 h 6 V 58.7117 H 27 V 65"
         id="path10638" />
      <path
         style="fill:none;stroke:#000000;stroke-width:1"
         d="m 27,65 h -4.6217 v 6 H 11.6217 V 65 H 7"
         id="path10640" />
      <path
         style="fill:none;stroke:#000000;stroke-width:1"
         d="m 7,65 v -6.2883 0 -12.4234 0 V 40"
         id="path10642" />
    </g>
    <g
       id="g10654"
       transform="translate(109.74372,174.99999)">
      <path
         style="fill:none;stroke:#000000;stroke-width:1"
         d="m 34,34 h 8.3979 v 6 h 8.263 v -6 h 8.4429 v 6 h 8.263 v -6 h 8.4429 v 6 h 8.2629 v -6 h 8.443 v 6 h 8.2634 v -6 h 8.442 v 6 h 8.263 v -6 h 8.443 v 6 h 8.263 v -6 h 8.443 v 6 h 8.263 v -6 h 8.443 v 6 h 8.263 V 34 H 176"
         id="path10646" />
      <path
         style="fill:none;stroke:#000000;stroke-width:1"
         d="m 176,34 v 12.3783 h -6 v 12.2434 h 6 V 71"
         id="path10648" />
      <path
         style="fill:none;stroke:#000000;stroke-width:1"
         d="m 176,71 h -8.398 v -6 h -8.263 v 6 h -8.443 v -6 h -8.263 v 6 h -8.443 v -6 h -8.263 v 6 h -8.443 v -6 h -8.263 v 6 h -8.442 v -6 h -8.2634 v 6 h -8.443 v -6 h -8.2629 v 6 h -8.4429 v -6 h -8.263 v 6 h -8.4429 v -6 h -8.263 v 6 H 34"
         id="path10650" />
      <path
         style="fill:none;stroke:#000000;stroke-width:1"
         d="M 34,71 V 58.6217 h 6 V 46.3783 H 34 V 34"
         id="path10652" />
    </g>
    <g
       id="g10664"
       transform="translate(109.94644,181.99998)">
      <path
         style="fill:none;stroke:#000000;stroke-width:1"
         d="m 183,40 h 4.622 v -6 h 10.756 v 6 H 203"
         id="path10656" />
      <path
         style="fill:none;stroke:#000000;stroke-width:1"
         d="m 203,40 v 6.2883 0 12.4234 0 V 65"
         id="path10658" />
      <path
         style="fill:none;stroke:#000000;stroke-width:1"
         d="m 203,65 h -4.622 v 6 H 187.622 V 65 H 183"
         id="path10660" />
      <path
         style="fill:none;stroke:#000000;stroke-width:1"
         d="m 183,65 v -6.2883 h -6 V 46.2883 h 6 V 40"
         id="path10662" />
    </g>
    <path
       style="fill:none;stroke:#000000;stroke-width:1"
       d="m 462.09672,235.2883 v 4.71169 h -6 v 10.57659 h 6 v 4.71171"
       id="path10666" />
    <path
       style="fill:none;stroke:#000000;stroke-width:1"
       d="m 462.09672,255.28829 h -8.308 v 6 h -8.443 v -6 h -8.263 v 6 h -8.443 v -6 h -8.263 v 6 h -8.443 v -6 h -8.263 v 6 h -8.443 v -6 h -8.262 v 6 h -8.4434 v -6 h -8.263 v 6 h -8.4429 v -6 h -8.2629 v 6 h -8.443 v -6 h -8.2629 v 6 h -8.443 v -6 h -8.3079"
       id="path10668" />
    <path
       style="fill:none;stroke:#000000;stroke-width:1"
       d="m 320.09672,255.28829 v -4.71171 h 6 v -10.57659 h -6 v -4.71169"
       id="path10670" />
    <ellipse
       style="fill:none;stroke:#000000;stroke-width:0.503096"
       id="ellipse10672"
       cx="265.29257"
       cy="227.49998"
       rx="6.0984516"
       ry="6.0984521" />
  </g>
</svg>
