<?xml version="1.0" encoding="UTF-8" standalone="no"?>
<svg
   xmlns:dc="http://purl.org/dc/elements/1.1/"
   xmlns:cc="http://creativecommons.org/ns#"
   xmlns:rdf="http://www.w3.org/1999/02/22-rdf-syntax-ns#"
   xmlns:svg="http://www.w3.org/2000/svg"
   xmlns="http://www.w3.org/2000/svg"
   xmlns:sodipodi="http://sodipodi.sourceforge.net/DTD/sodipodi-0.dtd"
   xmlns:inkscape="http://www.inkscape.org/namespaces/inkscape"
   width="508mm"
   height="304.79999mm"
   viewBox="0 0 508.00001 304.80001"
   version="1.1"
   id="svg22390"
   inkscape:version="1.0.1 (3bc2e813f5, 2020-09-07)"
   sodipodi:docname="Sander_Pt2.svg">
  <defs
     id="defs22384" />
  <sodipodi:namedview
     id="base"
     pagecolor="#ffffff"
     bordercolor="#666666"
     borderopacity="1.0"
     inkscape:pageopacity="0.0"
     inkscape:pageshadow="2"
     inkscape:zoom="0.49497475"
     inkscape:cx="473.39222"
     inkscape:cy="399.94594"
     inkscape:document-units="mm"
     inkscape:current-layer="layer1"
     inkscape:document-rotation="0"
     showgrid="false"
     units="mm"
     inkscape:window-width="2111"
     inkscape:window-height="1009"
     inkscape:window-x="1469"
     inkscape:window-y="1326"
     inkscape:window-maximized="0" />
  <metadata
     id="metadata22387">
    <rdf:RDF>
      <cc:Work
         rdf:about="">
        <dc:format>image/svg+xml</dc:format>
        <dc:type
           rdf:resource="http://purl.org/dc/dcmitype/StillImage" />
        <dc:title />
      </cc:Work>
    </rdf:RDF>
  </metadata>
  <g
     inkscape:label="Layer 1"
     inkscape:groupmode="layer"
     id="layer1">
    <g
       id="g22171"
       transform="translate(146.50699,-566.59859)">
      <g
         id="panel5950"
         transform="rotate(-90,381.61928,1184.1817)">
        <g
           id="g21912">
          <path
             style="fill:none;stroke:#000000;stroke-width:1"
             d="m 858.10428,802.4 h 5.37372 v 0 h 11.013 v 0 h 10.833 v 0 h 11.013 v 0 h 10.833 v 0 h 11.013 v 0 h 10.834 v 0 h 11.013 v 0 h 10.833 v 0 h 11.013 v 0 h 10.833 v 0 h 11.013 v 0 h 5.3501"
             id="path21521"
             sodipodi:nodetypes="cccccccccccccccccccccccccc" />
          <path
             style="fill:none;stroke:#000000;stroke-width:1"
             d="M 988.6,802.31257 V 818.201 h 6 v 11.013 h -6 v 10.833 h 6 v 11.013 h -6 v 10.833 h 6 v 11.014 h -6 v 10.833 h 6 v 11.013 h -6 v 10.833 h 6 v 11.013 h -6 v 10.833 h 6 v 4.968"
             id="path21523"
             sodipodi:nodetypes="cccccccccccccccccccccccc" />
          <path
             style="fill:none;stroke:#000000;stroke-width:1"
             d="m 994.6,932.4 h -10.878 v 0 h -11.013 v 0 h -10.833 v 0 h -11.013 v 0 H 940.03 v 0 h -11.013 v 0 h -10.834 v 0 H 907.17 v 0 h -10.833 v 0 h -11.013 v 0 h -10.833 v 0 h -11.013 v 0 H 852.6"
             id="path21525" />
          <path
             style="fill:none;stroke:#000000;stroke-width:1"
             d="m 852.6,932.4 v -4.968 h 6 v -10.833 h -6 v -11.013 h 6 v -10.833 h -6 V 883.74 h 6 v -10.833 h -6 v -11.014 h 6 V 851.06 h -6 v -11.013 h 6 v -10.833 h -6 v -11.013 h 6 v -15.74669"
             id="path21527"
             sodipodi:nodetypes="cccccccccccccccccccccccc" />
        </g>
      </g>
    </g>
    <g
       id="g22163"
       transform="translate(-137.94286,-507.59761)"
       style="stroke-width:1;stroke-miterlimit:4;stroke-dasharray:none">
      <g
         id="panel1064"
         style="stroke-width:1;stroke-miterlimit:4;stroke-dasharray:none">
        <path
           style="fill:none;stroke:#000000;stroke-width:1;stroke-miterlimit:4;stroke-dasharray:none"
           d="m 142.2,518.2 h 10.878 v -6 h 11.013 v 6 h 10.833 v -6 h 11.013 v 6 h 10.833 v -6 h 11.013 v 6 h 10.834 v -6 h 11.013 v 6 h 10.833 v -6 h 11.013 v 6 h 10.833 v -6 h 11.013 v 6 H 284.2"
           id="path21458" />
        <path
           style="fill:none;stroke:#000000;stroke-width:1;stroke-miterlimit:4;stroke-dasharray:none"
           d="m 284.2,518.2 v 4.968 h -6 v 10.833 h 6 v 11.013 h -6 v 10.833 h 6 v 11.013 h -6 v 10.833 h 6 v 11.014 h -6 v 10.833 h 6 v 11.013 h -6 v 10.833 h 6 v 11.013 h -6 v 10.833 h 6 v 4.968"
           id="path21460" />
        <path
           style="fill:none;stroke:#000000;stroke-width:1;stroke-miterlimit:4;stroke-dasharray:none"
           d="m 284.2,648.2 h -10.878 v 0 h -11.013 v 0 h -10.833 v 0 h -11.013 v 0 H 229.63 v 0 h -11.013 v 0 h -10.834 v 0 H 196.77 v 0 h -10.833 v 0 h -11.013 v 0 h -10.833 v 0 h -11.013 v 0 H 142.2"
           id="path21462" />
        <path
           style="fill:none;stroke:#000000;stroke-width:1;stroke-miterlimit:4;stroke-dasharray:none"
           d="m 142.2,648.2 v -4.968 h 6 v -10.833 h -6 v -11.013 h 6 v -10.833 h -6 V 599.54 h 6 v -10.833 h -6 v -11.014 h 6 V 566.86 h -6 v -11.013 h 6 v -10.833 h -6 v -11.013 h 6 v -10.833 h -6 V 518.2"
           id="path21464" />
      </g>
      <g
         aria-label="Bottom"
         id="text22120"
         style="font-size:6.8173px;line-height:1.25;font-family:Michroma;-inkscape-font-specification:'Michroma, Normal';writing-mode:lr-tb;fill:#808080;stroke:none;stroke-width:1;stroke-linejoin:bevel;stroke-miterlimit:4;stroke-dasharray:none">
        <path
           d="m 196.26327,531.00409 v -5.11298 h 4.26414 q 0.47934,0 0.77227,0.0799 0.29293,0.0766 0.44938,0.22969 0.15978,0.14979 0.21304,0.37615 0.0533,0.22635 0.0533,0.51929 0,0.21304 -0.0366,0.37615 -0.0366,0.1631 -0.0965,0.28294 -0.0599,0.11984 -0.13648,0.20305 -0.0766,0.0799 -0.15645,0.13315 -0.18641,0.1265 -0.42608,0.14314 0.29959,0.0167 0.5326,0.14647 0.0999,0.0566 0.19307,0.14313 0.0965,0.0832 0.16977,0.20972 0.0766,0.12316 0.12316,0.29293 0.0466,0.16643 0.0466,0.38613 0,0.2663 -0.0266,0.48933 -0.0233,0.2197 -0.0999,0.39612 -0.0766,0.17643 -0.2197,0.30958 -0.14313,0.13315 -0.3828,0.22302 -0.23635,0.0865 -0.58254,0.12983 -0.34286,0.0433 -0.8222,0.0433 z m 3.61836,-0.5326 q 0.37282,0 0.64578,-0.01 0.27296,-0.0133 0.4627,-0.0499 0.18974,-0.0399 0.30624,-0.10985 0.11651,-0.0732 0.17976,-0.18974 0.0666,-0.11983 0.0899,-0.2896 0.0233,-0.16977 0.0233,-0.40944 0,-0.18641 -0.0233,-0.32289 -0.0233,-0.13981 -0.0899,-0.23301 -0.0633,-0.0965 -0.17976,-0.15312 -0.1165,-0.0599 -0.30624,-0.0932 -0.18974,-0.0333 -0.4627,-0.0433 -0.27296,-0.0133 -0.64578,-0.0133 h -2.97924 v 1.91737 z m 0,-2.44997 q 0.32622,0 0.56256,-0.0133 0.23634,-0.0133 0.40278,-0.0499 0.16644,-0.0366 0.26963,-0.0999 0.10319,-0.0666 0.15978,-0.16977 0.0599,-0.10319 0.0799,-0.24632 0.02,-0.14647 0.02,-0.34619 0,-0.21305 -0.0466,-0.3462 -0.0466,-0.13315 -0.16644,-0.20305 -0.11983,-0.0732 -0.32622,-0.0965 -0.20305,-0.0266 -0.52261,-0.0266 h -3.41198 v 1.5978 z"
           style="fill:#808080;stroke:none;stroke-width:1;stroke-miterlimit:4;stroke-dasharray:none"
           id="path22138" />
        <path
           d="m 202.97405,529.06009 q 0,-0.58919 0.12649,-0.97532 0.12649,-0.38614 0.40611,-0.61249 0.27961,-0.22636 0.72567,-0.31624 0.44605,-0.0932 1.08517,-0.0932 0.63913,0 1.08518,0.0932 0.44605,0.0899 0.72567,0.31624 0.27962,0.22635 0.40611,0.61249 0.12649,0.38613 0.12649,0.97532 0,0.58919 -0.12649,0.97866 -0.12649,0.38946 -0.40611,0.61915 -0.27962,0.22968 -0.72567,0.32622 -0.44605,0.0932 -1.08518,0.0932 -0.63912,0 -1.08517,-0.0932 -0.44606,-0.0965 -0.72567,-0.32622 -0.27962,-0.22969 -0.40611,-0.61915 -0.12649,-0.38947 -0.12649,-0.97866 z m 0.63912,0 q 0,0.31956 0.0233,0.55591 0.0233,0.23634 0.0865,0.40611 0.0666,0.16976 0.18308,0.27628 0.11651,0.10652 0.30625,0.16977 0.18974,0.0633 0.45936,0.0865 0.27296,0.0233 0.64578,0.0233 0.31956,0 0.56922,-0.0133 0.25299,-0.0166 0.4394,-0.0699 0.18974,-0.0533 0.32289,-0.1498 0.13315,-0.0999 0.21304,-0.26962 0.0832,-0.16977 0.11983,-0.4161 0.04,-0.24966 0.04,-0.59918 0,-0.34286 -0.04,-0.58253 -0.0366,-0.243 -0.11983,-0.40611 -0.0799,-0.16311 -0.21304,-0.25631 -0.13315,-0.0965 -0.32289,-0.14314 -0.18641,-0.0499 -0.4394,-0.0633 -0.24966,-0.0133 -0.56922,-0.0133 -0.31956,0 -0.57254,0.0133 -0.24966,0.0133 -0.4394,0.0633 -0.18641,0.0466 -0.31956,0.14314 -0.13315,0.0932 -0.21637,0.25631 -0.0799,0.16311 -0.11983,0.40611 -0.0366,0.23967 -0.0366,0.58253 z"
           style="fill:#808080;stroke:none;stroke-width:1;stroke-miterlimit:4;stroke-dasharray:none"
           id="path22140" />
        <path
           d="m 212.13479,529.29976 q 0,0.48933 -0.0799,0.81888 -0.0799,0.32622 -0.26963,0.52261 -0.18641,0.1964 -0.49265,0.27962 -0.30625,0.0832 -0.75563,0.0832 -0.43607,0 -0.73233,-0.0666 -0.29626,-0.0666 -0.47934,-0.22635 -0.18308,-0.15978 -0.26297,-0.42608 -0.0799,-0.2663 -0.0799,-0.66575 v -1.92403 h -0.78892 v -0.52594 h 0.78892 v -1.04856 h 0.63912 v 1.04856 h 2.40669 v 0.52594 h -2.40669 v 1.92403 q 0,0.31956 0.0466,0.49265 0.0499,0.1731 0.15645,0.25299 0.10652,0.0799 0.27962,0.0932 0.17642,0.0133 0.42941,0.0133 0.19973,0 0.35618,-0.007 0.15978,-0.007 0.27628,-0.0399 0.11984,-0.0366 0.20306,-0.10653 0.0832,-0.0732 0.13315,-0.20305 0.0533,-0.12982 0.0766,-0.32622 0.0233,-0.19972 0.0233,-0.48933 z"
           style="fill:#808080;stroke:none;stroke-width:1;stroke-miterlimit:4;stroke-dasharray:none"
           id="path22142" />
        <path
           d="m 216.71517,529.29976 q 0,0.48933 -0.0799,0.81888 -0.0799,0.32622 -0.26963,0.52261 -0.18641,0.1964 -0.49266,0.27962 -0.30625,0.0832 -0.75563,0.0832 -0.43607,0 -0.73232,-0.0666 -0.29626,-0.0666 -0.47935,-0.22635 -0.18308,-0.15978 -0.26297,-0.42608 -0.0799,-0.2663 -0.0799,-0.66575 v -1.92403 h -0.78891 v -0.52594 h 0.78891 v -1.04856 h 0.63912 v 1.04856 h 2.4067 v 0.52594 h -2.4067 v 1.92403 q 0,0.31956 0.0466,0.49265 0.0499,0.1731 0.15645,0.25299 0.10652,0.0799 0.27961,0.0932 0.17643,0.0133 0.42941,0.0133 0.19973,0 0.35618,-0.007 0.15978,-0.007 0.27629,-0.0399 0.11983,-0.0366 0.20305,-0.10653 0.0832,-0.0732 0.13315,-0.20305 0.0533,-0.12982 0.0766,-0.32622 0.0233,-0.19972 0.0233,-0.48933 z"
           style="fill:#808080;stroke:none;stroke-width:1;stroke-miterlimit:4;stroke-dasharray:none"
           id="path22144" />
        <path
           d="m 217.24777,529.06009 q 0,-0.58919 0.12649,-0.97532 0.12649,-0.38614 0.40611,-0.61249 0.27962,-0.22636 0.72567,-0.31624 0.44605,-0.0932 1.08518,-0.0932 0.63912,0 1.08517,0.0932 0.44605,0.0899 0.72567,0.31624 0.27962,0.22635 0.40611,0.61249 0.12649,0.38613 0.12649,0.97532 0,0.58919 -0.12649,0.97866 -0.12649,0.38946 -0.40611,0.61915 -0.27962,0.22968 -0.72567,0.32622 -0.44605,0.0932 -1.08517,0.0932 -0.63913,0 -1.08518,-0.0932 -0.44605,-0.0965 -0.72567,-0.32622 -0.27962,-0.22969 -0.40611,-0.61915 -0.12649,-0.38947 -0.12649,-0.97866 z m 0.63912,0 q 0,0.31956 0.0233,0.55591 0.0233,0.23634 0.0865,0.40611 0.0666,0.16976 0.18308,0.27628 0.11651,0.10652 0.30625,0.16977 0.18974,0.0633 0.45937,0.0865 0.27295,0.0233 0.64578,0.0233 0.31956,0 0.56921,-0.0133 0.25299,-0.0166 0.4394,-0.0699 0.18974,-0.0533 0.32289,-0.1498 0.13315,-0.0999 0.21304,-0.26962 0.0832,-0.16977 0.11983,-0.4161 0.0399,-0.24966 0.0399,-0.59918 0,-0.34286 -0.0399,-0.58253 -0.0366,-0.243 -0.11983,-0.40611 -0.0799,-0.16311 -0.21304,-0.25631 -0.13315,-0.0965 -0.32289,-0.14314 -0.18641,-0.0499 -0.4394,-0.0633 -0.24965,-0.0133 -0.56921,-0.0133 -0.31957,0 -0.57255,0.0133 -0.24966,0.0133 -0.4394,0.0633 -0.18641,0.0466 -0.31956,0.14314 -0.13315,0.0932 -0.21637,0.25631 -0.0799,0.16311 -0.11983,0.40611 -0.0366,0.23967 -0.0366,0.58253 z"
           style="fill:#808080;stroke:none;stroke-width:1;stroke-miterlimit:4;stroke-dasharray:none"
           id="path22146" />
        <path
           d="m 226.72808,531.00409 h -0.63913 v -2.16369 q 0,-0.3462 -0.0466,-0.58254 -0.0433,-0.23967 -0.18308,-0.38613 -0.13648,-0.14647 -0.38947,-0.20972 -0.24965,-0.0666 -0.65909,-0.0666 -0.44938,0 -0.73898,0.0766 -0.28961,0.0732 -0.45604,0.20971 -0.16644,0.13315 -0.23302,0.32289 -0.0632,0.18974 -0.0632,0.42275 v 2.37674 h -0.63913 v -3.83473 h 0.63913 v 0.60583 q 0.003,-0.01 0.0299,-0.0666 0.0266,-0.0566 0.0932,-0.13315 0.0699,-0.0799 0.18641,-0.16977 0.11984,-0.0899 0.30625,-0.16644 0.18974,-0.0766 0.45604,-0.12649 0.2663,-0.0499 0.63246,-0.0499 0.35951,0 0.62248,0.0466 0.2663,0.0433 0.45271,0.13315 0.18974,0.0866 0.30625,0.2197 0.11983,0.12982 0.18974,0.29959 0.0566,-0.0899 0.17642,-0.20971 0.11984,-0.11984 0.33288,-0.22969 0.21637,-0.10985 0.53925,-0.18308 0.32289,-0.0766 0.78892,-0.0766 0.38281,0 0.65577,0.0533 0.27628,0.0499 0.46602,0.15312 0.18974,0.0999 0.30292,0.24966 0.11651,0.14979 0.17642,0.34952 0.0632,0.19639 0.0832,0.44272 0.02,0.243 0.02,0.52928 v 2.16369 h -0.63913 v -2.16369 q 0,-0.3462 -0.0466,-0.58254 -0.0433,-0.23967 -0.18308,-0.38613 -0.13648,-0.14647 -0.38947,-0.20972 -0.24965,-0.0666 -0.65909,-0.0666 -0.44938,0 -0.73898,0.0766 -0.28961,0.0732 -0.45604,0.20971 -0.16644,0.13315 -0.23302,0.32289 -0.0632,0.18974 -0.0632,0.42275 z"
           style="fill:#808080;stroke:none;stroke-width:1;stroke-miterlimit:4;stroke-dasharray:none"
           id="path22148" />
      </g>
    </g>
    <g
       id="g22200"
       transform="translate(276.50699,-566.59859)">
      <g
         id="g22198"
         transform="rotate(-90,381.61928,1184.1817)">
        <g
           id="g22196">
          <path
             style="fill:none;stroke:#000000;stroke-width:1"
             d="m 858.10428,802.4 h 5.37372 v 0 h 11.013 v 0 h 10.833 v 0 h 11.013 v 0 h 10.833 v 0 h 11.013 v 0 h 10.834 v 0 h 11.013 v 0 h 10.833 v 0 h 11.013 v 0 h 10.833 v 0 h 11.013 v 0 h 5.3501"
             id="path22188"
             sodipodi:nodetypes="cccccccccccccccccccccccccc" />
          <path
             style="fill:none;stroke:#000000;stroke-width:1"
             d="M 988.6,802.31257 V 818.201 h 6 v 11.013 h -6 v 10.833 h 6 v 11.013 h -6 v 10.833 h 6 v 11.014 h -6 v 10.833 h 6 v 11.013 h -6 v 10.833 h 6 v 11.013 h -6 v 10.833 h 6 v 4.968"
             id="path22190"
             sodipodi:nodetypes="cccccccccccccccccccccccc" />
          <path
             style="fill:none;stroke:#000000;stroke-width:1"
             d="m 994.6,932.4 h -10.878 v 0 h -11.013 v 0 h -10.833 v 0 h -11.013 v 0 H 940.03 v 0 h -11.013 v 0 h -10.834 v 0 H 907.17 v 0 h -10.833 v 0 h -11.013 v 0 h -10.833 v 0 h -11.013 v 0 H 852.6"
             id="path22192" />
          <path
             style="fill:none;stroke:#000000;stroke-width:1"
             d="m 852.6,932.4 v -4.968 h 6 v -10.833 h -6 v -11.013 h 6 v -10.833 h -6 V 883.74 h 6 v -10.833 h -6 v -11.014 h 6 V 851.06 h -6 v -11.013 h 6 v -10.833 h -6 v -11.013 h 6 v -15.74669"
             id="path22194"
             sodipodi:nodetypes="cccccccccccccccccccccccc" />
        </g>
      </g>
    </g>
    <g
       id="g22226"
       transform="rotate(-90,245.07998,890.12241)">
      <g
         id="g22224">
        <path
           style="fill:none;stroke:#000000;stroke-width:1"
           d="m 858.10428,802.4 h 5.37372 v 0 h 11.013 v 0 h 10.833 v 0 h 11.013 v 0 h 10.833 v 0 h 11.013 v 0 h 10.834 v 0 h 11.013 v 0 h 10.833 v 0 h 11.013 v 0 h 10.833 v 0 h 11.013 v 0 h 5.3501"
           id="path22216"
           sodipodi:nodetypes="cccccccccccccccccccccccccc" />
        <path
           style="fill:none;stroke:#000000;stroke-width:1"
           d="M 988.6,802.31257 V 818.201 h 6 v 11.013 h -6 v 10.833 h 6 v 11.013 h -6 v 10.833 h 6 v 11.014 h -6 v 10.833 h 6 v 11.013 h -6 v 10.833 h 6 v 11.013 h -6 v 10.833 h 6 v 4.968"
           id="path22218"
           sodipodi:nodetypes="cccccccccccccccccccccccc" />
        <path
           style="fill:none;stroke:#000000;stroke-width:1"
           d="m 994.6,932.4 h -10.878 v 0 h -11.013 v 0 h -10.833 v 0 h -11.013 v 0 H 940.03 v 0 h -11.013 v 0 h -10.834 v 0 H 907.17 v 0 h -10.833 v 0 h -11.013 v 0 h -10.833 v 0 h -11.013 v 0 H 852.6"
           id="path22220" />
        <path
           style="fill:none;stroke:#000000;stroke-width:1"
           d="m 852.6,932.4 v -4.968 h 6 v -10.833 h -6 v -11.013 h 6 v -10.833 h -6 V 883.74 h 6 v -10.833 h -6 v -11.014 h 6 V 851.06 h -6 v -11.013 h 6 v -10.833 h -6 v -11.013 h 6 v -15.74669"
           id="path22222"
           sodipodi:nodetypes="cccccccccccccccccccccccc" />
      </g>
    </g>
    <g
       id="g22242"
       transform="translate(10.50956,-430.59859)">
      <g
         id="g22240"
         transform="rotate(-90,381.61928,1184.1817)">
        <g
           id="g22238">
          <path
             style="fill:none;stroke:#000000;stroke-width:1"
             d="m 858.10428,802.4 h 5.37372 v 0 h 11.013 v 0 h 10.833 v 0 h 11.013 v 0 h 10.833 v 0 h 11.013 v 0 h 10.834 v 0 h 11.013 v 0 h 10.833 v 0 h 11.013 v 0 h 10.833 v 0 h 11.013 v 0 h 5.3501"
             id="path22230"
             sodipodi:nodetypes="cccccccccccccccccccccccccc" />
          <path
             style="fill:none;stroke:#000000;stroke-width:1"
             d="M 988.6,802.31257 V 818.201 h 6 v 11.013 h -6 v 10.833 h 6 v 11.013 h -6 v 10.833 h 6 v 11.014 h -6 v 10.833 h 6 v 11.013 h -6 v 10.833 h 6 v 11.013 h -6 v 10.833 h 6 v 4.968"
             id="path22232"
             sodipodi:nodetypes="cccccccccccccccccccccccc" />
          <path
             style="fill:none;stroke:#000000;stroke-width:1"
             d="m 994.6,932.4 h -10.878 v 0 h -11.013 v 0 h -10.833 v 0 h -11.013 v 0 H 940.03 v 0 h -11.013 v 0 h -10.834 v 0 H 907.17 v 0 h -10.833 v 0 h -11.013 v 0 h -10.833 v 0 h -11.013 v 0 H 852.6"
             id="path22234" />
          <path
             style="fill:none;stroke:#000000;stroke-width:1"
             d="m 852.6,932.4 v -4.968 h 6 v -10.833 h -6 v -11.013 h 6 v -10.833 h -6 V 883.74 h 6 v -10.833 h -6 v -11.014 h 6 V 851.06 h -6 v -11.013 h 6 v -10.833 h -6 v -11.013 h 6 v -15.74669"
             id="path22236"
             sodipodi:nodetypes="cccccccccccccccccccccccc" />
        </g>
      </g>
    </g>
    <path
       style="fill:none;stroke:#000000;stroke-width:1"
       d="m 287.17757,277.09811 v -5.37372 0 -11.013 0 -10.833 0 -11.013 0 -10.833 0 -11.013 0 -10.834 0 -11.013 0 -10.833 0 -11.013 0 -10.833 0 -11.013 0 -5.3501"
       id="path22244"
       sodipodi:nodetypes="cccccccccccccccccccccccccc" />
    <path
       style="fill:none;stroke:#000000;stroke-width:1"
       d="m 287.09014,146.60239 h 15.88843 v -6 h 11.013 v 6 h 10.833 v -6 h 11.013 v 6 h 10.833 v -6 h 11.014 v 6 h 10.833 v -6 h 11.013 v 6 h 10.833 v -6 h 11.013 v 6 h 10.833 v -6 h 4.968"
       id="path22246"
       sodipodi:nodetypes="cccccccccccccccccccccccc" />
    <path
       style="fill:none;stroke:#000000;stroke-width:1"
       d="m 417.17757,140.60239 v 10.878 0 11.013 0 10.833 0 11.013 0 10.833 0 11.013 0 10.834 0 11.013 0 10.833 0 11.013 0 10.833 0 11.013 0 10.878"
       id="path22248" />
    <path
       style="fill:none;stroke:#000000;stroke-width:1"
       d="m 417.17757,282.60239 h -4.968 v -6 h -10.833 v 6 h -11.013 v -6 h -10.833 v 6 h -11.013 v -6 h -10.833 v 6 h -11.014 v -6 h -10.833 v 6 h -11.013 v -6 h -10.833 v 6 h -11.013 v -6 h -15.74669"
       id="path22250"
       sodipodi:nodetypes="cccccccccccccccccccccccc" />
  </g>
</svg>
